<?xml version="1.0" standalone="no"?>
<!DOCTYPE svg PUBLIC "-//W3C//DTD SVG 1.1//EN" "http://www.w3.org/Graphics/SVG/1.1/DTD/svg11.dtd" >
<svg xmlns="http://www.w3.org/2000/svg" xmlns:xlink="http://www.w3.org/1999/xlink" version="1.1">
<metadata>
Created by FontForge 20200314 at Sat Mar  5 02:25:06 2011
 By Unknown
Copyright (c) 2007 Linotype GmbH, www.linotype.com. All rights reserved. This font software may not be reproduced, modified, disclosed or transferred without the express written approval of Linotype GmbH. Mistral is a trademark of Linotype GmbH and may be registered in certain jurisdictions. This typeface is original artwork of Roger Excoffon. The design may be protected in certain jurisdictions. The digitally encoded machine readable software for producing the Typefaces licensed to you is copyrighted (c) 1989, 1990 Adobe Systems. All Rights Reserved. This software is the property of Adobe Systems Incorporated and its licensors, and may not be reproduced, used, displayed, modified, disclosed, or transferred without the express written approval of Adobe.
</metadata>
<defs>
<font id="MistralW01" horiz-adv-x="444" >
  <font-face 
    font-family="MistralW01"
    font-weight="400"
    font-stretch="normal"
    units-per-em="1000"
    panose-1="2 0 5 6 2 0 0 2 0 4"
    ascent="800"
    descent="-200"
    x-height="310"
    cap-height="700"
    bbox="-115 -342 1161 904"
    underline-thickness="50"
    underline-position="-100"
    unicode-range="U+000D-E308"
  />
<missing-glyph horiz-adv-x="232" 
 />
    <glyph glyph-name=".notdef" horiz-adv-x="232" 
 />
    <glyph glyph-name=".null" horiz-adv-x="0" 
 />
    <glyph glyph-name="uni000D" unicode="&#xd;" horiz-adv-x="0" 
 />
    <glyph glyph-name="space" unicode=" " horiz-adv-x="232" 
 />
    <glyph glyph-name="exclam" unicode="!" horiz-adv-x="333" 
d="M263 689q0 -11 -3.5 -25t-7 -31.5t-7 -36.5t-3.5 -39q0 -16 -3 -31.5t-7 -33t-7 -36.5t-3 -41q0 -9 -4.5 -26.5t-9.5 -38.5t-10 -44t-5 -45q-10 -20 -13.5 -47.5t-3.5 -49.5q-4 -8 -12 -18t-17 -19t-18.5 -15.5t-15.5 -6.5q-3 0 -5.5 2.5t-2.5 13.5q0 7 2.5 25t2.5 31
q0 4 -2 8t-2 14q0 16 2.5 29t8.5 30q0 29 1.5 46.5t4 31t4 27t1.5 34.5q2 1 4 8t4 17.5t3.5 23.5t1.5 26q0 5 -0.5 11.5t-2.5 10.5q-13 0 -15 3t-2 8q0 6 2 18t5 27t5 31t2 31q4 27 11.5 42t31.5 20q14 14 33 29t34 15q11 0 14.5 -4.5t3.5 -24.5zM175 36q0 -8 -2 -15.5
t-2 -20.5v-14q0 -15 -24 -15q-6 0 -11 -1t-11 -2.5t-15 -2.5t-24 -1q-3 0 -6 6t-5.5 14.5t-3.5 16t-1 10.5q2 5 9 14t15.5 18t17 16t14.5 7q3 0 7.5 -0.5t9.5 -1.5q17 -1 24.5 -6.5t7.5 -21.5z" />
    <glyph glyph-name="quotedbl" unicode="&#x22;" horiz-adv-x="232" 
d="M41 706q22 0 31 -13t9 -32q0 -14 -6 -26q1 -2 3 -10.5t3.5 -19t2.5 -21.5t1 -18q0 -14 -2.5 -29t-2.5 -29q0 -5 1 -10.5t1 -10.5q0 -9 -2.5 -18.5t-13.5 -9.5q-8 0 -10.5 4.5t-13.5 6.5q-2 7 -7.5 11t-12 7.5t-11.5 7t-5 9.5q0 10 1 22t1 18q0 5 -1.5 16t-1.5 15
q0 14 1 27.5t1 42.5q0 17 -1 27.5t-1 13.5q0 11 11.5 15t24.5 4zM191 706q22 0 31 -13t9 -32q0 -14 -6 -26q1 -2 3 -10.5t3.5 -19t2.5 -21.5t1 -18q0 -14 -2.5 -29t-2.5 -29q0 -5 1 -10.5t1 -10.5q0 -9 -2.5 -18.5t-13.5 -9.5q-8 0 -10.5 4.5t-13.5 6.5q-2 7 -7.5 11
t-12 7.5t-11.5 7t-5 9.5q0 10 1 22t1 18q0 5 -1.5 16t-1.5 15q0 14 1 27.5t1 42.5q0 17 -1 27.5t-1 13.5q0 11 11.5 15t24.5 4z" />
    <glyph glyph-name="numbersign" unicode="#" horiz-adv-x="464" 
d="M410 170q11 0 14 -11.5t1 -24.5q-3 -22 -17 -31t-33 -9q-15 0 -25 6q-4 -2 -8 -3q-1 -2 -1 -5t-1 -7q-2 -17 -2 -27.5v-12.5q-2 -11 -13.5 -15t-24.5 -4q-22 0 -29.5 12.5t-5.5 31.5q0 10 5 20q-15 0 -46 0.5t-63 2.5q0 -5 -1 -8q-2 -17 -2 -27.5v-12.5q-2 -11 -13.5 -15
t-24.5 -4q-22 0 -29.5 12.5t-5.5 31.5q2 15 7 24q-11 1 -19 1h-11q-5 0 -10.5 -1t-10.5 -1q-9 0 -18.5 2.5t-7.5 13.5q1 8 6 16t9 19q7 1 8 5.5t0.5 8.5t0 7.5t6.5 3.5q7 0 21 -0.5t26 -1.5q1 11 5.5 45t9.5 72h-23q-5 0 -11 -1t-11 -1q-9 0 -18 2.5t-8 13.5q1 8 5.5 10.5
t8.5 13.5q7 1 11.5 7t8.5 12.5t8.5 11.5t10.5 5t13.5 -0.5t14.5 -0.5q2 10 2.5 16.5t1.5 9.5q1 5 0 10.5t0 10.5q1 9 -1 13t9 4q8 0 11.5 -3t13.5 -5q1 -7 9.5 -6t18.5 4t18 4.5t7 -4.5q-1 -8 -6 -25t-9 -29q27 1 56.5 1t49.5 1q1 18 3 24q1 5 0 10.5t0 10.5q1 9 3.5 7
t13.5 -2q4 0 6.5 2.5t4.5 5t5.5 4t8.5 0.5q1 -7 6 -11t11 -7.5t11 -7t4 -9.5q-1 -13 -5 -29h20q17 0 27.5 1t13.5 1q11 0 14 -11.5t1 -24.5q-2 -22 -16.5 -31t-33.5 -9q-13 0 -25 6l-8 -2q-3 -32 -6.5 -66.5t-5.5 -52.5h17q17 0 28 1t14 1zM287 280q-17 0 -45.5 0.5
t-59.5 1.5q-3 -31 -6 -64t-5 -50q26 0 53.5 0.5t47.5 0.5q2 12 6 44t9 67z" />
    <glyph glyph-name="dollar" unicode="$" horiz-adv-x="464" 
d="M389 136q0 -5 -6 -8.5t-15 -8t-19 -10.5t-17 -15q-27 -32 -57.5 -53.5t-55.5 -35.5q-2 -3 -3 -13.5t-2 -22.5t-2.5 -21t-3.5 -9h-20q-3 0 -5 1.5t-2 7.5q0 9 2 17t2 23q-9 -4 -16.5 -8.5t-16 -8t-19.5 -5.5t-27 -2q-8 5 -18 7.5t-18.5 6.5t-14.5 10t-6 18q0 16 17 26
t42 27q26 9 50 20.5t37 17.5q0 7 2.5 24t4.5 38t4 45t2 47q-5 10 -14.5 19t-20 17t-20 16t-14.5 15q-10 16 -20.5 27.5t-19.5 23.5t-14.5 29t-5.5 45q0 22 6 38t13.5 28t15 22t11.5 20q5 6 22 20.5t37 29.5t38.5 28t27.5 17q2 37 4 57.5t4 30t4.5 11.5t5.5 2q20 0 26 -1
t6 -9q0 -3 -1 -13t-2.5 -21t-3 -20.5t-1.5 -12.5q16 2 27.5 8t18.5 6q11 1 23 8.5t31 7.5q17 0 23.5 -13.5t6.5 -31.5q0 -3 -0.5 -10t-2 -14.5t-4.5 -13.5t-7 -7q-3 0 -15 -10t-30 -22t-39.5 -22t-42.5 -10q-3 -12 -5 -27.5t-3.5 -30.5t-2.5 -27t-3 -16q0 -29 -4.5 -50.5
t-4.5 -48.5q14 -20 32.5 -35.5t42.5 -47.5q14 -14 21 -25t10 -21.5t3.5 -22.5t3.5 -29q14 -2 16 -6t2 -23zM183 468q0 -11 6 -20t8 -19q2 -17 10.5 -23t16.5 -18q2 7 4 29.5t3.5 47t3.5 45t5 25.5q-9 0 -16 -2t-12 -2t-10.5 -7.5t-9.5 -18t-6.5 -21t-2.5 -16.5zM245 216
q-2 -23 -7 -54t-5 -53q28 9 39.5 17t11.5 25q0 10 -3 16.5t-7 11.5l-8 10t-6 12z" />
    <glyph glyph-name="percent" unicode="%" horiz-adv-x="685" 
d="M380 133q0 6 3 19t6.5 27t7 25.5t4.5 13.5q1 14 4.5 24.5t11.5 22.5q0 17 5.5 24.5t10.5 21.5q0 8 6 21t13 26q0 7 5 13.5t12 11t15.5 7t14.5 2.5q11 0 14.5 -2t3.5 -13q12 11 20.5 16.5t25.5 5.5q13 0 20 -1.5t11.5 -5t8 -9t9.5 -12.5q5 -8 9.5 -21t7.5 -26.5t4.5 -25.5
t1.5 -17q0 -4 -1 -6.5t-1 -4.5t1 -7.5t1 -10.5q0 -13 -2.5 -25t-3.5 -32q-4 -6 -6 -14.5t-3.5 -16.5t-3 -14.5t-3.5 -7.5q-1 -17 -7 -30t-9 -28q-16 -18 -26.5 -36.5t-19.5 -33.5t-19.5 -26t-25.5 -14q-6 -1 -11.5 -5.5t-16.5 -4.5q-3 0 -10.5 1t-15.5 3t-14 5t-7 8
q-12 1 -18.5 6.5t-11 12.5t-8 14t-9.5 13q0 34 -0.5 43.5t-3.5 11.5q0 3 2 12t2 11t-2 11.5t-2 16.5zM50 434q0 6 3 19t6.5 27t7 25.5t4.5 13.5q1 14 4.5 24.5t11.5 22.5q0 17 5.5 24.5t10.5 21.5q0 8 6 21t13 26q0 7 5 13.5t12 11t15.5 7t14.5 2.5q11 0 14.5 -2t3.5 -13
q12 11 20.5 16.5t25.5 5.5q13 0 20 -1.5t11.5 -5t8 -9t9.5 -12.5q5 -8 9.5 -21t7.5 -26.5t4.5 -25.5t1.5 -17q0 -4 -1 -6.5t-1 -4.5t1 -7.5t1 -10.5q0 -13 -2.5 -25t-3.5 -32q-4 -6 -6 -14.5t-3.5 -16.5t-3 -14.5t-3.5 -7.5q-1 -17 -7 -30t-9 -28q-16 -18 -26.5 -36.5
t-19.5 -33.5t-19.5 -26t-25.5 -14q-6 -1 -11.5 -5.5t-16.5 -4.5q-3 0 -10.5 1t-15.5 3t-14 5t-7 8q-12 1 -18.5 6.5t-11 12.5t-8 14t-9.5 13q0 34 -0.5 43.5t-3.5 11.5q0 3 2 12t2 11t-2 11.5t-2 16.5zM131 -40q0 19 3 31.5t7.5 23t10 22.5t10.5 29q3 9 10 19t15 24t17 33
t17 45q6 6 13 22t15 35t16.5 37t17.5 28q7 8 15.5 24.5t17.5 35.5t17.5 36.5t17.5 28.5q10 23 13.5 34.5t14.5 23.5q7 21 14.5 35t15.5 28.5t17 32.5t20 48q0 6 5.5 18.5t12.5 25t14.5 23.5t11.5 14t10.5 3.5t14.5 5.5q9 6 21.5 11t16.5 5q3 0 4 -2.5t3 -12.5q0 -7 -10 -21
q0 -5 -2.5 -12.5t-7 -20t-10.5 -30.5t-13 -44q-15 -29 -22.5 -48.5t-12 -32.5t-9 -21t-13.5 -14q-17 -27 -25.5 -44t-13 -27.5t-6.5 -16.5t-6 -12q-15 -17 -21.5 -28.5t-11 -22.5t-9.5 -23.5t-16 -29.5q-17 -30 -25 -44t-11 -26q-14 -14 -25 -34t-15 -40q-2 0 -9 -10.5
t-15.5 -27t-18 -35.5t-17.5 -37t-13 -32t-5 -19q-5 -8 -8 -17t-7.5 -17t-12.5 -13t-21 -5q-6 0 -11.5 9t-5.5 29zM533 309q-11 0 -17.5 -5.5t-25.5 -9.5q-9 -2 -12.5 -14.5t-12.5 -27.5q-2 -23 -3.5 -38t-3.5 -25.5t-3 -19t-1 -19.5q0 -12 2 -19.5t2 -9.5t-2.5 -7.5
t-2.5 -9.5q0 -7 1.5 -17t5.5 -19.5t10 -16.5t15 -7q6 0 9 2t5.5 5t6.5 6t12 6q7 13 15.5 23t16.5 26t14.5 43t9.5 74q-4 25 -4.5 38.5t-7.5 16.5q-6 19 -11.5 22t-17.5 3zM203 610q-11 0 -17.5 -5.5t-25.5 -9.5q-9 -2 -12.5 -14.5t-12.5 -27.5q-2 -23 -3.5 -38t-3.5 -25.5
t-3 -19t-1 -19.5q0 -12 2 -19.5t2 -9.5t-2.5 -7.5t-2.5 -9.5q0 -7 1.5 -17t5.5 -19.5t10 -16.5t15 -7q6 0 9 2t5.5 5t6.5 6t12 6q7 13 15.5 23t16.5 26t14.5 43t9.5 74q-4 25 -4.5 38.5t-7.5 16.5q-6 19 -11.5 22t-17.5 3z" />
    <glyph glyph-name="ampersand" unicode="&#x26;" horiz-adv-x="611" 
d="M186 -5q0 14 5 24.5t5 24.5q0 13 4 23t6 25q1 6 4.5 16.5t3.5 26.5q0 3 -11.5 12t-25.5 20q-6 11 -14.5 20.5t-18.5 19.5t-18.5 20.5t-14.5 23.5q-9 19 -17.5 33t-16 26.5t-13 26t-8.5 33.5q-10 22 -14.5 47t-4.5 37q0 17 1 24t4 15q-3 15 -3 30q0 13 2.5 23t6.5 20.5
t9.5 23t10.5 30.5q7 11 25 21.5t32 10.5q5 0 8.5 -1t5.5 -1q3 0 7 1t9 1q8 0 22 -5t27 -21q20 -6 34 -28q21 -10 29 -27q17 -14 27 -33.5t16 -39.5q4 -2 6.5 -7.5t5.5 -11.5t7 -11t11 -5q5 0 11.5 6.5t13 16.5t14.5 21t16 19q1 4 7.5 12.5t15 18.5t17.5 20t14 19q4 2 7 4
t5 2t10 -2q7 4 19 4t17 -3.5t5 -8.5q0 -11 -8.5 -27t-19 -33t-19.5 -32t-11 -23q-3 -12 -9 -24t-12.5 -22t-11.5 -17t-5 -10q0 -5 -5.5 -19.5t-13 -30t-15.5 -30t-13 -19.5q0 -19 1 -29.5t1 -19.5q0 -5 -1.5 -14.5t-1.5 -13.5q0 -7 1 -14.5t1 -12.5t-3 -13t-3 -11
q0 -9 9.5 -17t44.5 -8q11 0 24 4t48 4q6 0 17 5.5l23 11.5t22 11.5t14 5.5q8 0 8 -6q0 -8 -0.5 -13.5t-4.5 -10.5t-11.5 -11t-20.5 -15q-4 -9 -13 -18.5t-20 -17t-22 -12t-18 -4.5q-18 -9 -41.5 -11.5t-71.5 -2.5q-17 0 -25.5 -9t-14 -21.5t-12 -24.5t-19.5 -18
q-10 -16 -29 -25.5t-39 -9.5q-15 0 -20.5 8.5t-5.5 22.5zM296 406q0 4 -1.5 7.5t-4 9t-4 15t-1.5 25.5q-10 8 -15.5 16.5t-9.5 17l-8 17t-10 16.5q-7 3 -15.5 15t-20 25t-25 23.5t-30.5 10.5q-6 0 -13 -2.5t-14 -7.5t-11.5 -12.5t-4.5 -17.5q-4 -12 -6.5 -28.5t-2.5 -30.5
q0 -6 2 -17t4 -23t4 -22.5t2 -15.5q0 -26 8 -46.5t18.5 -37t20.5 -29t13 -21.5q23 -22 40.5 -42.5t29.5 -20.5q5 0 7.5 4t5.5 11t7.5 16t12.5 19q1 12 4 19t7 12.5t7 10t3 12.5q-8 0 -13.5 -4t-9.5 -8.5t-7.5 -8.5t-7.5 -4q0 22 6 35t13.5 23t13.5 18.5t6 20.5z" />
    <glyph glyph-name="quotesingle" unicode="'" horiz-adv-x="232" 
d="M121 706q22 0 31 -13t9 -32q0 -14 -6 -26q1 -2 3 -10.5t3.5 -19t2.5 -21.5t1 -18q0 -14 -2.5 -29t-2.5 -29q0 -5 1 -10.5t1 -10.5q0 -9 -2.5 -18.5t-13.5 -9.5q-8 0 -10.5 4.5t-13.5 6.5q-2 7 -7.5 11t-12 7.5t-11.5 7t-5 9.5q0 10 1 22t1 18q0 5 -1.5 16t-1.5 15
q0 14 1 27.5t1 42.5q0 17 -1 27.5t-1 13.5q0 11 11.5 15t24.5 4z" />
    <glyph glyph-name="parenleft" unicode="(" horiz-adv-x="333" 
d="M93 221q0 55 9 99.5t17 84.5q8 32 19 57.5t15 38.5t11 28t14 28t13 23t8 15q5 12 16 30.5t24.5 36.5t28.5 31t29 13q11 0 11 -9q0 -13 -9 -29.5t-12 -34.5q-2 -9 -11 -32.5t-22.5 -57t-28.5 -74.5t-28 -85t-21.5 -88.5t-8.5 -85.5q0 -12 3 -31t7 -37.5t8 -33.5t7 -20
q4 -9 14 -27.5t19.5 -39.5t17 -40.5t7.5 -29.5q0 -23 -24 -23q-11 0 -21 4.5t-21 5.5q-8 5 -23 27t-30 58.5t-26.5 86.5t-11.5 111z" />
    <glyph glyph-name="parenright" unicode=")" horiz-adv-x="333" 
d="M240 413q0 -55 -9 -99.5t-17 -84.5q-8 -32 -19 -57.5t-15 -38.5q-4 -14 -11 -28.5t-14 -27.5t-13 -23t-8 -15q-5 -12 -16 -30.5t-24.5 -36.5t-29 -31t-28.5 -13q-11 0 -11 9q0 13 9 29.5t12 34.5q2 9 11 32.5t22.5 57t28.5 74.5t28 85t21.5 88.5t8.5 85.5q0 12 -3 31
t-7 37.5t-8 33.5t-7 20q-5 9 -14.5 27.5t-19 39.5t-17 40t-7.5 30q0 23 24 23q11 0 21 -4.5t21 -5.5q7 -5 22.5 -27t30.5 -58.5t26.5 -86.5t11.5 -111z" />
    <glyph glyph-name="asterisk" unicode="*" horiz-adv-x="426" 
d="M271 671q0 -29 -6 -56.5t-6 -56.5q11 4 19 14t22 21q2 1 9.5 8t16 15t15 15.5t6.5 9.5q0 13 10 13q14 0 23 -8.5t9 -22.5q0 -8 -5 -15t-18 -17.5t-34.5 -25.5t-55.5 -39q9 -5 15.5 -8t12 -5t11.5 -4.5t15 -7.5q13 -8 24 -11t19 -5.5t12.5 -4.5t4.5 -8q0 -13 -11 -20.5
t-23 -7.5q-9 0 -21.5 6t-25.5 14t-26.5 15.5t-23.5 10.5q0 -9 0.5 -23.5t1.5 -30.5t3 -30t5 -23q4 -3 6 -8q-3 -12 -28 -12q-22 0 -26 16t-4 47q0 11 1.5 29t1.5 31q-5 -2 -17 -10.5t-26 -18.5t-28 -17.5t-24 -7.5q-11 0 -22 6t-11 17q0 6 4 9.5t10 6t12 4.5t10 6
q3 2 13 7.5t22 11.5t23.5 12.5t16.5 11.5q-12 9 -20.5 14.5t-16.5 10.5t-16 10.5t-18 14.5q-26 12 -33.5 19.5t-7.5 26.5q0 11 4.5 21.5t16.5 10.5q4 0 10 -5.5t28 -32.5q29 -20 44.5 -37t25.5 -17q0 19 -1 38t-1 38q0 5 1 7t1 5q0 5 -2 16.5t-2 20.5q0 8 12 8q6 0 9.5 3.5
t6.5 3.5q19 0 23 -6t4 -23z" />
    <glyph glyph-name="plus" unicode="+" horiz-adv-x="315" 
d="M166 89q-22 0 -31 13t-9 32q0 7 -0.5 14t2.5 13q-2 2 -2.5 8t-1.5 14q-11 1 -21 2.5t-20 1.5q-5 0 -10.5 -1t-10.5 -1q-9 0 -18.5 2.5t-9.5 13.5q0 8 4.5 10.5t6.5 13.5q7 1 11 7t7.5 12.5t7 11.5t9.5 5q10 0 22 -1t18 -1h4l2 14t1 14q0 5 -1 10.5t-1 10.5q0 9 2.5 18.5
t13.5 9.5q8 0 27.5 -3t30.5 -5q3 -14 2.5 -20t-0.5 -18q0 -7 -1 -15t-1 -15h22q17 0 27.5 1t13.5 1q11 0 15 -11.5t4 -24.5q0 -22 -13 -31t-32 -9q-14 0 -26 6q-3 -2 -10 -3v-40q0 -17 1 -27.5t1 -13.5q0 -11 -11.5 -15t-24.5 -4z" />
    <glyph glyph-name="comma" unicode="," horiz-adv-x="232" 
d="M27 -102q0 11 5.5 28.5t11.5 37.5t11.5 41t5.5 40q0 15 3 20t3 10t-1 9t-1 12q0 5 2.5 10t2.5 15q0 4 7 8t16 8t17 6.5t9 2.5q4 0 15.5 -4.5t14.5 -9.5l7 -3.5t3 -6.5q0 -2 -3.5 -13t-8.5 -24t-10 -25t-8 -15q-8 -26 -13 -37.5t-8 -11.5q-1 -7 -4.5 -14t-8 -15.5
t-8.5 -18t-5 -21.5q0 -4 -5 -10t-12 -11.5t-14.5 -9.5t-12.5 -4q-11 0 -11 6z" />
    <glyph glyph-name="hyphen" unicode="-" horiz-adv-x="315" 
d="M279 226q0 -22 -13 -31t-32 -9q-14 0 -26 6q-2 -2 -10.5 -3.5t-19 -3t-21.5 -2.5t-18 -1q-14 0 -29 2.5t-29 2.5q-5 0 -10.5 -1t-10.5 -1q-9 0 -18.5 2.5t-9.5 13.5q0 8 4.5 10.5t6.5 13.5q7 1 11 7t7.5 12.5t7 11.5t9.5 5q10 0 22 -1t18 -1q5 0 16 1.5t15 1.5
q14 0 27.5 -1t42.5 -1q17 0 27.5 1t13.5 1q11 0 15 -11.5t4 -24.5z" />
    <glyph glyph-name="period" unicode="." horiz-adv-x="232" 
d="M88 108q4 0 7 -0.5t6 -3.5q22 0 40 -13.5t18 -33.5q0 -3 -5.5 -9.5t-12 -13t-13 -11.5t-8.5 -5q-7 0 -21.5 -9t-31.5 -9q-21 11 -30.5 20.5t-9.5 14.5q0 4 2.5 11.5t6.5 14t8.5 12t9.5 6.5q8 11 18.5 20t15.5 9z" />
    <glyph glyph-name="slash" unicode="/" horiz-adv-x="426" 
d="M71 9q0 -3 -6 -9t-15 -11t-18.5 -9t-16.5 -4q-8 0 -11 15.5t-3 28.5q0 10 5 26.5t11.5 33t13.5 29t11 14.5q8 24 25.5 49.5t40.5 70.5q3 3 10.5 18t18 34.5t22 39.5t22.5 32q3 6 11 21.5t18 32.5t18.5 32t12.5 20q9 12 18 34.5t18 46t16 43t11 24.5q8 11 13.5 32t12.5 29
q4 2 15 5t24 6t25 5t17 2q14 0 14 -7q-4 -11 -8 -28t-8.5 -34.5t-10.5 -33.5t-15 -25q-2 -12 -9.5 -24.5t-13.5 -19.5q-8 -12 -14.5 -25t-16 -31t-25.5 -44.5t-42 -65.5q-8 -11 -19.5 -31.5l-23 -41t-22 -36.5t-14.5 -19q-2 -1 -7.5 -10.5t-14 -24t-20 -32t-23.5 -34.5
q-3 -11 -11 -26.5t-16.5 -32t-15.5 -31.5t-7 -24q3 -3 3 -10z" />
    <glyph glyph-name="zero" unicode="0" horiz-adv-x="464" 
d="M421 420q0 -21 1.5 -28t1.5 -14q-3 -4 -5 -18t-5.5 -35.5t-9.5 -48.5t-17 -57q0 -11 -6 -19.5t-6 -22.5q-5 -7 -9.5 -18.5t-10 -24.5t-12 -26t-14.5 -22q-2 -10 -12 -24.5t-23.5 -30t-28.5 -29t-25 -21.5q-6 -1 -9.5 -3.5t-9 -5.5t-13.5 -5.5t-22 -2.5q-18 0 -29 1t-21 4
t-19.5 9t-24.5 16q-6 7 -14.5 13.5t-17 17t-16 27.5t-10.5 45q-2 10 -6.5 21.5t-4.5 36.5q0 10 0.5 20.5t1.5 18.5l-5 12q1 13 2 28.5t1.5 30t1.5 26.5t4 20q0 37 10.5 72.5t12.5 64.5q6 10 8.5 18.5t4.5 20.5t7.5 30t17.5 47q0 20 11 38.5t18 36.5q0 3 3.5 8.5t8 11t9.5 9
t8 3.5q16 0 19.5 -6.5t3.5 -16.5q0 -8 -3 -13.5t-3 -9.5q6 0 16.5 10.5t24 23.5t29 23.5t30.5 10.5q14 7 28 7q8 0 15.5 -1t16.5 -6t22 -15.5t33 -29.5q6 -12 14 -23t15.5 -28.5t12 -44.5t2.5 -71q0 -3 -0.5 -6.5t-1 -9.5t-1 -16.5t-0.5 -28.5zM228 574q-4 0 -15.5 -4.5
t-25 -13.5t-26.5 -23t-20 -34q0 -12 1.5 -16t1.5 -7q-8 -14 -12.5 -36t-7 -45t-4 -42t-2.5 -25q0 -32 1 -56.5t2.5 -45t3 -38.5t1.5 -35q6 -11 10 -26.5t10 -30.5t15 -25.5t24 -10.5q19 0 31.5 7.5t21.5 18t16 21t16 16.5q20 35 30.5 57t16.5 37.5t10.5 27t12.5 26.5
q2 17 10.5 48t8.5 65q0 8 -1.5 13.5t-1.5 13.5t1 12l2 6q-3 2 -5 10.5t-3.5 19t-3 19.5t-4.5 13q-8 10 -12.5 24t-14.5 27t-30 22.5t-58 9.5z" />
    <glyph glyph-name="one" unicode="1" horiz-adv-x="370" 
d="M103 -33q0 8 4.5 21t10.5 29t12 34.5t9 37.5q7 12 9.5 20.5t4 16.5t2.5 18t6 24q2 5 5 7t3 10q4 28 10.5 52.5t13 50t13 54.5t11.5 67q1 15 3 27l4 24t3.5 25.5t1.5 32.5q0 9 -6 9q-8 0 -21.5 -14.5t-46.5 -31.5q-8 -12 -19.5 -18.5t-21.5 -20.5q-28 -21 -44.5 -36.5
t-27 -26t-17 -15.5t-13.5 -5q-10 0 -10 7q0 5 0.5 13.5t1.5 17t3.5 15t5.5 8.5q19 27 34 42.5t26.5 26t20 18.5t15.5 20q4 1 12 9.5t17.5 19t19.5 20.5t17 14q13 19 24 26.5t26 24.5q4 5 13.5 15t21 19.5t22.5 17t18 7.5q6 0 12.5 -4.5t11.5 -4.5q18 -6 24 -16t10 -13
q2 -10 2 -16q0 -18 -2.5 -31.5t-6 -26.5t-6 -27.5t-2.5 -32.5q-2 -7 -4.5 -22.5t-6 -34t-7.5 -36.5t-8 -28q-6 -18 -9 -31t-5.5 -25t-6 -24.5t-12.5 -28.5l2 -12q-5 -7 -6.5 -14.5t-3.5 -16.5q-10 -23 -15 -52t-17 -53q-8 -30 -14 -49t-11 -31t-9 -19t-9 -12
q-2 -14 -14 -29.5t-26 -28t-27 -21t-17 -8.5q-5 0 -9.5 3.5t-4.5 11.5z" />
    <glyph glyph-name="two" unicode="2" 
d="M62 467q-9 0 -16 9.5t-12.5 22.5t-8 26.5t-2.5 21.5q0 14 0.5 23t1 16.5t2.5 14t5 14.5q8 16 17.5 25t18.5 13.5t16.5 7.5t11.5 8q15 3 32 8t46 5q10 0 19 -3q10 3 20 3q18 0 39.5 -8.5t50.5 -8.5q10 -8 32 -18t42 -34q4 -11 7.5 -19t6.5 -15.5t5 -17t2 -24.5
q0 -41 -11 -72.5t-25.5 -56.5t-28.5 -44t-19 -33q-20 -18 -31.5 -40t-30.5 -42q-12 -23 -23.5 -39t-21 -27t-17 -20t-12.5 -18q-10 -19 -22 -32.5t-12 -32.5q0 -4 9.5 -6.5t21.5 -4.5t23.5 -3t16.5 -1t9.5 0.5t10.5 2.5q3 -2 8.5 -3.5t11.5 -1.5q11 0 21.5 2t17.5 4
q6 -2 14 -2.5t16 -0.5q15 4 25.5 4.5t33.5 0.5q2 0 9 2.5t15 2.5q5 0 9.5 -0.5t11.5 -5.5q0 -15 -5.5 -32.5t-24.5 -19.5q-3 -6 -7.5 -10.5t-14 -8t-25.5 -6t-42 -4.5q-5 -5 -16 -8t-23.5 -5t-24.5 -3.5t-19 -4.5q-7 -1 -20 -2t-28.5 -1.5t-32 -0.5h-30.5t-25.5 4.5
t-28.5 7.5t-26 11.5t-13.5 18.5t-5 19t-0.5 13t3 12t6.5 16t7.5 15t6 11q12 12 18.5 21.5t14.5 22t22 29.5t41 44q6 12 23.5 34.5t37 46.5t36 44.5t19.5 29.5q2 6 9 16.5t15 21.5t14.5 20.5t6.5 13.5q0 1 3 6t6.5 13.5t6.5 18.5t3 21q0 19 -8.5 29.5t-20.5 17t-26 11
t-26 10.5q-2 2 -9.5 3.5t-18.5 1.5q-38 0 -62 -5.5t-40 -19.5q-1 -3 -4.5 -6.5t-7 -9.5t-7 -15.5t-4.5 -25.5q-11 -14 -14 -16.5t-5 -2.5z" />
    <glyph glyph-name="three" unicode="3" horiz-adv-x="426" 
d="M102 292q0 18 10.5 36t26.5 37.5t34.5 42t34.5 50.5q10 10 15 17.5t8 12.5t6 9.5t9 10.5q8 17 15 29t16 26q0 8 -8.5 12.5t-30.5 4.5q-23 -3 -37 -4t-23 -1.5t-14.5 -2t-11.5 -4.5q-25 -3 -41.5 -8t-28 -9.5t-19 -7.5t-13.5 -3q-11 4 -14.5 9.5t-3.5 17.5q0 14 4 23.5
t8 16.5q6 31 18.5 45.5t30 21t39.5 9t46 10.5q14 0 24.5 2.5t16.5 4.5q42 0 66.5 -2t37.5 -4.5t17.5 -5t7.5 -2.5q4 0 11 -5t13.5 -13t11 -18.5t4.5 -20.5q0 -20 -7 -33t-11 -24t-18.5 -30.5t-30.5 -40t-29 -37t-14 -22.5q-9 -11 -21 -27t-23 -32.5t-18.5 -31.5t-7.5 -23
q22 -15 42 -23.5t39.5 -16t39 -17t39.5 -27.5q4 -8 8.5 -13.5t8 -13.5t5.5 -20t2 -32q0 -23 -16 -43.5t-36 -37.5t-37.5 -28.5t-20.5 -15.5q-8 -2 -14 -9.5t-19 -9.5q-11 -8 -19 -12.5t-17 -9t-21 -11.5t-30 -19q-21 -5 -33.5 -9t-19 -7t-10 -4.5t-6.5 -1.5q-7 0 -17 1
t-19 3q-2 0 -10 -2.5t-23 -2.5q-14 0 -23 7t-7 18q1 9 13 17t27.5 16t32 16.5t26.5 18.5q22 14 29 18t16 6q19 16 33 25.5t27.5 17.5t29 17.5t38.5 26.5q7 14 15.5 18.5t8.5 13.5q0 12 -13.5 18.5t-33.5 12.5t-42.5 12.5t-41.5 17.5q-36 9 -46.5 19.5t-10.5 29.5z" />
    <glyph glyph-name="four" unicode="4" horiz-adv-x="464" 
d="M412 497q0 -6 -0.5 -9.5t-4.5 -8.5q0 -14 -8 -32.5t-10 -34.5q-1 -8 -6.5 -21t-9.5 -38q-3 -4 -7.5 -20.5t-9 -35.5t-7.5 -36t-3 -22t10 -5q13 0 21.5 2.5t16.5 6t17 7t21 5.5q8 -3 9.5 -11.5t1.5 -24.5q0 -5 -8 -10.5t-13 -5.5q-9 -9 -20 -15t-24 -12t-26.5 -12.5
t-27.5 -16.5q-3 -2 -7 -20.5t-8 -40t-8 -40.5t-7 -23q0 -9 -2 -20.5t-4.5 -24t-4.5 -24.5t-2 -20q-8 -11 -14.5 -13t-13.5 -8q-3 -2 -9.5 -8.5t-13.5 -6.5q-6 0 -10.5 4.5t-4.5 16.5t2.5 35.5t5.5 46t6 39.5t5 17q0 18 2 32t2 26q0 9 -3.5 12t-20.5 3q-4 0 -8.5 -0.5
t-14.5 -1.5t-27.5 -1.5t-46.5 -0.5q-11 5 -27.5 7.5t-31.5 10.5t-26 25t-11 52q0 37 1.5 58.5t3.5 36t4 24t3 22.5q7 27 10.5 51.5t9.5 33.5q1 15 8.5 40t16 49.5t15.5 45t7 26.5q-5 3 -9 10q6 21 11.5 34.5t10 22.5t8 15.5t4.5 12.5q15 9 32 23t43 20q8 8 27 8q11 0 17 -4
t6 -15q0 -10 -2 -16.5t-5 -13t-7 -14t-7 -19.5q-4 -14 -7 -17.5t-5 -8.5q-2 -6 -8.5 -22t-14 -33.5t-13.5 -33t-7 -22.5q-3 -2 -8.5 -15t-12 -31.5t-13.5 -40t-13.5 -41t-12 -33.5t-8.5 -18q-1 -13 -2.5 -21.5t-3.5 -16.5t-3.5 -17.5t-1.5 -25.5q0 -11 6 -19t33 -18
q12 -1 21 -3t18 -4.5t20 -4t28 -1.5q7 0 14.5 0.5t14.5 1.5l7 3q1 18 4.5 33.5t6.5 31t6 31.5t4 36q6 13 8 27.5t4.5 32.5t6 40t11.5 50q5 9 11 13t17 6q3 5 7 6t9 1q12 0 17.5 -4.5t13.5 -6.5q14 -7 21.5 -12t7.5 -18z" />
    <glyph glyph-name="five" unicode="5" horiz-adv-x="407" 
d="M388 109q0 -6 -3.5 -21t-10.5 -28q-5 -2 -11 -9t-17 -16.5t-29 -19.5t-46 -17q-6 -5 -21.5 -10t-33 -9.5t-34 -7.5t-24.5 -3q-5 0 -11 -2t-23 -2q-3 3 -12 5t-19 3.5t-18.5 2.5t-11.5 2q-14 3 -25 12t-28 11q-4 8 -7.5 8.5t-3.5 12.5q0 10 5 14t16.5 6t31 3.5t49.5 6.5
q22 7 39 11.5t32 8.5t30 8.5t34 12.5q7 4 16 8t16.5 8t12.5 9.5t5 13.5q0 11 -11 23.5t-25.5 24.5t-29 22.5t-22.5 19.5q-38 29 -63.5 46t-37.5 34q-11 6 -19 13t-15 15t-13.5 16.5t-14.5 16.5q0 4 -2 7.5t-5 10t-5 19t-2 34.5q0 51 10 86t26 57q4 6 10 21.5t15.5 31.5
t23.5 28.5t35 12.5h21t19 -2q5 0 16.5 2t17.5 4l20 -3q8 2 16.5 3.5t17.5 1.5q38 0 54 -0.5t23 -2.5q13 0 27.5 1.5t22.5 1.5t15.5 -6t7.5 -17q0 -6 -7.5 -16.5t-17.5 -32.5q-10 -10 -22.5 -20.5t-26.5 -10.5q-6 -3 -17 -4.5t-23 -3t-22 -2.5t-14 -3q-24 0 -40.5 -4
t-31.5 -4q-11 -5 -20.5 -6.5t-18 -5t-16 -11t-12.5 -24.5q-11 -14 -20 -35.5t-9 -46.5q0 -24 10.5 -34.5t25.5 -23.5q6 -10 29.5 -26.5t53 -35.5t57.5 -38.5t43 -35.5q20 -9 30 -20.5t22 -23.5q9 -16 12.5 -37t3.5 -39z" />
    <glyph glyph-name="six" unicode="6" horiz-adv-x="407" 
d="M418 730q0 -9 -9 -16.5t-20 -11.5q-2 -5 -15.5 -19.5t-29.5 -31t-31 -31.5t-19 -22q-13 -22 -25 -35.5t-24.5 -26.5t-26.5 -30t-31 -47q-4 -2 -11.5 -12.5t-14.5 -22.5t-12.5 -22t-5.5 -11q0 -2 4 -3t8 -1q10 0 17 -5t14 -12.5t15.5 -15t23.5 -11.5q5 -2 17.5 -11.5
t26 -22t24 -24.5t11.5 -17q9 -6 18 -18t16.5 -24.5t12.5 -22.5t7 -12q10 -12 18.5 -42t8.5 -59q0 -14 -1.5 -24t-4 -17t-5 -13t-4.5 -13q-3 -2 -7 -9.5t-14 -17t-28.5 -18.5t-50.5 -14h-34t-21.5 1t-14.5 3t-13 6q-12 6 -24.5 10t-27 12.5t-32.5 25t-40 48.5
q-14 13 -18.5 24.5t-7.5 22.5q-11 7 -17.5 28t-10 45t-5 47t-1.5 35q0 34 9 64.5t17 57.5q6 13 15 31.5t19 36t20.5 31.5t19.5 19q3 6 18.5 26.5t35 42.5t38 40t25.5 20q11 15 33 30t41 35q32 23 50.5 32.5t35.5 9.5q3 0 9.5 -1.5t12.5 -4t11 -6t5 -6.5zM135 372q-3 0 -6 -4
t-5.5 -9.5t-5.5 -11.5t-7 -10q-2 -14 -7.5 -25t-11 -24.5t-9.5 -32t-4 -48.5q0 -24 2.5 -38t6 -21.5t7 -11t5.5 -7.5q6 -15 22 -28.5t36 -24t41 -16.5t37 -6q23 0 38 7t15 24q0 19 -3 33t-8 25.5t-11 23.5t-12 28q-8 11 -13.5 20t-10 18t-9.5 18t-13 20q-5 2 -12.5 11.5
t-15 20t-14.5 20.5t-11 13q-8 7 -10.5 13.5t-3 11.5t-2 8t-5.5 3z" />
    <glyph glyph-name="seven" unicode="7" horiz-adv-x="426" 
d="M310 489q0 13 -7 21.5t-17.5 14t-22.5 7.5t-22 4q-12 6 -23.5 9t-25 5.5t-31 5.5t-40.5 10q-5 0 -8.5 -1t-7.5 -1q-6 2 -17 3.5t-22.5 4t-19.5 7t-8 13.5q0 6 -4 14t-8.5 18.5t-8.5 24t-4 30.5q0 9 3 15t11 6q17 0 41 -4t47 -12q6 0 14.5 -2t17.5 -5t15.5 -5.5t8.5 -3.5
q5 -1 17.5 -5t26.5 -11q8 -1 19.5 -6t16.5 -7q6 0 18 -5.5t26 -13.5t27 -17.5t21 -16.5q3 0 8 -5t10.5 -11t10.5 -12.5t9 -9.5q6 -15 15 -32.5t9 -46.5q0 -11 -1.5 -19.5t-3.5 -13.5q0 -31 -11.5 -69.5t-32.5 -96.5q0 -6 -2.5 -12.5t-9 -21t-16.5 -40.5t-25 -72
q-5 -3 -11 -21.5t-11.5 -41t-11 -43.5t-9.5 -28q-8 -3 -10.5 -12.5t-5 -20t-7 -20t-15.5 -12.5q-10 -8 -16.5 -17.5t-20.5 -9.5q-9 0 -14 6.5t-5 10.5q0 5 2 22t4.5 36t6 35t6.5 20q1 1 5 19.5t10 43t13 50t14 41.5q1 9 5.5 28t9.5 39.5t11 39.5t11 28q1 16 8.5 41
t15.5 50.5t15 47.5t7 33z" />
    <glyph glyph-name="eight" unicode="8" horiz-adv-x="426" 
d="M271 712q5 0 17.5 -4t27 -11t29.5 -16.5t25 -20.5q26 -26 38.5 -62t12.5 -73q0 -44 -10 -75t-23 -54t-26 -39.5t-18 -30.5q-11 -11 -21.5 -23t-15.5 -21q-32 -29 -43 -51q0 -10 10.5 -20t23 -24.5t23 -36.5t10.5 -55q0 -24 -7 -40.5t-17.5 -28.5t-22 -21.5t-19.5 -19.5
q-26 -19 -45.5 -28t-35.5 -13t-29.5 -5.5t-28.5 -4.5q-5 3 -21.5 6.5t-34.5 12t-32 23.5t-14 41q0 37 7 60t16 38t17 23.5t10 15.5q10 13 22 27.5t22.5 26.5t18 20.5t7.5 10.5q0 5 -7 11t-18 14t-24.5 19.5t-26.5 27.5q-17 11 -30 32t-13 50q0 20 5 44.5t20 39.5q2 5 8 13.5
t13 16t14.5 13t13.5 5.5q12 0 12 -9q0 -8 -2 -12.5t-4 -10.5t-4 -15t-2 -24q0 -11 2.5 -23.5t8.5 -15.5q2 -12 10.5 -29.5t24.5 -32.5q6 -7 11.5 -16t11 -17.5t11.5 -14t12 -5.5q8 0 13 7.5t14 9.5q3 13 10.5 24t16 21.5t16.5 21.5t12 24q6 8 11.5 15.5t7.5 12.5q1 4 6 13.5
t11 20t11.5 20t8.5 12.5q2 13 10 27.5t8 37.5q0 4 -1 10.5t-7 13t-19 11.5t-37 5q-38 0 -69 -10t-49 -11q-12 -4 -25 -11.5t-27 -10.5q-10 -4 -16 -9.5t-17 -5.5q-14 0 -19 5t-5 18q0 12 5 24q9 7 14.5 15.5t17 20.5t33.5 28t63 36q13 0 20 2.5t10.5 5t5.5 5t4 2.5
q3 0 9.5 -3.5t9.5 -3.5l8 4q10 4 15 4zM111 21q0 -17 12 -22t26 -5q17 0 27.5 3.5t18 7.5t13 8t12.5 6q19 15 28 31t9 38q0 16 -7.5 33.5t-18.5 28.5q-5 5 -8.5 12t-9.5 7t-17 -12.5t-23.5 -29t-24.5 -32t-20 -22.5q-7 -15 -12 -23.5t-5 -28.5z" />
    <glyph glyph-name="nine" unicode="9" horiz-adv-x="426" 
d="M-2 337q0 30 7 51.5t15.5 37t16 26t9.5 19.5q5 3 14 20.5t26 33.5q4 14 15.5 25.5t18.5 22.5q17 20 28.5 31t19 17t11 9t5.5 8t15.5 13.5t25.5 21.5q13 6 26.5 18t26.5 17q10 4 18.5 10t19.5 6q5 0 11.5 -2.5t11.5 -2.5q34 -15 46.5 -25.5t12.5 -33.5q0 -5 -6 -8
t-14.5 -6t-19 -6.5t-19.5 -9.5q-14 -15 -27 -21.5t-27 -17.5q-25 -25 -40 -35.5t-23 -26.5q-11 -5 -18.5 -15t-19.5 -16q-6 -11 -12.5 -17t-14 -14t-18 -19.5t-25.5 -32.5q-7 -15 -19.5 -33t-12.5 -35q0 -3 3.5 -5t8.5 -2q8 0 15 7t15 7q47 31 73.5 50t43.5 37
q13 7 27.5 20.5t20.5 23.5q9 4 21 17t24.5 27t25 25.5t21.5 11.5q22 0 30 -7.5t8 -23.5q0 -12 -4 -29t-6 -37q-1 -14 -8.5 -34.5t-12.5 -58.5q-8 -20 -12.5 -38t-8.5 -35t-9.5 -34t-14.5 -35q-9 -42 -17 -65t-14 -35.5t-9.5 -21t-3.5 -22.5q-6 -10 -12.5 -26t-12.5 -32
t-12.5 -29.5t-12.5 -17.5q-8 -23 -13 -35.5t-12 -19t-18 -9t-29 -5.5q-13 0 -13 7q0 14 6 24.5t18 26.5v13q4 11 8 23.5t8 28.5q3 17 7 29.5t8 23.5l8 22t6 25q3 20 8.5 35.5t7.5 41.5q8 22 12.5 52t13.5 53q0 23 7 48.5t7 42.5q-4 0 -10 -7t-9 -12q-15 -10 -37.5 -30
t-49 -39.5t-56 -34.5t-58.5 -15q-28 0 -49.5 17.5t-21.5 45.5z" />
    <glyph glyph-name="colon" unicode=":" horiz-adv-x="232" 
d="M134 388q4 0 7 -0.5t6 -3.5q22 0 40 -13.5t18 -33.5q0 -3 -5.5 -9.5t-12 -13t-13 -11.5t-8.5 -5q-7 0 -21.5 -9t-31.5 -9q-21 11 -30.5 20.5t-9.5 14.5q0 4 2.5 11.5t6.5 14t8.5 12t9.5 6.5q8 11 18.5 20t15.5 9zM88 108q4 0 7 -0.5t6 -3.5q22 0 40 -13.5t18 -33.5
q0 -3 -5.5 -9.5t-12 -13t-13 -11.5t-8.5 -5q-7 0 -21.5 -9t-31.5 -9q-21 11 -30.5 20.5t-9.5 14.5q0 4 2.5 11.5t6.5 14t8.5 12t9.5 6.5q8 11 18.5 20t15.5 9z" />
    <glyph glyph-name="semicolon" unicode=";" horiz-adv-x="232" 
d="M27 -102q0 11 5.5 28.5t11.5 37.5t11.5 41t5.5 40q0 15 3 20t3 10t-1 9t-1 12q0 5 2.5 10t2.5 15q0 4 7 8t16 8t17 6.5t9 2.5q4 0 15.5 -4.5t14.5 -9.5l7 -3.5t3 -6.5q0 -2 -3.5 -13t-8.5 -24t-10 -25t-8 -15q-8 -26 -13 -37.5t-8 -11.5q-1 -7 -4.5 -14t-8 -15.5
t-8.5 -18t-5 -21.5q0 -4 -5 -10t-12 -11.5t-14.5 -9.5t-12.5 -4q-11 0 -11 6zM134 388q4 0 7 -0.5t6 -3.5q22 0 40 -13.5t18 -33.5q0 -3 -5.5 -9.5t-12 -13t-13 -11.5t-8.5 -5q-7 0 -21.5 -9t-31.5 -9q-21 11 -30.5 20.5t-9.5 14.5q0 4 2.5 11.5t6.5 14t8.5 12t9.5 6.5
q8 11 18.5 20t15.5 9z" />
    <glyph glyph-name="less" unicode="&#x3c;" horiz-adv-x="600" 
d="M44 203v79l512 199v-75l-432 -164l432 -162v-75z" />
    <glyph glyph-name="equal" unicode="=" horiz-adv-x="315" 
d="M279 296q0 -22 -13 -31t-32 -9q-14 0 -26 6q-2 -2 -10.5 -3.5t-19 -3t-21.5 -2.5t-18 -1q-14 0 -29 2.5t-29 2.5q-5 0 -10.5 -1t-10.5 -1q-9 0 -18.5 2.5t-9.5 13.5q0 8 4.5 10.5t6.5 13.5q7 1 11 7t7.5 12.5t7 11.5t9.5 5q10 0 22 -1t18 -1q5 0 16 1.5t15 1.5
q14 0 27.5 -1t42.5 -1q17 0 27.5 1t13.5 1q11 0 15 -11.5t4 -24.5zM279 156q0 -22 -13 -31t-32 -9q-14 0 -26 6q-2 -2 -10.5 -3.5t-19 -3t-21.5 -2.5t-18 -1q-14 0 -29 2.5t-29 2.5q-5 0 -10.5 -1t-10.5 -1q-9 0 -18.5 2.5t-9.5 13.5q0 8 4.5 10.5t6.5 13.5q7 1 11 7
t7.5 12.5t7 11.5t9.5 5q10 0 22 -1t18 -1q5 0 16 1.5t15 1.5q14 0 27.5 -1t42.5 -1q17 0 27.5 1t13.5 1q11 0 15 -11.5t4 -24.5z" />
    <glyph glyph-name="greater" unicode="&#x3e;" horiz-adv-x="600" 
d="M44 5v75l432 161l-432 165v75l512 -199v-79z" />
    <glyph glyph-name="question" unicode="?" 
d="M270 431q0 20 -10.5 39.5t-27.5 32.5q-9 10 -20.5 19t-22 16t-18.5 11l-8 4q-3 0 -5 -4q3 -8 4 -17t1 -17q0 -3 -3.5 -6.5t-8.5 -3.5t-12.5 5t-14.5 12.5t-13 16t-9 14.5t-7.5 10t-8.5 8.5t-7 10t-3 15.5q0 8 2 13.5t6 12.5q1 21 8 37t33 16q6 0 18.5 -6t51.5 -15
q14 -3 24.5 -9.5t22 -13.5t25 -15t32.5 -14q12 -14 25 -23.5t24.5 -22.5t18.5 -34t7 -58q0 -32 -4 -50.5t-9.5 -30.5t-10.5 -21t-7 -22q-10 -14 -18 -30t-16 -32.5t-16 -31.5t-17 -25q-5 -17 -13 -34t-11 -26q-4 -14 -21 -16t-36 -9q-6 0 -10.5 4t-4.5 10q0 10 6.5 25.5
t16.5 36.5t21.5 48.5t20.5 61.5q7 9 16 37t9 71zM214 61q0 -13 -1.5 -20.5t-12.5 -18.5q-2 -8 -8.5 -16t-16 -14.5t-19.5 -10.5t-17 -4q-12 0 -23 -6.5t-21 -6.5q-8 0 -12 3t-6 8t-3 11t-4 11q4 12 10 19.5t11 12.5t9 8.5t5 7.5q7 3 15.5 9.5t16.5 13t16.5 11.5t17.5 5
q13 0 28 -3.5t15 -19.5z" />
    <glyph glyph-name="at" unicode="@" horiz-adv-x="929" 
d="M540 337q-8 2 -17 2.5t-15 0.5q-36 0 -64 -19.5t-46.5 -49.5t-28.5 -65.5t-10 -68.5q0 -27 13.5 -47t41.5 -20q21 0 36.5 12t26.5 30t18 38.5t11 37.5zM862 280q0 -58 -15.5 -109t-47 -89t-79 -60t-112.5 -22q-51 0 -76 14t-35 46q-24 -31 -50.5 -45.5t-74.5 -14.5
q-51 0 -83 35.5t-32 95.5q0 47 16 97t49.5 91.5t84.5 68.5t121 27q16 0 33 -2.5t33.5 -5.5t30.5 -7t23 -7l-57 -253q-1 -6 -2.5 -14t-1.5 -17q0 -15 11 -27t33 -12q33 0 57 17.5t40 46.5t23.5 67t7.5 79q0 63 -20.5 111t-57.5 80t-87 48t-110 16q-72 0 -130 -26t-99.5 -72
t-63.5 -107.5t-22 -133.5q0 -70 18.5 -127t56 -97.5t93.5 -62.5t132 -22q65 0 127 16t111 37l23 -86q-29 -12 -58.5 -21.5t-62.5 -16.5t-71.5 -10.5t-85.5 -3.5q-93 0 -165 28t-121 79t-74.5 124t-25.5 163q0 88 31.5 164.5t88.5 133t137 89t178 32.5q79 0 145 -24t114 -68
t75 -105.5t27 -137.5z" />
    <glyph glyph-name="A" unicode="A" horiz-adv-x="481" 
d="M2 210q5 18 9 29t10.5 18t16.5 10.5t26 6.5q3 1 5.5 8.5t6 18.5t9 24t13.5 25q1 6 4 18.5t7.5 27.5t10.5 30.5t12 28.5q0 19 11 41t14 41l10 17q2 11 7 19t10 14t9 10.5t4 7.5q0 8 -6 9.5t-6 8.5q0 23 10 30t26 9q13 2 20.5 11.5t12.5 26.5q18 9 29 17t17.5 13.5t11 8.5
t10.5 3q8 0 20 -4t12 -15q0 -6 -3.5 -15.5t-7.5 -20t-7.5 -20t-3.5 -14.5t4 -8.5t9 -5.5l10 -4t7 -5q2 -2 8 -3.5t13 -4.5t13.5 -8.5t9.5 -14.5q4 -12 5.5 -19.5t4.5 -12.5q0 -27 6 -67q-2 -9 -2.5 -18.5t-0.5 -17.5q0 -5 2.5 -11t5.5 -11q0 -26 -1 -51.5t-1 -58.5
q0 -8 2.5 -10t6 -3t6 -3t2.5 -10q0 -14 -4.5 -20t-16.5 -14q0 -20 -1.5 -36.5t-1.5 -27.5q-2 -2 -3 -15.5t-2 -30t-2.5 -30t-4.5 -13.5v-14t2 -11q-9 -26 -10 -46.5t-10 -34.5v-14q0 -5 -5 -11t-12 -11.5t-14 -9t-10 -3.5q-10 0 -10 22q0 9 2 31t2 43q0 13 -0.5 21.5
t-1.5 14.5q3 4 3.5 20.5t0.5 24.5q-2 0 -2.5 3t-1 14.5t-0.5 33v59.5q-8 0 -15 -2.5t-14.5 -5t-18 -5t-25.5 -2.5q-2 0 -8 -2t-13.5 -5t-16 -5.5t-15.5 -2.5q-17 -5 -29 -11t-22.5 -11.5t-22 -9t-27.5 -3.5q-2 0 -4 -7t-4.5 -17.5t-6.5 -21.5t-10 -19q-8 -11 -11 -23
t-5 -24.5t-6 -26t-13 -26.5q-1 -9 -4 -22t-7 -25.5t-8.5 -23t-8.5 -14.5q-9 -2 -15.5 -5t-10.5 -3q-11 0 -15 4.5t-4 22.5q0 17 4.5 32t10.5 32q-1 10 3 22t9 20q0 12 3.5 26t8 27.5t8 25t3.5 17.5q-17 0 -23 2.5t-6 16.5q0 7 2.5 11t2.5 8zM200 413q0 -10 -19 -47
q-3 -16 -8 -25.5t-10 -17t-9 -15.5t-4 -20q5 -2 15 -2h15q4 0 9 1.5t15 3t28 3t50 1.5q11 7 27.5 7.5t30.5 4.5q0 14 1.5 23.5t1.5 14.5t-2 11t-2 13q0 9 0.5 16.5t2.5 12.5q-6 1 -6 48v15t2 14q-5 3 -9 11.5t-10 18.5t-16.5 19.5t-29.5 14.5q-9 0 -14 -9t-16 -21
q-2 -14 -9 -28.5t-14.5 -27.5t-13.5 -23.5t-6 -16.5z" />
    <glyph glyph-name="B" unicode="B" horiz-adv-x="500" 
d="M50 659q17 7 28 11.5t19 11.5q6 0 11.5 0.5t12.5 2t17 4.5t25 8q17 0 29 2t25.5 3.5t32 3t49.5 1.5q7 3 11.5 4t15.5 1q13 0 21.5 -1.5t14.5 -3l12 -3t15 -1.5q21 0 35 -5.5t34 -16.5q7 0 18 -7.5t32 -36.5q0 -7 -0.5 -11t-0.5 -8t1 -8.5t1 -12.5q-2 -6 -2 -14t-2 -12
q-15 -34 -32.5 -56.5t-33.5 -29.5l-27 -24q-30 -15 -52 -33t-51 -31q-5 -2 -9.5 -5.5t-12 -9t-21 -13.5t-35.5 -19q-17 -14 -26 -18t-9 -12q0 -13 21 -25.5t66 -23.5q19 -5 32 -12.5t35 -13.5q12 -9 28.5 -15.5t36.5 -20.5q19 -8 37 -27t18 -42q0 -4 -0.5 -7.5t-0.5 -6.5
q0 -2 0.5 -5t0.5 -7q0 -17 -11 -28l-27 -27q-23 -13 -44.5 -22t-41.5 -19q-11 -2 -34.5 -9.5t-50.5 -15.5t-53 -15t-42 -7q-8 0 -18 -2t-15 -5q-2 -6 -4 -11.5t-2 -16.5q0 -5 -3 -7t-12 -2t-13 -2.5t-8 -2.5q-6 0 -13 10l-5 20q-3 1 -6.5 1.5t-8.5 0.5q-4 0 -9.5 -2.5
t-11.5 -2.5q-14 8 -23 11.5t-9 14.5q0 13 10 14q11 14 24 23.5t33 11.5v21.5t0.5 28t2 28t3.5 22.5q-2 3 -2.5 8t-0.5 9q0 16 2.5 31t5.5 32q0 22 -2 34.5t-7 20t-13.5 11t-22.5 8.5q-5 11 -6 15t-1 8q0 7 3 18q13 8 26 15.5t27 12.5q5 35 8 56.5t4.5 35.5t2 23.5t0.5 20.5
q0 27 9 52t25 35l4 8q1 2 4.5 6t7.5 8.5t7.5 8t3.5 5.5q0 6 -11 6q-13 0 -31 -3t-35 -6t-32 -6t-22 -3t-7 8q0 17 3 24.5t17 14.5zM403 558q0 10 -6 19.5t-21 17.5t-41.5 14.5t-68.5 9.5q-13 0 -21 -1t-13 -5.5t-7.5 -14t-4.5 -26.5q-3 -6 -7 -22.5t-4 -27.5q0 -5 2 -8.5
t2 -12.5q-11 -7 -14 -34.5t-8 -58.5q0 -11 9 -11q6 0 11.5 3.5t20.5 14t44.5 29.5t83.5 50q5 9 12.5 17.5t14 16t11.5 15t5 15.5zM365 141q0 12 -14 23t-34.5 21t-43 17t-39.5 11q-6 1 -14.5 5t-16.5 7.5t-15 6.5t-11 3q-11 0 -14 -26.5t-9 -71.5q-2 -30 -4.5 -47t-4.5 -26
t-3 -12t-1 -4q0 -4 8 -6q16 7 29 9.5t23 4t17 3t11 7.5q16 4 29 10.5t24 13t21 11t21 5.5q4 0 10.5 4.5t13.5 10.5t12 11.5t5 8.5z" />
    <glyph glyph-name="C" unicode="C" horiz-adv-x="500" 
d="M440 73q0 -14 -6 -23.5t-15 -17.5t-19 -15.5t-18 -16.5q-20 -8 -36 -16.5t-32 -15.5t-34.5 -11.5t-43.5 -4.5t-41 4t-28 9t-21.5 9t-22.5 5q-45 24 -67.5 57.5t-30.5 78.5q-5 9 -8 25.5t-3 24.5v8v12.5t0.5 12t1.5 7.5q-5 6 -5.5 11t-0.5 14q1 6 5 29t9 50t11 51.5
t11 32.5q3 13 7 22t9 16.5t9 16t7 19.5q26 33 42 60.5t39 41.5q1 9 13 19.5t27 17.5q15 17 27 25.5t20.5 13.5t14.5 7.5t11 7.5q3 3 14.5 8t26 9.5t29 7.5t24.5 3q32 0 43 -1.5t22 -7.5q17 -2 33.5 -17.5t16.5 -35.5q0 -8 1.5 -14t3 -12.5t3 -14t1.5 -19.5q0 -6 -1 -14
t-1 -18v-12t2 -14q-3 -8 -4 -21.5t-6 -27.5q-3 -13 -5 -24t-2 -16q0 -4 -1.5 -8t-4.5 -10.5t-6 -18t-6 -29.5q-3 -1 -6.5 -9t-7 -17t-6 -17.5t-3.5 -10.5q-3 -12 -11 -19t-17.5 -10.5t-19.5 -4.5t-17 -1q-10 0 -13 3.5t-3 8.5v16.5t1 30t3 32.5t6 25q1 14 4 19.5t3 13.5
q0 20 8 36.5t10 34.5q6 14 12.5 21t11 13t7.5 13.5t3 23.5q0 10 -4 15.5t-10 9.5t-12.5 6.5t-11.5 7.5q-7 5 -16 7t-17 2q-22 0 -45 -6t-47 -17q-9 -10 -16 -15.5t-13 -10t-11.5 -9.5t-10.5 -14t-10.5 -16t-11 -14.5t-11.5 -17.5t-13 -25q-15 -33 -21.5 -52.5t-9.5 -32
t-4 -21.5t-5 -22q-5 -15 -6 -25.5t-1.5 -20t-1.5 -18t-5 -18.5q5 -8 6 -17t1 -18q0 -8 -1.5 -16t-1.5 -14q0 -9 4 -17t10 -18.5t13 -25.5t13 -37q9 -5 19 -16.5t23.5 -22.5t31.5 -19.5t42 -8.5q21 0 35 4.5t34 6.5q14 11 31.5 16t28.5 17q17 3 24 7q2 9 5 10.5t6 5.5
q6 -1 8 -5t2 -7z" />
    <glyph glyph-name="D" unicode="D" horiz-adv-x="519" 
d="M74 357q0 5 1.5 11t3.5 17t5 29t5 47q1 12 2.5 20t3.5 14t3.5 12l3.5 14q12 10 18 17.5t11 14t11 11t18 8.5l-1 8q-25 11 -49 14q-13 9 -25.5 15t-22 10.5t-15 9t-5.5 12.5q0 12 -0.5 19t-1.5 12t-1.5 9t-0.5 9l13 8q5 0 8.5 -1t6.5 -1q13 0 18 2t9 2q5 -2 14 -3t18 -3
t17 -5t13 -8q4 1 7.5 1.5t8.5 0.5q4 0 8 -2.5t11.5 -6t19 -6t30.5 -2.5q7 -6 19.5 -11.5t27.5 -13t32.5 -18t34.5 -24.5q11 -5 19.5 -13t17.5 -13q14 -7 25 -17.5t20.5 -23t20 -26.5t22.5 -27q1 -9 4.5 -16.5t7 -18.5t6 -27t2.5 -41q0 -23 -3 -45t-17 -41q-1 -6 -4.5 -16.5
t-8.5 -22t-11 -21t-11 -12.5q-2 -13 -7 -20t-11 -13.5t-12.5 -14.5t-11.5 -23q-4 -2 -13.5 -11t-19.5 -20.5t-18 -22.5t-8 -17q9 7 14.5 9t10.5 2q7 0 7 -11q0 -8 -6.5 -16.5t-15.5 -16.5t-19.5 -14.5t-17.5 -9.5q-5 -2 -16 -12t-21 -11q-12 -11 -29.5 -24t-32.5 -16
q-7 -8 -24.5 -13t-39.5 -16q-11 0 -22.5 -2.5t-34.5 -2.5q-7 7 -14.5 11.5t-7.5 15.5q0 13 12 21t20 22q7 1 11 3t7 5t6.5 7t10.5 7q19 0 32.5 5.5t25 13t23 16.5t26.5 17q14 8 22 15t8 15q19 12 27.5 21t13 16.5t8.5 13.5t13 14q1 3 7 14.5t15 25.5t18 27.5t16 21.5
q1 12 4 20t6 14.5t6 13.5t5 18q0 14 -0.5 27t-3.5 16q-5 4 -6.5 12t-4.5 18.5t-10 24t-22 30.5q-12 21 -29.5 32t-30.5 29q-26 11 -52 26t-44 26q-6 -7 -9.5 -19.5t-6 -26.5t-5.5 -28.5t-8 -24.5q-3 -22 -7 -38l-8 -32t-8 -34t-8 -45q-9 -14 -9 -38q0 -13 -5 -27t-7 -25
q-3 -30 -6 -48t-6 -32.5t-6 -28.5t-6 -35q-15 -38 -28.5 -56.5t-21.5 -18.5q-11 0 -14 4.5t-3 16.5t3.5 19t3.5 12q0 3 -1.5 6.5t-1.5 8.5q0 6 1 13l3 21t4.5 40t4.5 70q2 7 4 24.5t4 37t4.5 37t6.5 25.5q-4 9 -4 22z" />
    <glyph glyph-name="E" unicode="E" 
d="M398 99q0 -15 -10.5 -28.5t-28.5 -22.5q-5 -6 -13 -11.5t-17 -10.5t-17 -8t-12 -3q-8 -5 -18 -10t-18 -5q-26 -13 -47.5 -20t-27.5 -7q-25 -1 -42.5 -4t-22.5 -3h-12.5t-10.5 1q-8 -2 -14 -2.5t-11 -0.5q-6 0 -19 3.5t-13 11.5v10t2 10q-20 0 -25.5 6.5t-5.5 22.5
q0 4 1 11.5t2 20.5t2 32t1 47q0 20 4 36.5t4 42.5q5 21 7 47.5t9 46.5q0 11 2 40.5t15 67.5q0 14 2 26t5.5 26t8.5 32.5t11 44.5q3 12 8 18.5t11.5 13t13 14t11.5 20.5q33 21 47.5 34t25.5 18q5 8 9.5 11.5t8.5 5.5q6 2 13 5.5t17 7.5t24.5 6.5t35.5 2.5q8 2 18.5 4t23.5 2
q6 0 10 -2t7 -2q5 0 10 1t7 1q28 -2 40 -10t12 -30q0 -13 -1 -20.5t-2.5 -12.5t-2.5 -9t-1 -10q0 -17 -5.5 -21t-19.5 -4q-18 0 -23 8q-11 4 -18.5 6t-15 3t-17 1h-23.5q-5 0 -12 -2t-33 -2q-3 0 -5 -1.5t-5.5 -3t-9.5 -2.5t-17 -1q-13 0 -20 -8t-12 -18.5t-9 -21t-10 -15.5
q1 -3 2 -8t1 -9q-16 -39 -21 -69.5t-13 -44.5q-1 -11 -3 -17.5l-4 -13t-3.5 -15.5t-1.5 -24q11 0 17.5 3.5t12 9t12 11.5t18.5 12q12 1 20.5 4.5t16.5 7t16.5 6t19.5 2.5q6 0 12 -1t12 -1q4 0 21.5 2.5t28.5 2.5t16.5 -3t19.5 -3q6 -4 8.5 -11.5t7.5 -12.5q0 -32 -5 -46
t-13 -19q-11 2 -24.5 3t-30.5 5q-16 -3 -26.5 -3.5t-35.5 -0.5q-4 0 -8 -1.5t-6 -1.5q-5 0 -10 0.5t-10 0.5q-18 -8 -37.5 -11.5t-36 -8.5t-27.5 -15t-12 -31q-8 -23 -10 -46.5t-7 -31.5q0 -5 1 -10t1 -9q-8 -20 -9.5 -40.5t-1.5 -39.5q14 0 29 -3q2 1 12 2.5t20 1.5
q7 0 14.5 -0.5t15.5 -1.5q8 2 20.5 4t20.5 2q4 2 13 4.5t19.5 4.5t20.5 4t17 3q14 5 27 11t33 10q10 11 18 12t16 6q9 -2 11.5 -7t2.5 -12z" />
    <glyph glyph-name="F" unicode="F" horiz-adv-x="407" 
d="M397 364q0 -5 -0.5 -17t-2 -25t-5 -23t-10.5 -10q-27 0 -45 7.5t-34 7.5q-9 0 -15.5 -3t-26.5 -3q-10 0 -23.5 -1.5t-27 -4t-24 -5t-13.5 -4.5q-17 0 -29 -5t-15 -13q-5 -16 -7 -34t-3 -43q-5 -17 -6.5 -38t-1.5 -44q-2 -5 -3.5 -17t-2.5 -25t-2 -23t-3 -11q0 -26 1 -48
t1 -44q-2 -2 -6 -6.5t-7.5 -9t-7 -8.5t-4.5 -4q-13 2 -21 5t-12.5 12t-6.5 26.5t-3 49.5q0 12 0.5 20t3.5 16q-3 4 -3.5 9.5t-0.5 10.5q0 20 3 33t3 18q0 3 -1 7.5t-1 12.5q0 14 2 37t6 34q-4 9 -4 22q0 9 1.5 17.5t1.5 16.5q0 4 -5 4q-4 0 -12 -3t-18 -3q-9 0 -9 7
q0 13 8.5 23t18.5 19t18.5 18.5t8.5 22.5q0 18 2.5 35t6 33.5t6 34.5t2.5 38q0 7 2 18t4.5 23t6 24.5t6.5 21.5q1 4 7.5 14t15 22t17.5 22.5t16 15.5q5 8 14 17.5t16 14.5q20 8 32.5 17t33.5 9q6 0 11.5 -1t10.5 -1q1 0 4.5 3.5t15.5 3.5q11 0 17.5 -0.5t15.5 -0.5
q8 0 17.5 1.5t17.5 1.5q25 0 36 -7t11 -36q0 -32 -3.5 -48t-20.5 -30q-12 4 -20 6.5t-15.5 4t-15.5 2t-20 0.5t-27 -0.5t-32 -4.5q-14 0 -28.5 -9.5t-20.5 -23.5q-1 -10 -5 -17t-10 -14q-2 -7 -3.5 -15.5t-3.5 -21t-6.5 -29.5t-12.5 -40q0 -11 -2 -18.5l-4 -15t-4 -17
t-2 -24.5q9 0 16 3t16.5 6.5t22.5 7t33 4.5q26 11 48.5 13t48.5 4q32 0 51.5 -8t19.5 -20z" />
    <glyph glyph-name="G" unicode="G" horiz-adv-x="537" 
d="M459 440q-7 0 -17 5q-8 21 -9 38t-8 37q0 18 -10.5 31t-23.5 32q-5 12 -12 17.5t-15.5 8t-16.5 3t-14 2.5q-2 0 -10 -3t-17 -3q-7 -6 -16.5 -11t-20 -12.5t-22 -18t-23.5 -27.5q-13 -12 -20.5 -24t-13 -23t-9.5 -19.5t-10 -12.5q-2 -15 -6 -24t-15 -25q0 -13 -4 -26
t-8.5 -24.5t-8 -20t-3.5 -12.5q0 -8 -2 -21.5t-5 -28.5t-5 -29.5t-2 -23.5q0 -5 1 -9.5t1 -9.5q0 -4 -1.5 -8t-1.5 -9q3 -12 5.5 -35t20.5 -63q3 0 8 -5t11.5 -10t14.5 -9.5t18 -4.5q18 0 33 5.5t27 13t23 15.5t22 14q6 12 19.5 23.5t17.5 20.5q12 6 18.5 15t14 20t18 25.5
t30.5 32.5q3 0 11 3.5t11 3.5q4 -3 12.5 -4t17 -3t14.5 -7.5t6 -16.5q0 -15 -0.5 -21.5t-3.5 -14.5q0 -14 -1.5 -22.5t-3 -14t-3 -10.5t-1.5 -12q0 -6 -2.5 -18.5t-6.5 -25.5t-7.5 -24t-4.5 -14q-3 -15 -6.5 -31.5t-9.5 -28.5q0 -13 -3 -23t-7 -19.5t-7 -21.5t-4 -28
q-4 -11 -6.5 -18.5t-7 -12.5t-11 -8.5t-18.5 -7.5q-1 -14 -9.5 -23.5t-22.5 -9.5q-5 8 -5 19q0 8 4 16q0 26 2 40t4 21q0 15 1 31.5t7 30.5q0 12 1 21t2.5 18l3.5 21t3 32q-2 11 -2.5 17.5t-0.5 14.5q-10 0 -30.5 -17t-55.5 -50q-5 -2 -11.5 -6.5t-13.5 -9t-14 -8.5t-13 -4
q-11 -8 -29 -10.5t-30 -8.5q-10 3 -19 3.5t-15 0.5q-15 2 -25 6.5t-17.5 9.5t-14.5 9.5t-16 7.5q-2 5 -5.5 11t-7.5 8q-5 3 -10 16.5t-8.5 30t-6 31t-2.5 20.5t1 12t1 10q0 5 -1 10t-1 17q0 29 3.5 52.5t8 42t8 31.5t3.5 21t4 19.5t9.5 23.5t10 22t5.5 15q1 8 4 14t7.5 13
t10 17.5t11.5 27.5q7 5 13 19t26 33q6 16 18 28t24 22.5t22 19.5t13 18q10 3 17.5 8.5t14 11t12 10t11.5 4.5q3 0 11.5 4.5t20 10.5t25.5 10.5t29 4.5q3 0 7.5 -3t12.5 -3q5 0 10.5 1.5t9.5 1.5q7 -4 17 -7t19.5 -7t17.5 -8.5t11 -10.5q5 -9 12 -16.5t14 -15.5t12.5 -19.5
t7.5 -27.5q5 -3 6.5 -6t2.5 -8.5t3 -14t9 -21.5q-3 -8 -3 -13q0 -3 0.5 -6t1.5 -7q-6 -5 -9.5 -9t-5.5 -12q-5 -2 -10 -7.5t-11.5 -12t-14.5 -11.5t-17 -5z" />
    <glyph glyph-name="H" unicode="H" horiz-adv-x="500" 
d="M515 661q0 -36 -2 -58.5t-4.5 -35.5t-4.5 -18.5t-2 -6.5q0 -3 1 -8t1 -10q0 -2 -3 -17t-6.5 -33t-6.5 -34.5t-3 -20.5q-4 -34 -11.5 -48t-7.5 -23q0 -19 -3.5 -37.5t-7.5 -34t-7.5 -26t-3.5 -12.5q-2 -20 -4 -29.5t-11 -20.5q-3 -34 -7.5 -54.5t-8.5 -32.5t-7 -18.5
t-3 -13.5q0 -14 -2.5 -23.5t-6 -17.5t-6 -16t-2.5 -18q-8 -19 -10 -30t-3 -18.5t-2.5 -14.5t-7.5 -18q-5 -3 -10 -7l-10 -8q-15 0 -26 8q-5 11 -4.5 21.5t-3.5 21.5q0 1 1 6t2.5 10t3 9.5t3.5 5.5v19t1 24.5t3.5 25t6.5 20.5q0 11 2 29t5 36t6.5 33t6.5 21q0 12 2.5 23
t5.5 24t5.5 28.5t2.5 35.5q-14 0 -22.5 -3t-16.5 -3t-18 -3.5t-21 -3.5q-23 0 -42.5 -5t-36 -10.5t-30.5 -10.5t-26 -5q-8 0 -14 -10.5t-20 -18.5q-2 -1 -3.5 -10.5t-2.5 -21t-1 -22.5v-14q0 -4 -1 -9.5t-1 -18.5q0 -32 5 -44.5t13 -12.5q5 0 12 10.5t15 10.5q3 0 6.5 -2
t5.5 -4q-7 -15 -13 -25.5t-11.5 -18.5t-10 -16.5t-8.5 -19.5q-33 -32 -54 -32q-16 0 -20.5 4.5t-5.5 13.5q-1 15 -2.5 25t-3 21.5t-3 25.5t-1.5 36q-4 20 -4 42v16.5t2 19.5q-2 7 -7 17.5l-10 21t-9 20t-4 14.5q0 12 6.5 21.5t14 21.5t14 28.5t6.5 40.5q0 43 8 76t8 57
q0 3 0.5 11.5t1.5 18.5t2.5 18.5t3.5 11.5q0 22 2.5 47.5t6.5 47.5q6 2 10 8t10 12t16.5 10.5t29.5 4.5q37 -11 37 -40q-4 -13 -6.5 -27.5t-5 -28t-4 -23.5t-4.5 -14q0 -24 -6.5 -42t-6.5 -43q-5 -14 -8.5 -37t-3.5 -34q0 -10 -4 -23.5t-4 -24.5q0 -5 4 -7t8 -2q10 0 15 2
t10.5 4t15 4t27.5 2q9 0 14 -1t10 -1q17 0 28 3.5t17 3.5t15 -1.5t14 -1.5q13 2 26.5 2.5t25 1.5t19 3.5t7.5 8.5t2 11.5t4 12.5t4 17.5t2 27.5q0 25 4.5 37t4.5 24q0 11 2 25.5t2 44.5q0 14 -2 18.5t-2 9.5q0 6 11.5 16t28.5 43q19 17 32 29t24 12q16 0 16 -39z" />
    <glyph glyph-name="I" unicode="I" horiz-adv-x="204" 
d="M204 672q0 -8 -3 -21.5t-6.5 -29t-6.5 -31.5t-3 -29q-3 -8 -6 -25t-6 -34.5t-6 -31t-6 -13.5q-3 -6 -3 -10v-6t1 -8q-4 -9 -7 -28.5t-6 -40.5t-5.5 -37.5t-5.5 -17.5q0 -15 -1.5 -26t-3.5 -24t-3.5 -30.5t-1.5 -45.5q-3 -8 -4.5 -19.5t-3 -23.5t-2.5 -23t-3 -17
q0 -41 6.5 -59t6.5 -26q0 -9 -3 -13.5t-8 -7.5t-11 -7t-13 -12q-12 -5 -22 -5q-8 0 -17 10.5t-9 33.5q0 22 -5 35q0 8 -0.5 16.5t-2.5 19.5q0 10 0.5 17t1.5 14.5t1.5 17t0.5 24.5q0 5 2 8t4 5q-2 4 -2.5 11.5t-0.5 18.5q0 8 2 18.5t2 20.5q0 5 -0.5 10t-0.5 7q4 13 8 41
t4 53q4 9 4 25q0 29 -3.5 38t-12.5 14q0 9 -0.5 14t-0.5 9q0 11 1.5 21.5t6.5 15.5l-5 14q2 3 5.5 15t5.5 27q7 10 10.5 23t7.5 28t9.5 31.5t16.5 33.5q6 10 21.5 17t28.5 8q12 8 20 11.5t17 3.5q8 0 12 -12t4 -16z" />
    <glyph glyph-name="J" unicode="J" horiz-adv-x="333" 
d="M-24 227q0 24 1.5 37t4 19t6 7t7.5 1h26q14 0 23 -8.5t14.5 -19t9 -20t5.5 -12.5q0 -6 3.5 -13.5t7.5 -16t7.5 -18.5t3.5 -22q0 -5 -3.5 -8.5t-7 -6t-7 -5.5t-3.5 -7q0 -3 3 -13t8.5 -21t12 -19.5t13.5 -8.5q8 0 12.5 9.5t6.5 14.5q2 9 9 19.5t8 27.5q0 4 2 14t5 21
t6.5 21t6.5 13q4 34 10 57.5t11 40.5t8.5 30.5t3.5 27.5q0 10 1.5 18t3.5 17t4 19.5t3 24.5q0 9 2.5 17t5.5 21t5 33t2 52q0 14 -8 18.5t-17 5.5t-17 2t-8 9q0 6 5 12t11.5 12t13 11t9.5 10q6 8 14.5 12t20.5 7q9 13 22 21t30 16q9 0 14.5 -8.5t8.5 -20.5t4 -23.5t1 -17.5
q0 -8 -0.5 -20t-1.5 -24t-2 -22t-2 -13q-3 -12 -6 -30.5t-6 -37.5t-7 -34t-10 -21q-2 -18 -4.5 -30t-5 -22.5t-4.5 -20.5t-2 -23q-5 -8 -7.5 -17.5t-4.5 -18.5t-4 -16.5t-4 -10.5q-8 -13 -14 -45.5t-27 -82.5q0 -4 -2.5 -15t-6 -23t-7 -23t-4.5 -14q-1 -6 -4.5 -17.5
t-8.5 -24t-10.5 -23t-9.5 -13.5q-1 -1 -6.5 -2.5t-12 -3t-12.5 -3t-7 -2.5q-6 -4 -19.5 -5.5t-22.5 -1.5q-20 0 -28.5 6t-14.5 20q-11 26 -19 43t-10 37q-9 20 -12 36t-13 40q0 18 -6.5 34.5t-6.5 34.5z" />
    <glyph glyph-name="K" unicode="K" horiz-adv-x="481" 
d="M222 314q0 -12 7.5 -22t9.5 -15q3 -9 12.5 -32t21 -47t21.5 -42.5t14 -18.5q13 -20 21.5 -31.5t15 -17.5t12.5 -7.5t14 -1.5t18 5t20.5 12t20 13.5t16.5 9.5q4 5 12 11t16 6q5 0 7 -3.5t2 -14.5q0 -14 -9 -25.5t-30 -19.5q-3 -6 -18.5 -20t-23.5 -31q-15 -9 -24.5 -14.5
t-16.5 -8.5t-14 -4t-16 -1q-23 0 -37 10t-23.5 24t-18 28t-21.5 22q-7 18 -17.5 30t-19.5 32q-5 2 -16.5 19.5t-23.5 38t-21.5 37t-10.5 16.5q-5 0 -8.5 -14.5t-5.5 -32.5t-4.5 -34.5t-6.5 -19.5q0 -16 -1.5 -35t-3 -37t-3 -31.5t-1.5 -18.5q0 -3 1 -6.5t1 -7.5
q0 -7 -9 -10.5t-14 -3.5q-4 0 -7 1.5t-8 1.5t-8.5 -1.5t-8.5 -1.5t-8.5 7.5t-3.5 33.5q1 4 2 19t2.5 34t3.5 39.5t5 37.5q0 9 1.5 22t3.5 27t3.5 26.5t1.5 20.5q0 4 5 10.5t5 10.5q-2 5 -2.5 17.5t-0.5 46.5q2 7 4.5 23.5t3.5 30.5q2 4 4 19t4.5 34.5t5 40t6.5 35.5
q0 10 1 23.5t2.5 26t3.5 22t4 11.5q15 14 28 24.5t17 11.5q13 2 17.5 9t11.5 7q2 0 6.5 -4t9 -10.5t8 -14.5t3.5 -15q0 -12 -5.5 -26.5t-5.5 -25.5q0 -6 -3.5 -19.5t-8 -29t-8.5 -29.5t-5 -20q-4 -39 -15.5 -77.5t-11.5 -81.5q9 0 29 20t41 44.5t38.5 46t21.5 23.5q5 3 8 7
t7 10.5t10 15t17 19.5q6 7 15.5 20t13.5 24q21 30 35.5 55t14.5 37q0 7 -9 13.5t-9 11.5q0 11 9 18.5t20 13t22 10t16 8.5t11.5 5.5t13.5 2t13 2t11 6.5q4 0 9.5 -6t5.5 -10q0 -16 -2 -33.5t-6.5 -32.5t-12 -27t-17.5 -18q-15 -32 -30 -53.5t-27 -34.5t-20.5 -19.5
t-9.5 -9.5q0 -5 -4 -10t-12.5 -14t-21 -23t-30.5 -37q-8 -3 -14.5 -10.5t-13.5 -16t-13 -16t-12 -10.5q-5 -3 -15.5 -13.5t-10.5 -21.5z" />
    <glyph glyph-name="L" unicode="L" horiz-adv-x="315" 
d="M101 100q0 -2 0.5 -8.5t2 -13.5t5 -12.5t9.5 -5.5q5 0 19 3.5t32 3.5q18 3 30.5 7t24 8.5t23 8t26.5 5.5q10 11 21.5 14.5t18.5 7.5q5 0 6 -4t1 -7q0 -8 -2 -14.5t-2 -14.5q0 -3 2.5 -9t2.5 -19q0 -5 -4 -9t-10.5 -8t-16 -10t-19.5 -15q-4 -4 -13.5 -6t-20 -4.5t-20.5 -6
t-16 -9.5q-12 -1 -22.5 -5.5t-24.5 -4.5q-20 0 -32.5 -4t-34.5 -4q-13 0 -20 2t-11.5 4.5t-7.5 5t-7 3.5q-16 5 -21 14.5t-6 29.5q0 11 1.5 35.5t4.5 51.5t7.5 49.5t10.5 30.5v8.5t-1 12.5q3 15 7 37.5t7.5 45t5.5 40.5t2 24q0 10 -8.5 12.5t-8.5 8.5q0 8 2 24t5 33.5
t6 31.5t5 17q4 9 6.5 21.5t4.5 24.5t4 21.5t5 14.5q0 13 4.5 26.5t11 26.5l13 26t10.5 24q2 1 5 6.5t6.5 11.5t8.5 11t12 5q10 0 13.5 4t16.5 4q9 0 17 -11t8 -24q0 -20 -6.5 -48.5t-7.5 -59.5q-3 -2 -4.5 -10t-3 -17.5t-3.5 -17.5t-5 -9q0 -16 -2 -38t-11 -43
q0 -25 -10 -32q0 -18 -4 -37t-8.5 -34.5t-8 -27.5t-3.5 -17q0 -11 -4.5 -30t-9.5 -43.5t-9.5 -53t-4.5 -59.5z" />
    <glyph glyph-name="M" unicode="M" horiz-adv-x="611" 
d="M611 602q0 -19 -5 -46t-5 -47q0 -21 -6 -34.5t-7 -20.5q-2 -22 -5.5 -35t-7 -21.5t-6 -15.5t-2.5 -16q-7 -15 -11.5 -33.5t-8 -36t-7 -32.5t-9.5 -23q-6 -19 -9.5 -39t-6.5 -37t-6 -30t-7 -18q0 -5 -1.5 -15t-3.5 -21t-4.5 -20.5t-4.5 -12.5q-11 -1 -18.5 -8.5t-14 -16.5
t-13.5 -16t-17 -7q-6 0 -6 6q0 22 7.5 46t8.5 56q3 5 5.5 23.5t5.5 44t7.5 55t11.5 56.5q7 31 11.5 67t15.5 90q0 6 -7 6q-6 0 -15.5 -11t-21 -26t-24.5 -31t-26 -26q-9 -7 -16.5 -15.5l-15 -17t-16.5 -14.5t-22 -9q-1 -6 -8.5 -13t-18 -12.5t-22 -9.5t-18.5 -4q-12 0 -26 5
t-34 22q-8 10 -15.5 19.5t-12.5 14.5q-5 16 -14 33t-13 17q-10 0 -12 -33t-15 -102q0 -5 -1.5 -15t-4 -21.5t-4.5 -21.5t-3 -13q0 -12 -2.5 -29t-5.5 -33t-5.5 -28t-2.5 -15q0 -22 -1.5 -31t-4 -12t-5 -4t-3.5 -7q-1 -3 -8.5 -6t-16.5 -6t-16.5 -5t-8.5 -2q-5 0 -5.5 15
t-4.5 25q2 9 3.5 28.5t3.5 41t4.5 40t6.5 24.5q0 8 -1.5 15t-1.5 15q0 42 9.5 81t9.5 79q0 5 -0.5 10.5t-0.5 10.5q0 16 4.5 47.5t12.5 69.5q0 38 1.5 59.5t6.5 22.5q-2 5 -2 10.5v10.5q0 16 3 38.5t6 31.5q4 12 10 17.5t13.5 9t15 8.5t15.5 16q20 3 28.5 9.5t13.5 6.5
q8 0 12.5 -9t4.5 -31q0 -29 -0.5 -39t-1.5 -15q2 -12 3 -22.5t1 -18.5q0 -7 -2 -13q1 -3 2.5 -14t3 -23t2.5 -22t2 -13q11 -32 18.5 -60t17 -48.5t22.5 -32.5t34 -12q14 0 28 9t27 21t23 22.5t16 13.5q8 14 17.5 24.5t19.5 17.5q1 4 8 13t15.5 18.5t16 19.5t10.5 17
q10 10 18 24l16 28t16.5 25.5t18.5 15.5q14 5 27.5 15.5t17.5 10.5q8 0 12 -6.5t6 -15t2 -17v-11.5z" />
    <glyph glyph-name="N" unicode="N" horiz-adv-x="556" 
d="M363 -24q-13 0 -23 15.5t-19 32.5q-4 5 -8 12t-6 16q-6 6 -12.5 17t-12 23.5t-10 25t-8.5 22.5q-11 35 -27.5 64t-25.5 63q-19 29 -22.5 42t-6.5 16q-2 1 -4.5 8t-5.5 15t-6 14t-6 6q-2 0 -4.5 -5t-6.5 -25q-5 -7 -6.5 -17t-3.5 -25q-8 -8 -10.5 -23.5t-10.5 -29.5
q-5 -39 -13 -57t-8 -25q1 -8 -4 -24.5t-10 -29.5q-1 -12 -4 -20.5t-6.5 -17t-6 -17.5t-2.5 -23q0 -6 -3.5 -16t-8.5 -21.5t-10 -24.5t-7 -25l-6 -3q-8 -1 -14 -5l-9 -6q-8 0 -10 6t-2 23q0 9 3 25.5t7 34.5t7.5 36t4.5 31q1 12 6 28.5t5 42.5q0 7 1.5 13l3.5 14t4.5 20.5
t5.5 34.5q4 32 7.5 53.5t6.5 37t5 26t2 19.5q5 25 7 45.5t4 39.5t4.5 38t9.5 40q0 6 -1 13.5t-1 22.5q4 24 7.5 37t10 19t17 7.5t28.5 2.5q13 0 17 -7t10 -7q4 0 9.5 7t12 16t14 16t14.5 7q8 0 14.5 -6t6.5 -16q-7 -17 -13 -34.5t-10.5 -33.5t-7.5 -28.5t-3 -19.5
q0 -9 3.5 -20.5t8 -22.5t7.5 -20.5t3 -14.5q14 -27 17.5 -42t8.5 -20q4 -18 7.5 -29.5t6.5 -18.5t5.5 -12t2.5 -10q0 -4 5 -16t11 -26.5t11 -27.5t5 -19q13 -19 19 -39.5t17 -33.5q1 -7 5.5 -18.5t10.5 -22.5t11.5 -19t8.5 -8q8 0 8.5 13t8.5 40q5 17 9.5 52t14.5 73
q0 12 2 30t4 37.5l4 39t2 34.5q0 3 0.5 8t1.5 18t1.5 37t0.5 65q0 14 2.5 21.5t2.5 21.5q4 6 7.5 18.5t7 27.5t7.5 30.5t10 28.5q19 17 29 24t13 7q5 0 6.5 -6.5t1.5 -35.5q0 -21 -1.5 -35.5t-3 -23.5t-3 -15t-1.5 -11q0 -10 2 -14q-2 -4 -3 -17t-2.5 -31.5t-3 -41.5
t-2.5 -48q-2 -6 -3 -10.5t-1 -9.5q0 -7 3 -17q-1 -2 -4 -20t-6 -42.5t-5.5 -50t-2.5 -42.5q-3 -7 -7 -30t-8.5 -51t-10 -55.5t-11.5 -44.5q0 -20 -6 -31.5t-20 -33.5q-20 -5 -38.5 -15t-29.5 -10z" />
    <glyph glyph-name="O" unicode="O" horiz-adv-x="537" 
d="M-2 276q0 16 3.5 36.5t11.5 30.5q16 25 26 45.5t16.5 37t11.5 28.5t12 18q0 15 7 31.5t8 23.5q6 8 10 22t9.5 29t12.5 29.5t18 24.5q2 10 7 16.5t11 11t12 8t9 8.5q6 0 12.5 -5t6.5 -12q0 -15 -3 -24t-6.5 -15t-6.5 -11t-3 -13q0 -12 3 -12q1 0 6.5 6t12.5 13t14 13.5
t11 8.5q15 7 24 14.5t17.5 14.5t18 11.5t26.5 4.5q7 0 10 6t14 6q4 0 7.5 -1t10 -3.5t17 -5.5t28.5 -7q9 -11 19 -15.5t19 -19.5q7 -3 11 -8.5t8 -11.5l8 -12t11 -10q3 -11 11.5 -23t16.5 -31t14.5 -48t6.5 -72q-4 -22 -6 -41.5t-7 -41t-14 -47t-26 -59.5q-5 -4 -9.5 -11.5
t-10.5 -17t-15 -21.5t-25 -26q-2 -10 -9.5 -18.5t-17 -17t-19 -17.5t-16.5 -20q-26 -17 -44.5 -32t-41.5 -34q-20 -5 -33 -11t-24.5 -11t-25 -8.5t-34.5 -3.5q-10 3 -21.5 4.5t-23.5 5.5t-23 12t-21 23q-12 17 -17.5 31.5t-8.5 28.5t-4.5 30t-5.5 36q0 7 2 14.5t2 10.5
q0 33 1 52t9 30q0 26 -1.5 31.5t-4.5 5.5q-2 0 -3.5 -4t-3.5 -9.5t-5 -9.5t-7 -4q-7 0 -11.5 2t-4.5 10zM118 246q0 -10 -1.5 -18.5t-1.5 -21.5q0 -3 1 -10.5t2.5 -17.5t3 -21t3.5 -20q3 -4 8 -16t13 -25t19.5 -23.5t28.5 -10.5q19 2 35.5 5t24.5 11q20 9 32.5 18.5
t21.5 18.5t17.5 18.5t22.5 18.5q14 22 30.5 41.5t21.5 35.5q8 23 12.5 37t11.5 17q0 18 8 42t8 49q0 9 -3 24.5t-3 27.5v7.5t1 9.5q-7 7 -9.5 15t-6.5 18.5t-12 24t-26 32.5q-1 6 -9.5 12t-20.5 11t-25.5 8t-24.5 3q-10 0 -23 -3.5t-25.5 -8.5t-23 -10t-15.5 -8t-13 -10
t-17 -16t-18 -19.5t-16 -19.5q-5 -29 -10.5 -50t-10.5 -44t-8 -53.5t-3 -78.5z" />
    <glyph glyph-name="P" unicode="P" 
d="M127 -19q0 -2 -6 -13.5t-16 -24t-21.5 -23t-22.5 -10.5q-8 0 -13 6.5t-17 33.5q0 33 1 54.5t2.5 34.5t3 19.5t1.5 10.5q0 10 -1.5 14t-5.5 6.5t-11 6t-18 11.5q0 15 3.5 20t9.5 7.5t13.5 6t14.5 15.5q2 3 3.5 20.5t3 37.5t3 36.5t4.5 19.5q1 31 4.5 59t10.5 47
q4 10 5 24.5t3.5 36.5t7.5 53.5t16 77.5q-4 12 -12.5 24.5t-17.5 23.5t-15.5 20t-6.5 15q0 5 4 13t10 17t14 17t16 13q17 9 22.5 17t15.5 8q8 0 14 -9q15 0 30.5 -6t31 -15t30.5 -18.5t30 -15.5q7 -10 13.5 -14l13 -8t13 -9t12.5 -17q7 -3 18 -13t22 -22.5t20 -25.5t12 -22
q6 -5 9.5 -13l7 -16t6.5 -15.5t8 -11.5q1 -34 8 -38q1 -17 4 -29t3 -23q0 -26 -7 -59.5t-28 -67.5q-10 -9 -17 -17.5t-20.5 -20t-38 -26.5t-68.5 -36q-44 -14 -80 -30.5t-63 -16.5q-10 0 -10 -33q0 -4 0.5 -9t0.5 -11q-3 -8 -3.5 -18t-0.5 -29q0 -11 3.5 -17t7 -10t7 -6.5
t3.5 -6.5zM347 355q0 45 -7 69t-18 32q-3 13 -9 24t-13.5 21t-15 19t-13.5 19q-21 15 -34 27t-21.5 20.5t-14.5 13.5t-12 7q-10 3 -13.5 5t-6 3.5t-6 3.5t-12.5 4q-4 -2 -4 -6q0 -5 9 -14t20 -22t20 -29t9 -34q0 -12 -12 -39q0 -8 -2 -19.5t-11 -26.5q-2 -12 -5.5 -24.5
t-7.5 -23.5q-4 -12 -9 -24q0 -4 1.5 -9.5t1.5 -9.5q0 -6 -8 -17t-8 -37q-2 -3 -5 -16t-6 -28t-5 -28.5t-2 -17.5q0 -11 1.5 -15t9.5 -4t28 10t55 24q8 8 20.5 12t21.5 16q7 3 15 8.5t16 11.5t15.5 11.5t12.5 8.5q2 4 6 10t8.5 14.5t7.5 20.5t3 29z" />
    <glyph glyph-name="Q" unicode="Q" horiz-adv-x="537" 
d="M331 64q0 -9 4.5 -15t12 -13t17.5 -16.5t22 -24.5q24 -14 38 -25t24 -20t19.5 -17t24.5 -15q9 -9 19 -16.5t19 -13.5t14.5 -11t5.5 -10q0 -10 -10 -16t-15 -10q-12 -3 -27 -3q-13 0 -33 11t-37 17q-8 7 -19 12t-25 12t-31 17t-37 27q-23 24 -36 37.5t-21 20.5t-13 9
t-10 2q-6 0 -12 -4t-16 -9.5t-26.5 -9.5t-44.5 -4q-23 0 -38 5.5t-26 13.5t-20.5 17t-20.5 17q-12 16 -17.5 30t-8 27.5t-4.5 28t-8 32.5q6 49 11 79t10 46t12 21t18 5q7 0 10 -9q-4 -9 -4 -26q3 -4 3.5 -12.5t0.5 -21.5t2 -21t4 -14.5t4.5 -12.5t2.5 -15q7 -18 13.5 -31.5
t13.5 -30.5q6 -7 14.5 -15.5t18 -15.5t20 -12t20.5 -5q14 0 14 6q0 3 -6 11t-15.5 21.5t-20.5 30.5t-21 38q-7 0 -16.5 23t-18.5 54.5t-15 64t-6 52.5q0 27 2.5 44t6 30.5t8 27t8.5 33.5q10 15 15 27.5t14 28t27 37.5t54 55q6 3 16 11t22 16.5t24 15t20 8.5q10 2 16.5 4.5
t13.5 5t15 4t21 1.5q17 0 34.5 -3t33 -7.5t27 -11t16.5 -13.5q16 -9 22.5 -20t12.5 -14q1 -6 6.5 -13.5t11.5 -20.5t11 -34.5t5 -55.5q0 -26 -3 -44t-5 -29q2 -6 2 -12q0 -7 -3.5 -22.5t-8 -32t-8.5 -30t-6 -16.5q0 -9 -5 -22.5t-11 -26.5t-12 -24t-9 -14
q-6 -14 -10.5 -23.5t-9.5 -17.5t-11.5 -16.5t-16.5 -20.5q-3 -11 -15.5 -25t-26.5 -28t-25.5 -26t-11.5 -19zM311 604q-25 0 -47 -8t-39.5 -21t-30 -30.5t-16.5 -36.5q-6 -9 -10 -20t-7 -22.5t-5.5 -21.5t-5.5 -16q0 -49 6 -81.5t13.5 -55t14 -36.5t7.5 -26q7 -6 19.5 -27
t27 -43.5t28 -40t22.5 -17.5q8 0 21 13.5t26.5 30.5t26 34t18.5 24q8 20 17.5 40.5t15.5 29.5q3 11 8.5 28t11.5 35.5t10.5 36t4.5 29.5q0 6 -1 11t-1 10t1 14.5t1 12.5q-3 10 -5.5 25t-7.5 32t-15 35.5t-29 37.5q-8 2 -13 6t-12.5 8t-20 7t-34.5 3z" />
    <glyph glyph-name="R" unicode="R" horiz-adv-x="519" 
d="M67 579q-2 7 -3 12t-1 15t3.5 21t9.5 21t14 18t18 12q17 16 33 19t36 3h37q13 0 29 -6.5t21 -6.5q15 0 26 -3t19 -7t13.5 -7t9.5 -3q12 -9 23 -11t22 -11q9 -2 15 -6t11.5 -8.5t12.5 -9.5t18 -9q5 -8 13.5 -15.5t17 -18.5t15 -28t6.5 -43q0 -17 -3 -28.5t-7 -19t-9.5 -12
t-9.5 -7.5q-2 -8 -16 -19.5t-32 -23.5t-36 -21.5t-27 -12.5q-15 -12 -27.5 -19t-24.5 -12.5t-24.5 -11t-27.5 -13.5q-7 -4 -18 -8.5t-22 -9.5t-19 -11t-8 -13q0 -14 12.5 -27.5t30.5 -28t37 -30t32 -31.5q21 -8 35.5 -21t31.5 -28q8 -8 16.5 -13t16.5 -10.5t16 -11.5t16 -16
q9 0 14.5 -4t10.5 -9t10.5 -10t15.5 -7q7 -8 14 -12.5t12.5 -9.5t8.5 -13t3 -22q0 -26 -2 -32.5t-10 -6.5q-10 0 -16 3t-11 7.5t-11 9t-16 7.5q-27 14 -48 23.5t-39.5 19t-35.5 21t-36 28.5q-14 7 -23 14.5t-28 15.5q-8 4 -18 16t-35 23q-5 6 -13.5 12t-17 11.5t-15.5 9
t-8 3.5q-6 0 -6 -15q0 -5 -3 -18t-6.5 -29.5t-6.5 -33t-3 -27.5q-4 -9 -5.5 -19.5t-3.5 -19t-4.5 -14.5t-7.5 -6q-9 0 -15.5 3.5t-11 8.5t-7.5 10t-6 8q0 39 2 62t5 41t5 36.5t2 49.5q0 10 -5.5 15t-11.5 9.5t-11.5 11t-5.5 21.5q0 11 1 16t3 8q37 20 42 30q1 2 2.5 20.5
t2.5 40.5t1.5 42t0.5 25q0 17 -2.5 27.5t-2.5 30.5v99zM185 506q0 -8 -1.5 -14t-3.5 -13t-3.5 -15t-1.5 -19q-6 -12 -6 -29q-2 -5 -5 -17.5t-6 -26.5t-5.5 -25.5t-2.5 -14.5q0 -8 8 -8q4 0 21 9t37.5 20.5t39 20.5t24.5 9q6 7 24 19.5t37 27t34 30.5t15 32q0 10 -8.5 21.5
t-20.5 22t-23.5 17.5t-17.5 8q-9 4 -25 11.5t-29 7.5q-17 8 -45.5 10.5t-54.5 7.5l-24.5 -3.5t-18 -5.5t-11 -11.5t-3.5 -22.5v-10t1.5 -12t4 -10.5t8.5 -4.5q5 8 17.5 14.5t19.5 6.5q10 0 17.5 -12.5t7.5 -20.5z" />
    <glyph glyph-name="S" unicode="S" horiz-adv-x="370" 
d="M214 99q0 5 4.5 8.5t9.5 7t9.5 8t4.5 12.5q0 15 -5.5 27t-13.5 22.5t-17 20t-16 20.5q-19 11 -29 27t-17 20q-6 7 -17 16.5t-22 19.5t-19 20.5t-9 18.5q-14 12 -22 24.5t-12 26t-5 29t-1 34.5q0 18 5.5 32t13 26t15 23t12.5 23q13 16 24.5 25.5t23 18t25 18.5t30.5 25
q7 3 14.5 8.5t16 11.5t16.5 10.5t15 6.5q6 1 19 6.5t28.5 12t30.5 11.5t24 5q9 -3 15 -6t9 -8t4.5 -13t1.5 -21q0 -3 -0.5 -10.5t-2 -15t-4.5 -14t-7 -7.5q-5 -2 -13 -9.5t-28 -23.5q-33 -26 -57 -38t-44 -24q-10 0 -16.5 3t-6.5 11q0 10 6.5 17.5t15 14t15 12t6.5 11.5
q0 4 -3 4q-4 0 -20 -11t-34 -29t-32 -41.5t-14 -48.5q0 -11 6 -22t9 -27q1 -7 8.5 -16t16.5 -19.5t18.5 -22t16.5 -23.5t25 -28t29 -34q19 -20 30 -35.5t17.5 -30.5t8.5 -30.5t3 -34.5q13 -2 15.5 -6t2.5 -24q0 -5 -6 -9.5t-14.5 -9t-17.5 -10t-15 -12.5
q-21 -28 -40.5 -44.5t-36.5 -28t-32.5 -19.5t-29.5 -19q-12 -4 -21 -9.5t-18.5 -10.5t-21.5 -8.5t-30 -3.5q-29 10 -43 18t-14 27q0 18 17 28t42 28q14 5 32 14t35.5 17.5t30.5 15t18 6.5q3 0 8 -4.5t5 -9.5q0 -6 -6 -11.5t-13 -9.5t-13 -7t-6 -5q0 -5 7 -5q5 0 12.5 5.5
t15.5 13t14 15t8 10.5v13z" />
    <glyph glyph-name="T" unicode="T" horiz-adv-x="370" 
d="M17 587q0 8 5 17t5 14q0 20 5.5 34.5t10.5 26.5q2 4 8 9t13.5 8.5t15 6t11.5 2.5q17 0 29.5 3.5t23.5 3.5q4 0 9 -1.5t8 -1.5q6 3 17 4.5t23 2.5t22.5 1.5t16.5 0.5h12.5t17.5 -0.5t17 -2t12 -3.5q7 2 13.5 2h11.5q8 0 19.5 -3.5t17.5 -5.5q6 2 11 2q11 0 14.5 -8
t3.5 -34q0 -5 -1 -9.5t-1 -6.5q0 -4 1.5 -7.5t1.5 -11.5q0 -9 -1.5 -13t-7.5 -4q-6 1 -16 2t-20.5 2t-20 2.5t-15.5 4.5q-9 0 -18.5 -0.5t-17.5 -1.5t-13.5 -3.5t-5.5 -6.5q4 -3 10 -9t12 -14.5t10.5 -19t4.5 -23.5q0 -14 -3.5 -28t-3.5 -42q-4 -2 -7 -16.5t-6 -35
t-6.5 -43.5t-8.5 -43q-2 -14 -5 -22.5t-5 -14.5t-3.5 -11.5t-1.5 -12.5q0 -3 -2.5 -23t-5.5 -43.5t-7 -43.5t-7 -23q0 -16 -0.5 -29.5t-1.5 -30t-1.5 -37.5t-0.5 -52q0 -8 -8.5 -8.5t-18.5 -8.5q-2 -6 -4 -7t-7 -1t-9 3t-6.5 11.5t-4.5 24.5t-4 42q0 20 3 35q-5 11 -6 17
t-1 12q0 5 2 14t4 17q-2 7 -2.5 13.5t-0.5 15.5q0 14 0.5 29.5t2 36t4.5 49t8 67.5q1 11 2 28t2 33.5t3.5 30t8.5 19.5q-2 10 -2 15q0 16 2 29t4 26.5t4 29t2 35.5q-4 3 -11 6t-13 3t-11 -4.5t-24 -4.5q-6 0 -15.5 -3t-20.5 -3q-23 -9 -43 -15t-24 -6q-5 0 -10 3t-5 8z" />
    <glyph glyph-name="U" unicode="U" horiz-adv-x="519" 
d="M134 298q0 -35 3.5 -57t7.5 -37.5t7.5 -26.5t3.5 -24q5 -14 14 -24t14 -24q9 -7 17.5 -14t19.5 -7q18 0 30 10.5t20.5 24.5t16 28t17.5 22q13 25 19.5 43t10 31t6 22t8.5 16q3 3 6 16t7.5 31.5t10.5 40t14 42.5q7 55 17 83t10 46q0 9 2 16t5 15t6.5 18.5t7.5 27.5l11 14
q1 20 5 30t7 19q1 7 2.5 12t7 9.5t15.5 9.5t27 13q7 0 11 -9t7 -47q0 -17 -4 -40t-4 -53q-5 -23 -7 -43t-11 -48q-6 -17 -10 -34.5t-7.5 -32t-6.5 -25t-7 -13.5q-4 -33 -9.5 -58t-10.5 -46t-9 -39t-4 -37q-5 -12 -5.5 -32t-11.5 -50q-1 -9 -1.5 -22t-0.5 -39q0 -9 2.5 -13.5
t6 -8t6 -6.5t2.5 -7q0 -10 -8 -14.5t-12 -20.5q-11 -7 -23.5 -20.5t-31.5 -13.5q-9 0 -14 4t-7 9t-3 11t-3 9q0 6 2 10t2 8q0 5 -2.5 7.5t-2.5 8.5q0 4 1.5 6.5t1.5 6.5q0 38 5.5 61.5t5.5 32.5q0 8 -1.5 9.5t-3.5 1.5q-5 0 -9.5 -6.5t-9 -15.5t-10 -18.5t-12.5 -15.5
q-1 -4 -2.5 -7.5t-7 -10.5t-17 -18.5l-30.5 -30.5q-14 -13 -39 -19.5t-49 -6.5q-18 0 -30 11t-20.5 26t-14.5 29.5t-10 21.5q-2 11 -7 31t-9 31q-2 15 -2 30v25q-4 2 -6 9t-2 14q0 9 1 13.5t1 9.5q0 11 -2.5 17.5t-2.5 14.5q0 13 1.5 22.5t2.5 13.5q-3 8 -4 24t-1 52v71
q0 30 2 41t5 19q1 48 2.5 76.5t5.5 45t11 24.5t20 16q6 0 9 -4.5t5.5 -11t5.5 -14t8 -12.5q15 -2 25 -19.5t10 -34.5q0 -8 -2 -21t-4.5 -26.5t-4.5 -26t-2 -20.5q0 -25 -2 -40t-4.5 -24.5t-4.5 -15t-2 -11.5q0 -3 0.5 -7t1 -12t1 -23t0.5 -39q-3 -8 -3 -16z" />
    <glyph glyph-name="V" unicode="V" 
d="M154 476q-2 -8 -2 -19v-24q0 -36 6.5 -76.5t8.5 -81.5q2 0 4.5 -10t2.5 -39q0 -5 4.5 -8t6.5 -16q6 -30 11.5 -50t10.5 -20q4 0 9 6.5t9.5 14.5t8.5 16.5t8 12.5q8 25 19 46t20 32q3 10 8.5 25t12 31t13 30.5t11.5 22.5q1 12 6.5 24.5t11.5 26t11 28t7 30.5q5 43 8.5 68
t9.5 37.5t15 17.5t25 9q6 2 11 7t15 5q6 0 9 -3t3 -13q0 -14 -1.5 -33.5t-4.5 -38.5t-7.5 -33.5t-10.5 -18.5q-1 -18 -4.5 -32.5t-8 -25.5t-8 -18t-3.5 -10q0 -13 -3.5 -20.5t-8.5 -13.5q0 -4 -4 -13.5t-8.5 -20t-8.5 -19.5t-4 -12t-6 -18t-14 -32t-15 -31t-9 -16
q-16 -39 -27 -61t-17.5 -33.5t-9.5 -16t-3 -7.5q0 -5 2.5 -13t2.5 -11q0 -7 -4.5 -12.5t-11 -11t-14 -12.5t-13.5 -18q-12 -6 -19 -13t-13.5 -13t-14 -10t-20.5 -4q-14 0 -22.5 3.5t-13 8.5t-6 12t-1.5 13q0 4 3.5 9.5t7.5 10t7.5 9t3.5 7.5q0 6 -10.5 27.5t-24.5 74.5
q-3 0 -6.5 9t-6.5 21.5t-5 26.5t-2 24q0 3 -2 5.5t-4.5 7.5t-4.5 13.5t-2 24.5q-4 7 -5 23.5t-1 27.5q-4 1 -6.5 13.5t-4 31.5t-2.5 41.5t-1 43.5q-4 0 -6.5 3.5t-3.5 14.5t-1.5 30.5t-0.5 52.5q-4 7 -5.5 20t-1.5 43q0 24 5.5 44.5t9.5 25.5q8 10 10.5 20t8.5 12
q22 5 35.5 14.5t29.5 9.5q12 0 14.5 -6t2.5 -23q0 -8 2 -18t2 -15q0 -13 -0.5 -30.5t-2 -34t-3 -29t-4.5 -14.5z" />
    <glyph glyph-name="W" unicode="W" horiz-adv-x="667" 
d="M55 444q0 12 1 39t2.5 56t4.5 54t8 35q5 60 13.5 87t34.5 27q14 0 27.5 -8t14.5 -16q11 -20 17.5 -27.5t6.5 -21.5q0 -29 -1.5 -47t-3 -29t-3 -15.5t-1.5 -6.5q0 -10 1.5 -17t1.5 -11q-2 -5 -2.5 -13.5t-0.5 -32.5q0 -11 -1.5 -24t-3.5 -17q2 -3 3 -7.5t1.5 -15.5
t0.5 -32.5v-57.5q0 -18 2.5 -40.5t6 -43.5t6 -39.5t2.5 -29.5q2 -6 3.5 -17t3 -22.5t4 -19.5t7.5 -8q4 0 9 7.5t9.5 17.5l9 20t8.5 15q7 9 12 21.5t9.5 27t10.5 30t16 29.5q0 17 9 35.5t11 32.5q7 14 11 28t7.5 29t7.5 33t11 41q3 27 5.5 45.5t5.5 30t6 18t8 10.5
q0 7 9.5 13.5t21.5 11t22.5 7t13.5 2.5q6 0 13.5 -5.5t7.5 -25.5q0 -6 -1.5 -18t-3.5 -25t-4.5 -24.5t-4.5 -15.5q0 -17 -3 -37.5t-7 -41.5t-7 -40.5t-3 -32.5q-3 -18 -4 -36t-1 -34q0 -17 0.5 -24.5t2.5 -10.5q-2 -3 -2.5 -12t-0.5 -23q0 -33 1 -51.5t2 -27.5t2.5 -11
t3.5 -2q9 0 16.5 27t32.5 73q0 6 6 26t14 41.5t15.5 39.5t11.5 21q1 16 10 46.5t19.5 63.5t19.5 63t9 47q0 36 9.5 61.5t43.5 42.5l4 -5q2 -6 2 -12v-15q0 -16 -2 -25.5t-2 -29.5q0 -12 -1 -19.5t-1.5 -14t-1.5 -13.5t-1 -18q-11 -36 -17 -71.5t-20 -77.5q0 -11 -4.5 -24
t-10.5 -26.5t-10.5 -27t-4.5 -24.5q-4 -9 -7.5 -21t-7 -24.5t-8 -24t-11.5 -18.5q-19 -59 -34 -90.5t-25.5 -46t-16.5 -18.5t-7 -8q-11 0 -17 -2t-10.5 -4t-9.5 -4t-12 -2q-14 3 -22 7t-13.5 13.5t-9 28t-8.5 51.5q0 32 -1 49t-5 24q0 20 -0.5 32t-1.5 18t-2.5 7.5t-3.5 1.5
q-4 0 -7.5 -8t-8.5 -20t-11.5 -27.5t-16.5 -30.5q-3 -13 -10 -29.5t-14.5 -32.5t-13.5 -29t-8 -20q-3 -10 -9 -17t-10 -18q-8 -24 -19 -32t-31 -8q-18 0 -23 9t-9 26t-13.5 38t-9.5 41q0 16 2 21q-6 4 -10.5 21t-7.5 37t-4.5 37t-1.5 22q0 4 -2.5 14.5t-5 22.5t-5 23.5
t-2.5 17.5q-3 26 -5 40.5t-5 22t-7.5 10t-11.5 5.5q-1 7 -2 16t-1.5 18t-0.5 16v10z" />
    <glyph glyph-name="X" unicode="X" horiz-adv-x="481" 
d="M148 208q1 6 7 14.5t12.5 17.5t12 19t5.5 19q0 7 -4.5 17t-10 20.5t-11 21.5t-6.5 21q-2 13 -7.5 27t-11.5 29t-10.5 29.5t-4.5 28.5l-10 15q-2 12 -4 20l-3.5 14l-3 12t-1.5 14q-8 13 -11 28.5t-3 25.5q0 16 3 26.5t8 20t11 20t11 26.5q22 16 30.5 20t19.5 4q7 0 15 -19
q4 -3 9 -9.5t8.5 -14t6 -15t2.5 -12.5q0 -14 -1 -23.5t-8 -20.5q0 -25 4.5 -46t5.5 -40q4 -4 7 -16.5t5.5 -26t5.5 -24.5t8 -12q10 -38 12.5 -50.5t9.5 -12.5q2 11 12 25.5t21.5 29.5t22 29t13.5 24q2 6 10.5 18.5t19 27.5t19 31t10.5 30q-10 0 -12.5 -5.5t-7.5 -5.5
q-10 0 -16 5t-6 12q0 3 1.5 8t7.5 13.5t18.5 20.5t34.5 29q9 5 20.5 14.5t22.5 18.5t20.5 16t14.5 7q10 0 19 -14t12 -22q-2 -12 -3 -16.5t-1 -8.5t-0.5 -11t-1.5 -24q-4 -5 -5 -13t-4.5 -19.5t-11.5 -27.5t-26 -37q-14 -20 -25 -33.5t-20.5 -25t-19.5 -24t-20 -30.5
q-17 -14 -31 -38.5t-32 -46.5q-17 -20 -21 -28t-4 -17q0 -5 3.5 -18t8.5 -27.5t11 -26t12 -12.5q8 -26 18.5 -40t15.5 -34q3 -2 8 -9t10 -15t9 -16l6 -12q9 -18 20 -28.5t11 -28.5q0 -3 -4.5 -5.5t-10.5 -4t-12 -2t-9 -0.5q-15 6 -25 10.5t-18 11t-16 16.5t-18 28
q-10 5 -22 24t-29 52q-15 17 -21.5 33t-15.5 16q-3 0 -7.5 -6t-9.5 -14.5t-10 -16t-10 -10.5q-6 -17 -14.5 -32.5t-17.5 -30t-17 -27.5t-12 -25q-21 -24 -33.5 -44t-20 -34.5t-13 -23t-12.5 -8.5q-8 0 -11 3.5t-3 14.5q0 18 0.5 29t2 18t4.5 11.5t7 9.5q0 11 5.5 21.5
t16.5 28.5t28 47t41 79z" />
    <glyph glyph-name="Y" unicode="Y" 
d="M159 641q0 -21 -2 -46.5t-2 -54.5q0 -5 3 -16.5t3 -48.5q6 -20 7.5 -36.5t6.5 -33.5q2 -26 8 -42t7 -40q9 -9 11.5 -21t8.5 -12t16.5 20t22 46.5t23 51.5t20.5 35q6 25 14 43.5t16 33t14 24t8 16.5q3 10 6.5 17t8.5 14t11.5 16.5t14.5 26.5q12 17 20 30.5t13.5 22.5
t10.5 14t12 5q9 0 13 -7t9 -10q0 -41 -2 -59t-7 -26l-6.5 -26t-11 -37t-13.5 -35.5t-13 -21.5q-1 -18 -4.5 -24.5t-9.5 -10.5q-5 -18 -11 -28t-12.5 -19t-13.5 -20t-14 -30q-19 -20 -27.5 -40.5t-21.5 -31.5q0 -6 -8 -27t-18 -44t-19.5 -42.5t-13.5 -23.5q-2 -15 -5.5 -27
t-8 -25t-7.5 -28t-3 -34q0 -9 5 -13t5 -12q0 -2 -3.5 -7.5t-8.5 -10.5t-12 -9t-14 -4q-2 -7 -15 -11t-21 -4q-6 2 -14 3t-15 3t-12 5.5t-5 11.5q0 7 3 21t7 29t9 28t10 17q1 23 8 39.5t9 28.5q8 8 14.5 22t6.5 36q-13 4 -22.5 19t-18 33.5t-16 38t-16.5 32.5q-2 8 -5 22
t-7 28.5t-7.5 25.5t-5.5 13q0 9 -2.5 17t-5.5 22t-6.5 37.5t-5.5 64.5q-7 5 -8.5 27t-1.5 51q0 2 2.5 8t6.5 12t9 10.5t10 4.5h9q7 0 17 7t26 7q3 0 9.5 -3.5t12.5 -9.5t10.5 -13.5t4.5 -14.5z" />
    <glyph glyph-name="Z" unicode="Z" horiz-adv-x="426" 
d="M331 560q0 16 -21 24.5t-46.5 13t-48.5 6.5t-26 7q-7 -2 -16 -3.5t-17 -1.5q-7 0 -16 1t-20 1q-10 0 -22 -1t-27 -1q-14 0 -18 4t-4 15q0 16 5.5 29.5t11.5 18.5q5 16 10 26t13 15.5t22 7.5t37 2q17 0 30 -7q8 2 14 3t11 1q12 0 31.5 -3.5l39 -7t35 -7t19.5 -3.5
q7 0 20.5 -9.5t39.5 -16.5q22 -17 37 -38t15 -50q0 -18 -3.5 -30.5t-7.5 -21.5t-8 -17.5t-5 -18.5q-8 -7 -16.5 -19t-16.5 -24t-16.5 -22t-17.5 -14q-5 -14 -13.5 -25.5t-18 -22t-20.5 -22.5t-22 -28q-4 -5 -11.5 -15t-16.5 -20.5t-18 -20t-16 -12.5q0 -7 -7 -19t-16.5 -24
t-19 -21.5t-14.5 -12.5q-1 -6 -10.5 -18t-20.5 -26t-20 -29t-9 -27q21 3 28 3q8 0 13 -3q10 4 17 4q3 0 8.5 -0.5t13.5 -5.5q15 9 32.5 12t37 6t41.5 8.5t47 19.5q23 4 41 15.5t30 11.5q6 0 9 -6t3 -26q0 -7 -2.5 -13.5t-10.5 -13t-23 -13.5t-39 -14q-20 -21 -55 -24
q-4 -4 -11.5 -8.5t-15 -8.5t-15 -7t-11.5 -3q-6 0 -18.5 -4.5t-26 -9l-25.5 -8.5t-18 -4q-10 0 -23 -3t-27.5 -7t-29.5 -7t-29 -3q-26 0 -46.5 14.5t-20.5 36.5q0 16 3.5 28.5t5.5 20.5q4 1 7 7t8 15.5t15 24t27 32.5q16 15 32.5 35t30.5 39.5t26 34.5t19 19
q13 21 24.5 36.5t23 28t21.5 24t20 26.5q1 6 16.5 27.5t33.5 48t33 53.5t15 45z" />
    <glyph glyph-name="bracketleft" unicode="[" horiz-adv-x="463" 
d="M206 -11q0 -6 5.5 -8.5t13.5 -3.5t18.5 -2t20.5 -4q6 0 16.5 3t23 6t25.5 6t24 3q8 0 10 -3.5t2 -8.5q0 -6 -6.5 -17t-8.5 -26q-7 -7 -25 -11.5t-38 -7.5t-38.5 -4t-25.5 -1q-27 0 -51 5t-39 26q0 33 4 60t4 41q4 16 6 36t3.5 40.5t3.5 40t5 34.5q3 14 6 42.5t6.5 61
t7.5 64.5t9 53q1 6 2.5 21t3.5 34t4.5 37.5t6.5 30.5q11 32 15.5 62t21.5 58q9 16 22 24t25.5 12.5t22.5 6t13 3.5q2 1 14 4.5t27 7.5t30 6.5t24 2.5q8 0 20.5 -2t14.5 -4t4 -9.5t2 -15.5q0 -5 -2.5 -11t-6.5 -11.5t-10 -9.5t-13 -3v-2q-10 2 -36 2q-14 0 -27.5 -3.5
t-24.5 -9t-18.5 -10.5t-9.5 -8q-6 -10 -8.5 -27.5t-8.5 -25.5q0 -17 -4 -42t-10 -41q0 -28 -6.5 -65.5t-14.5 -75.5t-14.5 -71t-6.5 -52q0 -17 -2.5 -32t-5 -30.5t-5 -32.5t-2.5 -38q-11 -31 -15 -58.5t-4 -46.5z" />
    <glyph glyph-name="backslash" unicode="\" horiz-adv-x="426" 
d="M355 9q0 7 3 10q0 9 -7 24t-15.5 31.5t-16.5 32t-11 26.5q-12 17 -23.5 34.5t-20 32t-14.5 24t-7 10.5q-5 3 -15 19t-21.5 36.5t-23.5 41t-19 31.5q-26 39 -42 65.5t-25.5 44.5t-16 31t-14.5 25q-6 7 -13.5 19.5t-9.5 24.5q-9 9 -15 25t-10.5 33.5t-8.5 34.5t-8 28
q0 7 14 7q5 0 17 -2t25 -5t24 -6t15 -5q7 -8 12.5 -29t13.5 -32q4 -5 11 -24.5t16 -43t18 -46t18 -34.5q4 -5 12.5 -20t18.5 -32t18 -32.5t11 -21.5q11 -12 22.5 -32t22 -39.5t18 -34.5t10.5 -18q23 -45 40.5 -70.5t25.5 -49.5q4 -2 11 -14.5t13.5 -29t11.5 -33t5 -26.5
q0 -13 -3 -28.5t-11 -15.5q-7 0 -16.5 4t-18.5 9t-15 11t-6 9z" />
    <glyph glyph-name="bracketright" unicode="]" horiz-adv-x="463" 
d="M257 645q0 6 -5.5 8.5t-13.5 3.5t-18.5 2t-20.5 4q-6 0 -16.5 -3t-23 -6t-25.5 -6t-24 -3q-8 0 -10 3.5t-2 8.5q0 6 6.5 17t8.5 26q7 7 25 11.5t38 7.5t38 4t26 1q27 0 51 -5t39 -26q0 -33 -4 -60t-4 -41q-4 -16 -6 -36t-3.5 -40.5t-3.5 -40t-5 -34.5q-3 -14 -6 -42.5
t-6.5 -61t-7.5 -64.5t-9 -53q-2 -6 -3 -21t-3 -34t-4.5 -37.5t-6.5 -30.5q-11 -32 -15.5 -62t-21.5 -58q-9 -16 -22 -24t-25.5 -12.5t-22.5 -6t-13 -3.5q-2 -2 -14 -5t-27 -7t-30 -6.5t-24 -2.5q-8 0 -20.5 2t-14.5 4t-4 9.5t-2 15.5q0 9 9 23t23 16v-2q-7 0 4.5 -1t31.5 -1
q14 0 27.5 3.5t24.5 9t18.5 10.5t9.5 8q6 10 8.5 27.5t8.5 25.5q0 17 4 42t10 41q0 28 6.5 65.5t14.5 75.5t14.5 71t6.5 52q0 17 2.5 32t5 30.5t5 32.5t2.5 38q11 31 15 58.5t4 46.5z" />
    <glyph glyph-name="asciicircum" unicode="^" horiz-adv-x="536" 
d="M351 379l-84 195l-85 -195h-110l152 288h89l152 -288h-114z" />
    <glyph glyph-name="underscore" unicode="_" horiz-adv-x="500" 
d="M0 -75h500v-50h-500v50z" />
    <glyph glyph-name="grave" unicode="`" horiz-adv-x="278" 
d="M138 592q3 0 6 -6t11.5 -17t25 -27t45.5 -36q16 -11 27 -16t21.5 -9t21.5 -8.5t27 -13.5q0 -13 -8.5 -17t-13.5 -6q-8 3 -18.5 6t-22 6.5t-22 7t-17.5 7.5q-9 5 -17.5 10t-13.5 6q-11 2 -31.5 16.5t-47.5 23.5q-4 11 -8 17t-10 13q0 24 2 26q8 11 19.5 14t23.5 3z" />
    <glyph glyph-name="a" unicode="a" horiz-adv-x="407" 
d="M414 156q0 -10 1 -18t1 -11q0 -2 -1.5 -5.5t-1.5 -8.5q0 -3 1 -6t1 -8q0 -8 -9 -12.5t-17 -14.5q-22 -15 -34.5 -21.5t-22.5 -6.5q-3 0 -7 1.5t-6 1.5t-6.5 -1.5t-8.5 -1.5q-11 0 -25.5 9.5t-19.5 23.5q-7 4 -9 15t-3 22t-2.5 19.5t-6.5 8.5q-3 0 -8.5 -4t-11.5 -9.5
t-11.5 -12t-8.5 -10.5q-6 0 -12 -6t-12.5 -14t-14.5 -16t-20 -14q-15 -20 -33.5 -28.5t-30.5 -19.5q-11 -1 -17 -4.5t-13 -3.5t-19 6.5t-17 10.5q-5 14 -6 20.5t-1 11.5q0 15 5 25t5 14q0 3 -5 4.5t-7 1.5q0 20 0.5 33t2 21.5t5.5 13.5t12 10q7 4 14 11t13 14t11.5 12t9.5 6
q12 18 19.5 26t22.5 17q4 8 13 15.5t19.5 15t21.5 16t20 19.5q9 2 17 9.5t16 16.5q13 8 24.5 16.5t22.5 16t22.5 12.5t24.5 5q15 0 19.5 -7.5t12.5 -14.5q-2 -17 -13.5 -31t-28.5 -19q-10 -20 -24.5 -29.5t-29.5 -25.5q-5 -9 -13.5 -17t-20.5 -16q-7 -11 -17 -21.5
t-19 -14.5q-8 -16 -27 -32t-31 -35q-2 -8 -6.5 -12t-4.5 -13q15 0 26 12t29 20q3 7 19.5 23.5t37.5 26.5q11 19 28.5 30t28.5 22q10 2 19 3t14 1q7 0 9.5 -5t3 -12t1.5 -14.5t5 -11.5q0 -9 -2 -15.5t-2 -20.5q0 -16 9.5 -30t26.5 -14q14 0 19 6t10 6q11 6 14 13t7 7z" />
    <glyph glyph-name="b" unicode="b" horiz-adv-x="352" 
d="M311 634q-3 -3 -6.5 -17t-8 -30t-9 -30.5t-7.5 -20.5q0 -4 -2 -11t-4 -14.5t-5 -13.5t-6 -8q-2 -8 -6 -18t-10 -19q-3 -11 -9.5 -23t-13.5 -23.5t-13.5 -23t-8.5 -22.5q-7 -14 -13.5 -25t-15.5 -20q-14 -39 -33.5 -65.5t-32.5 -54.5q-4 -19 -7 -29t-3 -28t2.5 -36t7 -33
t10.5 -24t13 -9q23 4 40.5 16.5t17.5 25.5q0 3 -4.5 5t-10 4t-10 4.5t-4.5 6.5q0 15 5 34.5t23 38.5q5 14 15.5 24t13.5 21q11 8 19.5 15t13.5 7t10.5 -1t13.5 -1q3 0 8.5 1t10.5 1q12 0 15 -5t3 -16q0 -4 -2.5 -13.5t-6 -20t-7.5 -19t-7 -10.5q-7 -28 -18 -43
q-3 -14 -12.5 -26t-22.5 -42q-20 -16 -27 -30t-21 -25q-12 -4 -19.5 -11t-15.5 -14t-20 -12t-33 -5q-12 0 -20 3.5t-13 8t-9 9t-8 5.5q-7 17 -14.5 48t-11.5 89q-3 -1 -6.5 -4.5t-7 -7.5t-6 -7.5t-3.5 -3.5q-4 0 -4 6q0 16 1 28.5t1 25.5q0 6 5 10t11 8t11 10t6 16
q1 17 2.5 28.5t3 20t3.5 15t5 14.5q7 44 14.5 74t14 51.5t11 36t5.5 26.5q1 14 10 28.5t16 43.5q2 8 10 20t9 20q8 23 14.5 38t12.5 25t11 17l10 14q5 3 9.5 8t6.5 15q29 13 45 23t29 10q2 0 3.5 -2t3.5 -2q5 0 7.5 1t4.5 1q5 0 12.5 -6t7.5 -23v-53zM249 37q0 7 9.5 19.5
t17.5 18.5q8 11 15 17t12.5 11t10 10.5t9.5 15.5q20 13 25 23t10 10q4 0 6 -6t3.5 -13t2.5 -13t3 -6q0 -14 -4.5 -21t-13.5 -13t-21.5 -13.5t-28.5 -21.5q-17 -8 -27 -17.5t-18 -9.5q-11 0 -11 9zM223 567q-6 0 -12 -15.5t-24 -52.5q-2 -11 -6 -18.5t-10 -17.5t-12.5 -24
t-13.5 -36q-5 -10 -8 -19t-5 -19.5t-4 -23t-6 -27.5q7 0 9 9.5t9 17.5q4 4 8 14t8.5 21t9 21.5t10.5 16.5q7 19 13 36t11.5 34t12 36.5t15.5 42.5q0 4 -5 4z" />
    <glyph glyph-name="c" unicode="c" horiz-adv-x="333" 
d="M316 311q0 -10 -23.5 -31.5t-59.5 -36.5q-5 -9 -18 -18.5t-29 -20.5t-32.5 -24t-26.5 -29q-6 -9 -6.5 -26t-2.5 -23q3 -11 5.5 -18t7 -11t12 -6t19.5 -4q6 0 13.5 -0.5t15.5 -0.5q9 0 13.5 4t8.5 4q8 0 33 15t69 47q11 9 14.5 20t8.5 11q6 0 7.5 -7.5t6.5 -7.5
q-2 -6 -2.5 -11.5t-0.5 -11.5q4 -5 4 -13t-10.5 -18.5t-25 -21.5t-30.5 -22t-28 -18q-24 -16 -40.5 -23.5t-28.5 -10.5t-21 -4.5t-18 -5.5q-27 0 -43.5 2t-33.5 12q-3 5 -10 9t-14.5 10.5t-13.5 17.5t-6 30q-2 2 -2.5 8t-1.5 12.5t-2 11.5t-3 5q-6 0 -13 -10t-9 -10
q-4 0 -4 5v3t0.5 7.5t0.5 16.5v31q0 3 9 11t21 17t23 16t14 9q5 9 15 20.5t36 28.5q4 4 17 14.5t28.5 21t29 19.5t18.5 10q20 19 44 30.5t50 11.5q5 0 7.5 -3.5t2.5 -17.5q2 -6 3.5 -12.5t1.5 -13.5z" />
    <glyph glyph-name="d" unicode="d" horiz-adv-x="463" 
d="M410 138q15 0 25 4t17.5 8.5t12.5 8.5t9 4q7 0 7 -4q0 -9 -3 -16q0 -18 1.5 -24.5t1.5 -11.5q-5 -9 -16.5 -18t-27 -16t-34 -11t-36.5 -4q-19 6 -36.5 10.5t-30.5 28.5q-8 7 -13.5 18t-6.5 24q-5 5 -7 12.5t-3 15t-2.5 12.5t-6.5 5q-4 0 -10 -6t-12.5 -13.5t-11.5 -15
t-6 -11.5q-4 -12 -9.5 -19t-11.5 -12.5t-13.5 -12.5t-14.5 -20q-6 -5 -18.5 -19t-28 -29t-33 -26.5t-34.5 -11.5q-9 0 -16.5 2.5t-16.5 4.5q-8 2 -11.5 13t-3.5 20q0 15 3 28t7 23t7 16.5t3 8.5q0 3 -6 3q-5 0 -8.5 -3t-6 -6t-4.5 -6t-5 -3q-5 0 -5 10q0 6 3 11.5t3 9.5
t-2 8t-2 11q0 6 2 11.5t8 9.5q17 11 23.5 18.5t17.5 11.5q8 13 21 22t14 18q13 15 30 31.5t37 30.5q2 7 13 14q9 13 26.5 29t49.5 39q12 12 19.5 17t18.5 5q5 0 8.5 7t6 17t5.5 20t7 15q5 23 13.5 42t8.5 30q7 10 12 22t11 25.5t14 29t20 33.5q0 6 6.5 17.5t16.5 23t20.5 20
t18.5 8.5q4 0 8 -1.5t7 -6.5t5 -16t2 -29q-3 -2 -4.5 -10.5t-3 -18.5t-3.5 -18.5t-5 -9.5q-2 -20 -5.5 -32t-7.5 -20.5t-8 -16t-7 -19.5q0 -5 -0.5 -9t-2.5 -11t-6 -17t-12 -25q-5 -6 -6 -10.5t-2.5 -9.5t-4.5 -12.5t-12 -17.5q0 -12 -2.5 -19.5t-6.5 -14.5t-9 -15.5
t-10 -22.5q-2 -13 -4.5 -24.5t-2.5 -37.5q2 -5 2.5 -13.5t1 -19t2.5 -22.5t7 -23q4 -4 7 -12t8 -15.5t14 -13t26 -5.5zM265 316q-3 0 -11.5 -7t-17 -16.5t-15 -18.5t-6.5 -12q-8 -2 -16 -16.5t-25 -28.5q-6 -13 -16.5 -28t-20.5 -30.5t-17.5 -31.5t-7.5 -31q7 0 15.5 7.5
t18.5 18t19.5 22t18.5 19.5q7 8 14 19t19 22q5 10 10 17.5t11 15.5t12.5 18.5t14.5 26.5v34z" />
    <glyph glyph-name="e" unicode="e" horiz-adv-x="296" 
d="M245 326q0 -10 -1 -21t-9 -14q-4 -14 -12.5 -26.5t-21.5 -24.5q-6 -9 -16.5 -19.5t-20.5 -19.5t-19 -15t-12 -7q-8 -13 -18 -17.5t-18 -14.5q2 -21 4 -30.5t6 -11.5q10 -5 17.5 -12t30.5 -7q15 0 27.5 3.5t23 8t19 9t13.5 5.5q1 2 5 4.5t8.5 5t8.5 4.5t5 4l8 3
q13 5 17.5 15.5t12.5 10.5t8 -7q0 -4 -1 -7t-1 -6q0 -29 -4 -38.5t-8 -11.5q-21 -11 -41 -25t-39 -26t-38 -20t-38 -8q-12 -4 -24 -4q-26 0 -42.5 8t-36.5 23q-3 8 -8.5 16.5t-11 20.5t-9.5 30t-4 46q0 17 3 28.5t8 21.5t11 21.5t12 29.5q8 7 12 19.5t18 29.5q8 7 13.5 13.5
t13 14t18.5 16t30 19.5q5 11 18.5 15t29.5 4q11 0 24 -6t14 -12q8 -3 11.5 -13.5t3.5 -24.5zM163 278q0 8 -5 8q-8 0 -16 -7.5t-17 -14.5q0 -2 -4.5 -6.5t-9.5 -10.5t-9 -12.5t-4 -12.5t10 -6q5 2 14.5 8.5t9.5 11.5q10 5 20.5 18t10.5 24z" />
    <glyph glyph-name="f" unicode="f" horiz-adv-x="278" 
d="M271 617q0 -29 -5.5 -46t-5.5 -38q0 -14 -4 -27.5t-4 -27.5q-5 -20 -12 -41.5t-12 -47.5q-6 -28 -19 -46t-26.5 -43.5t-24.5 -67.5t-13 -118q0 -14 -1.5 -23t-3 -19.5t-2.5 -25.5t-1 -40q0 -11 0.5 -21t1.5 -21q-4 -14 -5 -32t-1 -27q0 -3 1 -12.5t3 -20.5t4.5 -19.5
t5.5 -8.5q4 0 10 12.5t12 27.5t11.5 28.5t9.5 16.5q0 7 2.5 18t6 23.5t7.5 24.5t8 20q2 5 4.5 16.5t4.5 23.5t5 22t6 11q0 13 6 18t17 9q7 -2 8 -8t1 -29q0 -3 -1.5 -8t-1.5 -10q0 -3 3.5 -9t3.5 -12q0 -19 -6 -31.5t-8 -32.5q-5 -11 -7 -24.5t-11 -35.5q0 -10 -4.5 -26.5
t-11 -35t-13.5 -38t-12 -34.5q-9 -11 -15 -22.5t-12.5 -21.5t-16.5 -17t-27 -8q-37 7 -40 38q-5 13 -9 21.5t-5 25.5q-5 23 -9 59t-4 64q0 42 -2.5 59.5t-2.5 23.5q0 2 0.5 4.5t1.5 8t1.5 16.5t0.5 29v39t-0.5 21t-1 8.5t-1.5 1.5q-2 0 -11 -7t-19 -15.5t-19 -15.5t-12 -7
q-5 0 -5 4q0 2 2 6t2 12t-0.5 18t-0.5 19q0 2 8.5 10t19 19t21 23.5t15.5 23.5q8 19 15.5 28t14.5 29q0 46 1.5 73t3 44t3.5 28.5t3 27.5q1 3 5 16.5t8.5 29t8 29t3.5 17.5q6 11 10.5 24t9 27.5t10 31.5t15.5 36q5 20 13.5 31t19.5 25q8 5 15 11.5t15 6.5q23 0 29 -10t6 -27
q4 -8 5 -26t1 -56zM153 378q0 -17 5 -17q4 0 6.5 6.5t2.5 9.5q0 4 4.5 9t11.5 17.5t15 35.5t14 63q0 7 1.5 13.5t3 16.5t3 25t1.5 39q0 5 -3 5q-2 0 -5 -7t-6.5 -17.5t-8.5 -23t-11 -24.5q-9 -15 -12.5 -25.5t-5 -18t-3 -14.5t-5.5 -14q0 -32 -5 -44q-2 -5 -2.5 -17.5
t-0.5 -17.5z" />
    <glyph glyph-name="g" unicode="g" horiz-adv-x="352" 
d="M150 136q0 -11 10 -26q3 -6 4.5 -12.5t5.5 -14t11 -17.5t19 -24q47 41 79 59.5t49 35.5q16 9 21 18.5t10 9.5t6 -11t1 -46q0 -3 -1.5 -6.5t-9.5 -11t-25 -20t-47 -33.5q-14 -14 -23.5 -21.5t-15 -12t-8 -8t-2.5 -9.5q14 -23 26 -52t12 -65q0 -14 -3 -23t-6.5 -16.5
t-7.5 -15.5t-6 -19q-7 -12 -20.5 -26.5t-28.5 -27t-28.5 -22t-20.5 -11.5q-22 -10 -44.5 -21t-49.5 -11q-8 4 -24 4t-32 13q0 4 -3.5 5.5t-8 4.5t-8 9t-3.5 20q0 27 2.5 43t7 27.5t10 20.5t11.5 22q7 14 15.5 24.5t16.5 18t14.5 14t9.5 13.5q16 14 30 27t28 27q0 10 -3.5 17
t-8 12.5t-9 10.5t-7.5 13q-23 24 -28 51t-9 58q-17 -8 -28 -15.5t-18 -14t-11 -10.5t-8 -4q0 11 1.5 15t1.5 10q0 7 -2 16.5t-2 17.5q10 14 34 30t50 45q12 14 19 25t18 22q2 11 11.5 23t38.5 37q1 3 8.5 10t16.5 15t17.5 14.5t12.5 8.5q1 4 12.5 13t29.5 17
q12 13 29.5 18.5t31.5 5.5q11 -5 15 -11.5t7 -27.5q-2 -3 -2.5 -9.5t-2.5 -13.5t-6 -13.5t-12 -9.5q-7 -12 -14 -19t-13.5 -12.5t-11.5 -10t-9 -10.5q-10 -10 -24 -19t-27 -23q-9 -10 -25.5 -24t-33.5 -24q-4 -6 -7 -12.5t-3 -19.5q0 -14 -1 -20t-1 -15zM189 -141
q0 9 -3.5 21t-8 22t-9.5 17t-8 7q-5 0 -10.5 -6.5t-12 -15t-14 -17t-17.5 -12.5q-3 -6 -13 -18t-22 -26t-22 -28.5t-12 -25.5q-6 -7 -7.5 -11t-1.5 -9q8 -21 29 -21q7 3 19 5t41 17q4 5 16 14t24.5 21.5t22 29t9.5 36.5z" />
    <glyph glyph-name="h" unicode="h" horiz-adv-x="370" 
d="M89 82q0 -9 2 -17t4 -8t8 6.5t13 16.5t14 20.5t10 18.5q7 17 13.5 27.5t12.5 20.5t12 23t13 34q13 15 27.5 19.5t32.5 6.5q7 1 12 -10.5t9.5 -27.5l9 -32t9.5 -25q5 0 11.5 -8.5t21.5 -8.5q16 0 24.5 3.5t14 8t8.5 8t8 3.5q6 0 7.5 -3t1.5 -8q0 -8 -2 -14t-2 -14
q0 -16 -5.5 -26t-27.5 -18q-16 -14 -29 -20t-34 -6q-29 0 -42.5 9t-21 20t-12.5 20t-17 9q-6 -11 -12.5 -18t-12.5 -13.5t-10.5 -13.5t-7.5 -17q-3 -5 -12.5 -17.5t-20.5 -25.5t-20.5 -23.5t-13.5 -11.5q-5 -2 -14.5 -4t-19.5 -2q-15 2 -23.5 14.5t-9.5 23.5
q-2 10 -4.5 27.5t-2.5 41.5q0 8 0.5 15t1.5 14l-2 2q-6 -11 -8.5 -12.5t-7.5 -2.5q2 18 2.5 32.5t0.5 32.5l22 23q4 9 7 26.5t7.5 40t12 48t19.5 52.5q0 4 7 22.5t16.5 40.5t19 41.5t14.5 24.5q10 23 19 40t18 25q1 5 7.5 15t15 22t18 23.5t17.5 19.5q3 8 19 25t35.5 34
t38.5 30t29 13q2 0 6 -3t7 -8q7 0 20 -4t13 -19q0 -4 -0.5 -11.5t-1.5 -16.5t-4 -17.5t-7 -14.5q0 -17 -6 -32t-12 -21q-9 -29 -17.5 -47t-16.5 -32.5t-16.5 -28.5t-17.5 -35q-14 -16 -26 -34.5t-22.5 -35t-20 -29.5t-18.5 -17q-1 -7 -16 -25t-32.5 -37.5t-32 -36.5
t-14.5 -22q-1 -9 -3.5 -23.5t-5.5 -30.5t-5 -31t-2 -24zM317 598q0 14 -1 16t-4 2q-6 0 -20.5 -18.5t-31 -41.5t-31.5 -44.5t-22 -28.5q-4 -14 -8.5 -21.5t-18.5 -21.5q0 -10 -7 -28t-15.5 -37.5t-15 -36.5t-6.5 -26q0 -3 3 -3t14 14t24 32t25 34t17 19q4 12 9 19t12 12
q1 4 12.5 26t25.5 49t26 51.5t13 32.5z" />
    <glyph glyph-name="i" unicode="i" horiz-adv-x="296" 
d="M-5 102q0 3 0.5 11l1 16t1.5 15.5t1 9.5q11 7 21 21.5t22 19.5q2 4 8.5 13t15 18.5t17 18t14.5 10.5q5 11 8.5 15.5t11.5 9.5q20 0 32.5 -5t26.5 -23q1 -2 3.5 -12t4.5 -23t3.5 -27.5t1.5 -25.5q3 -3 5.5 -10.5t6 -16t9 -14.5t16.5 -6q9 0 17 4t20 8q5 6 13.5 15t24.5 17
q0 -15 -1 -30.5t-1 -30.5q0 -6 -12 -17.5t-28.5 -23t-34 -20t-27.5 -8.5q-3 0 -8 0.5t-10.5 1t-9.5 1l-4 0.5q-5 5 -11.5 9t-13.5 11t-14 19t-13 34q-9 9 -13 17t-6.5 15t-5.5 11t-12 4q-4 0 -12 -6t-16 -13.5t-14.5 -14.5t-7.5 -10q-11 -3 -16.5 -12t-11.5 -10q-3 3 -3 14z
M222 568q10 0 12 -4.5t7 -7.5q0 -5 -1 -14.5t-3 -20t-5 -19.5t-6 -12q-3 -18 -10.5 -28t-16.5 -17t-18 -11t-16 -10q-27 0 -34 1.5t-9 8.5q-2 9 -5.5 13.5t-3.5 16.5q0 24 16 45t38 29q2 7 8.5 12.5t15 9.5t17 6t14.5 2z" />
    <glyph glyph-name="j" unicode="j" horiz-adv-x="296" 
d="M239 350q0 -18 -1.5 -30.5t-1.5 -23.5q0 -8 0.5 -14.5t0.5 -10.5q0 -18 -4 -45.5t-9 -56t-10 -54.5t-7 -42q0 -3 8 -3q3 0 11 7.5t17.5 17l18 18t12.5 10.5q14 23 21 33.5t18 12.5q2 -6 2.5 -8t0.5 -4q0 -3 -1.5 -5.5t-1.5 -5.5q0 -12 3.5 -20.5t2.5 -13.5
q-9 -8 -14.5 -17l-11 -18t-13.5 -18t-23 -18q-7 -4 -12 -10t-11 -14t-15 -18t-24 -20q-2 -7 -5.5 -12.5t-9.5 -17.5t-14 -34.5t-18 -63.5q-11 -24 -17.5 -49.5t-26.5 -59.5q-11 -18 -18 -33.5t-14.5 -26.5t-17.5 -17.5t-26 -6.5q-20 0 -23.5 8t-3.5 34v14.5t1 16.5t2 14.5
t4 9.5q2 22 9.5 43.5t16 38.5t15.5 29t7 16q29 41 38.5 61t20.5 28q3 3 6 14.5t5.5 25t4 25.5t1.5 17q2 29 5.5 54.5t6.5 34.5q-1 7 -1.5 16.5t-0.5 26.5q0 11 -2 16t-10 5t-20 -8.5t-25 -26.5q-4 -3 -16 -16.5t-26 -28.5t-27 -27t-19 -12q0 5 0.5 8t0.5 6q0 8 -1.5 17.5
t-1.5 25.5q0 6 9 15t17 16q4 3 13.5 13.5t20 22.5t20.5 22.5t16 15.5q8 17 19 27.5t25 28.5q8 4 15.5 15t15.5 22t18.5 19.5t24.5 8.5q11 0 20.5 -6.5t9.5 -13.5zM290 622q10 0 12 -4.5t7 -7.5q0 -5 -1 -14.5t-3 -20t-5 -19.5t-6 -12q-3 -18 -10.5 -28t-16.5 -17t-18 -11
t-16 -10q-27 0 -34 1.5t-9 8.5q-2 9 -5.5 13.5t-3.5 16.5q0 24 16 45t38 29q2 7 8.5 12.5t15 9.5t17 6t14.5 2z" />
    <glyph glyph-name="k" unicode="k" horiz-adv-x="389" 
d="M283 611q0 -19 -3.5 -33t-7 -25t-7 -20.5t-3.5 -19.5q-8 -11 -16 -40.5t-27 -64.5q-2 -11 -8 -25t-12.5 -28.5t-12 -28.5t-6.5 -25q-1 -15 -7 -36.5t-13 -45t-13.5 -47.5t-7.5 -43q-3 -5 -6 -13.5t-4.5 -17.5t-2.5 -17.5t-1 -14.5t5 -6q4 0 7.5 3.5t8.5 13.5l13.5 27
t22.5 43q3 42 14 65t35 23q8 0 17.5 15.5t19.5 35t18.5 38t14.5 23.5q2 8 6.5 18t10 19t11.5 15.5t10 6.5q13 0 18.5 -9.5t5.5 -36.5q0 -20 -11.5 -36t-17.5 -34q-3 -9 -8.5 -17.5t-11.5 -16t-10.5 -13.5t-4.5 -9q0 -4 -3 -10.5l-6 -13t-6 -12t-3 -8.5q0 -8 8.5 -18
t14.5 -13q3 -10 15.5 -21.5t27.5 -11.5q9 0 16.5 5t13.5 11.5t10.5 11.5t7.5 5q4 0 6.5 -9t2.5 -21q0 -14 -1.5 -21.5t-6.5 -13.5q-17 -23 -37 -40.5t-47 -17.5q-10 0 -23 9t-26 20t-24 20t-18 9q-2 0 -5.5 -1.5t-5.5 -3.5q-6 -12 -14.5 -23t-17 -20.5t-15 -17.5t-8.5 -14
q-10 -7 -16.5 -16.5t-13 -18.5t-15 -15t-22.5 -6q-8 0 -17 4t-11 12q-6 6 -7.5 13.5t-1.5 15.5q0 21 1 35t2.5 23t4 14t5.5 9q-3 4 -3 11q0 6 4 26t4 43h-2q-16 -22 -27 -35t-19 -20.5t-13.5 -11.5t-8.5 -8h-4q0 8 2 12t2 9q0 9 -1.5 14.5t-1.5 18.5q0 4 2.5 8t8.5 11.5
l16 20t25 34.5q2 8 12 29t21.5 43.5t21 42t10.5 24.5q0 2 2.5 9t5 15t4.5 15t3 10q7 16 13.5 34t8.5 32q3 5 7 18.5t9.5 29t11.5 32t13 27.5q9 31 16 50.5t13 30t12 14t13 3.5t14 -7t12 -16.5t8.5 -21t3.5 -20.5z" />
    <glyph glyph-name="l" unicode="l" horiz-adv-x="333" 
d="M330 669q0 -23 -3 -38.5t-6.5 -28.5t-6.5 -24.5t-3 -25.5q-3 -3 -5 -9.5t-4.5 -14.5t-5 -15t-5.5 -10q-3 -20 -9.5 -37t-14 -30t-13.5 -22.5t-7 -15.5q-1 -10 -13 -30.5t-27 -44t-30 -45.5t-21 -35q-5 -11 -12 -14.5t-12 -14.5q0 -16 4 -36t9 -24q1 -6 6 -15t14 -16.5
t21.5 -13t29.5 -5.5q18 0 30 5t25 13.5t28 18.5t39 19v-14t-0.5 -23.5t-1 -22.5t-1.5 -11q-3 -2 -9.5 -5.5t-21.5 -9.5q-9 -7 -24.5 -15.5t-33 -16t-34 -13t-28.5 -5.5q-6 0 -11.5 1.5t-8.5 3.5h-11q-12 0 -21 4.5t-16.5 10.5t-14 12t-11.5 10q0 3 -3 7t-7.5 12.5t-9 21.5
t-7.5 34q-20 -12 -31 -22t-17.5 -16.5t-9.5 -10.5t-6 -4q-4 0 -4 4q0 2 2.5 7.5t2.5 19.5v36q3 2 10 9t15.5 16t17.5 18.5t16 17.5q0 20 1 24t3 6q0 23 2.5 40t5.5 30.5t5.5 23.5t2.5 20q3 7 6 19.5t6.5 25t7 24t7.5 17.5q2 7 6.5 20t10.5 26t12 24.5t10 17.5
q4 18 11.5 33.5t14.5 27.5t12.5 20.5t6.5 13.5q13 24 23 38.5t18.5 23.5t16 15.5t14.5 15.5l22 8q31 0 38.5 -17t7.5 -44zM190 462q0 -3 -3.5 -13.5t-8 -21.5t-9.5 -20t-8 -10q0 -10 -3.5 -20l-7 -20t-7 -21t-3.5 -23q12 0 24 24.5t38 67.5q8 9 14.5 24t11.5 31.5t9.5 31.5
t9.5 22q0 23 4 32t4 15q-2 0 -6.5 -4t-9.5 -10t-10.5 -11.5t-9.5 -8.5q-1 -6 -5.5 -13.5t-10 -16t-9.5 -17.5t-4 -18z" />
    <glyph glyph-name="m" unicode="m" horiz-adv-x="667" 
d="M410 299q0 -3 -1.5 -11t-3 -19.5t-3 -24.5t-1.5 -26q-3 -4 -3.5 -12t-2.5 -14q-2 -9 -4 -15t-2 -23q8 3 15 11t10 15q21 16 34.5 28.5t24.5 20t23.5 11.5t32.5 4q17 -8 27 -22.5t17 -36.5q6 -6 10.5 -15.5t9.5 -18.5t12 -15.5t18 -6.5q9 0 16 5t12.5 11.5t11 12t12.5 5.5
q0 -5 -0.5 -14.5t-0.5 -18.5q0 -5 1 -11.5t1 -14.5q0 -11 -7.5 -15.5t-15.5 -18.5q-5 -2 -19.5 -11.5t-39.5 -9.5q-11 0 -28 8.5t-22 15.5q-8 5 -16 16.5t-17.5 23t-22 20.5t-28.5 9q-23 -13 -36 -24.5t-20.5 -20t-11.5 -14.5t-8 -8q-4 -12 -13 -17.5t-22 -21.5
q-11 -14 -19 -23t-15.5 -14.5t-15.5 -8t-20 -2.5q-4 5 -9 9.5t-5 7.5q0 6 3.5 19.5t8 28.5t8 28t4.5 18q3 3 5 13.5t4.5 24l5 27t5.5 22.5q0 9 -2.5 11.5t-7.5 2.5q-10 0 -16.5 -4.5t-13.5 -11.5l-14.5 -14.5t-19.5 -13.5q-15 -20 -27.5 -33t-24 -24.5t-23 -24t-24.5 -30.5
q-4 0 -9.5 -7t-12.5 -15t-14.5 -15t-15.5 -7q-14 0 -20.5 6t-6.5 10q0 12 6 34.5t13.5 45.5t13.5 43t6 27q0 10 -7 10q-11 0 -23.5 -13t-25 -28.5t-24 -28.5t-20.5 -13q0 18 -0.5 31.5t-0.5 24.5q0 7 12.5 21t28.5 29.5t30 29.5t17 22q3 1 10.5 8.5l17 17t18.5 18t14 10.5
q3 5 14.5 11t23.5 6q17 0 22 -6t5 -23q0 -16 -1.5 -30.5t-7.5 -25.5q0 -17 -4 -25t-4 -16q0 -9 5 -9q2 0 9.5 4.5t9.5 10.5q4 0 14 10t22 23.5t25 26.5t22 19q32 34 49 46.5t37 12.5q11 0 17 -8t9 -33z" />
    <glyph glyph-name="n" unicode="n" horiz-adv-x="481" 
d="M219 286q0 -6 -1.5 -17.5t-4.5 -23.5t-6.5 -22.5t-6.5 -14.5q0 -8 -4.5 -21t-10 -27t-10 -27t-4.5 -20q0 -4 2 -4t5.5 2t6.5 9q15 20 26.5 32t21.5 21.5l20 19t23 24.5q5 3 11 8.5t13.5 11t16.5 9.5t21 4q20 0 37 -7q6 -14 14 -22.5t10 -19.5q6 -7 9.5 -19.5t8 -24.5
t11 -20.5t18.5 -8.5q9 0 14 4t9.5 9.5l9 11t12.5 9.5q0 -36 4 -59q-50 -65 -90 -65q-18 0 -29 11t-19.5 26t-16.5 29.5t-20 20.5q-2 10 -8.5 16.5t-11.5 6.5q-7 0 -16.5 -7.5t-21 -18t-23.5 -22t-24 -18.5q-9 -18 -23.5 -34.5t-28 -30t-24 -23t-12.5 -14.5q-3 -6 -8.5 -9.5
t-11.5 -5t-12 -1.5h-9q-15 0 -20 3.5t-5 15.5q0 3 0.5 5t0.5 6q0 3 -0.5 6t-0.5 7q0 8 4.5 21t4.5 16q1 3 3.5 9t2.5 16q0 13 10 31t10 43q0 5 4 16t4 16t-6 5q-13 0 -20 -6.5t-10 -11.5q-5 -7 -13.5 -17t-17.5 -19.5t-16 -16t-8 -7.5q-3 -4 -7 -9t-7 -5q-2 0 -4 4q2 2 2 8
t3 11q0 17 -0.5 24t-3.5 15q2 7 11 19.5t19.5 25.5t19 23.5t10.5 14.5q21 19 34.5 34.5t22.5 26.5t14 17.5t10 7.5q15 3 24.5 9t19.5 6q18 0 28 -15.5t10 -32.5z" />
    <glyph glyph-name="o" unicode="o" horiz-adv-x="407" 
d="M-5 150q4 3 7.5 7.5t13.5 15t30 29t56 49.5q5 2 11 14t17 14q10 9 22 20.5t22.5 22t19 17.5t11.5 7q23 0 31.5 -3.5t8.5 -8.5q0 -3 -6 -9.5t-6 -17.5q11 1 23 8t26 7q21 0 32.5 -3.5t18 -8.5t10 -10.5t8.5 -8.5q3 -11 7.5 -18t4.5 -14q0 -39 -6 -62t-14.5 -38t-16.5 -25
t-12 -23q-18 -16 -23.5 -23t-7.5 -10.5t-5 -7t-17 -12.5q-6 -11 -15.5 -19.5t-19.5 -14.5t-18 -10t-11 -6q-5 -4 -13 -6t-16.5 -3.5t-16 -2.5t-10.5 -2q-17 2 -26.5 3.5t-15 3.5t-8 4.5t-4.5 6.5q-18 7 -26.5 23t-8.5 30q0 9 1 13.5t1 13.5q0 21 3.5 27t3.5 18
q-9 -1 -18.5 -8.5t-18 -15.5t-16 -15.5t-13.5 -8.5v18q2 4 2.5 8.5t0.5 7.5q0 6 -3 9v18zM142 89q0 -29 27 -29q6 0 19 6.5t26.5 15.5t24.5 19t15 17q8 4 14.5 12t6.5 16q0 10 7 18t7 28q0 17 -6.5 28.5t-25.5 11.5q-20 0 -30 -8.5t-17.5 -19t-14.5 -19t-20 -8.5
q-2 0 -7.5 -8t-11 -20.5t-10 -28t-4.5 -31.5zM304 37q0 7 9.5 19.5t17.5 18.5q8 11 15 17t12.5 11t10 10.5t9.5 15.5q20 13 25 23t10 10q4 0 6 -6t3.5 -13t2.5 -13t3 -6q0 -14 -4.5 -21t-13.5 -13t-21.5 -13.5t-28.5 -21.5q-17 -8 -27 -17.5t-18 -9.5q-11 0 -11 9z" />
    <glyph glyph-name="p" unicode="p" horiz-adv-x="389" 
d="M233 238q10 0 15 -1.5t16 -11.5q6 -13 12 -20.5t12 -14.5t11 -15t10 -21q8 -5 15.5 -14.5t19.5 -9.5q11 0 18.5 3.5t13 8t9.5 8.5t8 4q6 0 6 -9q0 -5 -0.5 -13.5t-0.5 -32.5q0 -5 -10 -12.5t-23.5 -14t-27.5 -11.5t-22 -5q-17 0 -32.5 10.5t-28.5 23t-23 23t-15 10.5
q-8 0 -17.5 -18t-19 -41.5t-18 -44.5t-14.5 -27q0 -8 -4.5 -23t-10.5 -32t-12 -32.5t-10 -22.5q0 -8 -4 -21.5t-9 -28t-10 -27.5t-9 -19q-2 -29 -10 -40t-12 -21t-7.5 -17.5t-14.5 -7.5q-25 0 -35 20q-1 14 -1.5 31.5t-0.5 28.5q1 5 1.5 18.5t1 28t1 25.5t2.5 11
q0 12 6.5 37.5t6.5 63.5q2 7 3.5 22t6.5 27q2 20 6 32t4 18q0 7 1 12t2.5 11.5t2.5 15.5t1 24q-11 -4 -17.5 -10t-11 -12l-7.5 -10t-7 -4q-5 0 -5 5t1.5 8.5t1.5 6.5q0 2 -1.5 6t-1.5 6q2 2 2.5 7.5t0.5 20.5q0 3 6.5 8.5t15 12.5t15.5 14.5t8 15.5q1 7 6 16t11 17.5
t11.5 16t6.5 11.5q3 6 12 20t19.5 30t18.5 31t10 23q6 7 15 25t16 36q5 3 13 15t16 12q9 0 14 -15t5 -31q0 -10 -3.5 -20.5t-7 -19.5t-7 -17t-3.5 -13q-3 -12 -6.5 -20t-6.5 -14.5t-5.5 -12.5t-3.5 -15q-6 -13 -10.5 -34t-23.5 -58q0 -6 -6 -26t-13.5 -43.5t-14 -46
t-7.5 -32.5q-11 -37 -15 -56t-4 -27q-3 -5 -5.5 -15.5t-4.5 -22.5t-3.5 -23t-3.5 -17q6 1 8 6t3.5 12t3.5 15t7 15q0 13 2 21.5t5.5 17t8 19.5t9.5 29q12 26 15.5 45t13.5 39q11 32 20.5 52.5t17 34t13 22.5t8.5 18q9 5 14.5 11t20.5 6z" />
    <glyph glyph-name="q" unicode="q" horiz-adv-x="389" 
d="M284 340q11 0 15 -9.5t17 -19.5q0 -10 -5 -15t-12.5 -8l-15 -6t-11.5 -9q-8 -10 -17 -16.5t-17.5 -11t-15.5 -9t-10 -10.5q-26 -26 -54.5 -52.5t-40.5 -49.5q-7 -5 -9 -14.5t-2 -15.5q0 -4 2 -5t4 -1q12 8 20 12t25 15q8 9 16 15.5t18 14t22.5 17.5t30.5 27
q15 8 25.5 19.5t24.5 11.5q24 -9 30.5 -18.5t6.5 -34.5q0 -18 -1.5 -31.5t-4.5 -26.5t-6 -29t-6 -38q-1 -15 -4 -27.5t-6.5 -26.5t-8 -33t-7.5 -47q-2 -3 -3.5 -12.5t-3.5 -21.5l-4 -24t-5 -19q-4 -9 -7 -22.5t-5.5 -27t-5.5 -24.5t-7 -15q0 -17 -7 -33t-12 -33
q-8 -7 -17 -12.5t-17 -5.5q-13 2 -15 7.5t-2 10.5q0 2 1.5 8.5t3 14.5t3 16.5t1.5 14.5q6 20 8 40t8 31q0 10 1 17.5t3 17t4 22t4 31.5q4 38 12 75.5t8 75.5q2 5 3 18t1 27q0 19 -2 22.5t-5 3.5q-5 0 -8.5 -4t-8 -9t-10.5 -10.5t-16 -9.5q-11 -14 -22 -21.5t-26 -15.5
q-5 -8 -16.5 -17t-25 -16.5t-27 -12.5t-22.5 -5q-18 0 -26 12.5t-13 19.5q-2 4 -2 14q0 22 7 38.5t7 23.5q-6 -1 -11.5 -3.5t-14.5 -13.5q0 9 1.5 12.5t1.5 9.5q0 13 -3 42q0 6 9.5 14t23.5 18.5t29.5 23t27.5 25.5q10 3 21.5 14.5t37.5 25.5q5 11 22.5 20t34.5 23
q18 8 38.5 19.5t44.5 11.5z" />
    <glyph glyph-name="r" unicode="r" horiz-adv-x="333" 
d="M254 197q0 -18 -4.5 -34t-10.5 -30t-10.5 -28t-4.5 -29q0 -4 6 -4q5 0 21 10.5t33 24t30.5 25.5t13.5 15q0 2 2.5 5t5.5 3q4 0 5 -3t1 -15q5 -10 5 -28q0 -10 -8.5 -16.5t-9.5 -17.5q-9 -5 -21.5 -15t-25 -20.5t-24 -18.5t-17.5 -10q-8 -3 -17 -8.5t-18.5 -11.5
t-19 -10.5t-18.5 -4.5q-26 0 -33 7.5t-7 18.5q0 8 5 26t14 32q0 6 3.5 19.5t7.5 29t7.5 31.5t3.5 28q0 8 -1.5 19t-5.5 21t-10.5 17t-15.5 7q-8 0 -22 -14t-29 -31.5t-28 -33t-19 -19.5q-2 -1 -7.5 -8t-11.5 -15.5t-11 -15t-8 -6.5t-3 3q0 2 1 4t1 4q0 4 -2 12.5t-2 30.5
q0 5 4.5 11t10 12t11 13.5t7.5 15.5q14 15 22.5 27.5t13.5 21.5t8.5 14t7.5 6q0 8 -2.5 13.5t-2.5 14.5q0 7 11.5 11.5t22.5 18.5q6 2 14.5 10t22.5 8q20 0 31.5 -5.5t19 -13t12.5 -15t12 -10.5q7 -9 9.5 -16.5t11.5 -16.5q8 -20 10 -36.5t2 -29.5z" />
    <glyph glyph-name="s" unicode="s" horiz-adv-x="315" 
d="M212 356q10 0 26.5 -4t25.5 -20q2 -9 2 -16v-14q0 -8 -0.5 -17t-3.5 -14q0 -24 -3 -43.5t-7 -34.5t-7 -24.5t-3 -12.5q0 -6 -4 -15.5t-8.5 -20.5t-8 -22t-3.5 -21q0 -6 3 -6q6 0 15.5 7.5t19 16.5t17.5 16.5t10 8.5q12 15 19.5 23.5t11.5 12.5t5.5 5t3.5 1q3 0 3 -4
q0 -2 -1.5 -6.5t-1.5 -9.5q0 -4 2.5 -15t2.5 -20q0 -4 -3.5 -9.5t-7.5 -11t-8.5 -9.5t-5.5 -4q-14 -20 -33 -32.5t-41 -25.5q-11 -15 -20 -22.5t-16.5 -12t-13.5 -9t-10 -13.5q-21 -8 -28 -13t-11 -5q-11 0 -14 5t-3 16q-7 8 -12 32.5t-5 49.5q0 9 -2 13t-2 12q0 14 14 25
t25 11q5 0 7.5 -3t4 -6t2.5 -6t3 -3q4 0 7 15.5t5.5 36.5t3.5 42t1 32q0 8 -3.5 8.5t-5.5 4.5q-6 0 -11 -3.5t-10 -9t-12.5 -11.5t-18.5 -12q-34 -29 -53 -48t-29.5 -30.5t-15 -16t-8.5 -4.5q0 3 1.5 6t1.5 6q0 5 -3 18.5t-3 19.5q0 5 3 13q4 4 11.5 10.5t16.5 14t17 15.5
t13 15q17 14 26.5 26t16.5 21q6 1 20.5 16.5t31 34.5t33 34.5t28.5 15.5z" />
    <glyph glyph-name="t" unicode="t" horiz-adv-x="296" 
d="M302 543q0 -13 -7.5 -29t-7.5 -27q0 -7 7.5 -8t7.5 -8q0 -8 -2 -23.5t-2 -41.5q0 -9 -7 -11.5t-15 -3.5t-16 -2.5t-9 -7.5q-2 -7 -7.5 -30.5t-22.5 -71.5q-2 -17 -11 -40t-9 -45q-3 -10 -6 -24.5t-5.5 -29.5t-3.5 -29.5t-1 -24.5q0 -11 8 -11q4 0 15.5 8t23.5 18
t21.5 19.5t11.5 12.5q20 12 27.5 22t14.5 10q3 0 4.5 -2t1.5 -13q0 -5 -1 -9t-1 -8q0 -5 1 -8.5t1 -7.5q0 -11 -8.5 -21t-22.5 -21q-3 -1 -9 -7.5t-13.5 -14.5t-16 -15t-15.5 -10q-8 -10 -21 -22t-26 -22.5t-23.5 -18t-13.5 -7.5q-8 0 -13 6.5t-22 11.5q-8 3 -12 13.5
t-2 33.5q1 22 2 36.5t2 23t2.5 13t3.5 6.5q3 34 7 55t7.5 32.5t6 16t2.5 6.5q0 4 -3 4q-5 0 -12.5 -11.5t-24.5 -31.5q-23 -25 -37.5 -39t-24 -22.5t-15.5 -14t-13 -13.5q-2 11 -2.5 23t-0.5 30q0 9 4 15.5t11 13t16.5 15.5t21.5 24q16 16 29 37.5t28 37.5q4 9 14.5 26
t20.5 34.5t18 31t8 16.5q0 6 -8 6q-5 0 -14 -0.5t-19.5 -0.5t-20.5 -0.5t-16 -0.5q-12 0 -16.5 2.5t-9.5 2.5t-8 -1.5t-7 -1.5q-14 3 -22 6t-12 5.5t-4.5 5t-0.5 4.5q0 33 4 51t20 18t25 -0.5t14.5 -1t8 -1t4.5 -0.5q7 0 12.5 1.5t9.5 1.5q7 0 18 -0.5t20 -2.5q8 0 15.5 0.5
t15.5 2.5q10 -2 19 -2q13 0 19.5 10.5t13 26t16 32.5t28.5 29q18 -2 24.5 -11t6.5 -26z" />
    <glyph glyph-name="u" unicode="u" 
d="M149 109q0 -11 2.5 -23t8.5 -12q5 0 14 8.5t18 11.5q2 6 8.5 13t18 19.5t27 32t34.5 49.5q10 13 16 21.5t11 13t10 6t13 1.5q10 0 17 -2t11.5 -9.5t6 -22.5t1.5 -40q1 -4 2 -11.5t3.5 -15t9 -13.5t20.5 -6q7 0 14.5 5.5t14.5 11.5t12.5 11.5t8.5 5.5q4 0 5.5 -18t1.5 -34
q0 -5 -4 -14t-16 -14q-8 -3 -16.5 -9t-18.5 -11.5t-21.5 -9.5t-26.5 -4q-27 0 -40 12t-19 26.5t-9 26.5t-9 12q-2 0 -10 -10t-17 -22.5t-17 -23.5t-11 -12q-6 -3 -19.5 -19.5t-44.5 -37.5q-5 0 -13 -4t-22 -4q-13 0 -19.5 4t-16.5 6q-5 9 -10.5 14.5t-10.5 23.5
q-2 21 -5 37.5t-3 41.5q0 14 -3 14q-2 0 -8.5 -4.5t-13.5 -10t-13.5 -11t-7.5 -7.5q-8 -11 -13 -14t-8 -3q-2 0 -2.5 6.5t-0.5 36.5q0 9 5.5 18.5t9.5 11.5q9 6 21 19t23.5 27.5t21 28t13.5 20.5q7 7 15 18t14.5 21.5t11 18.5t6.5 9q9 6 21 13t23 7q12 0 15.5 -6t3.5 -16
q0 -9 -2 -15.5t-6 -16t-9 -23.5t-11 -37q-2 -15 -4 -23.5t-4 -14t-3.5 -9.5t-1.5 -9t-1.5 -15.5t-1.5 -45.5z" />
    <glyph glyph-name="v" unicode="v" horiz-adv-x="352" 
d="M-5 143q0 4 7.5 14.5t17 23.5t18.5 27.5t13 25.5q8 7 15 27.5t15 37.5q2 4 9.5 10t16 11.5t16.5 9.5t10 4q8 0 10.5 -13t2.5 -19q0 -8 -0.5 -19t-1 -21.5t-1.5 -18.5t-1 -10q2 -4 3 -21.5t1 -39.5q0 -35 0.5 -58.5t5.5 -28.5q0 -13 2.5 -16t7.5 -3q7 0 18 14.5t22 33
t19 35t10 20.5q11 15 14.5 26t11.5 23q6 19 11.5 31t9.5 24t8 26.5t7 37.5q2 3 12 15t24 12q11 0 11 -13q0 -6 -1.5 -17.5t-4.5 -24.5t-7 -23.5t-8 -13.5q-1 -16 -8 -39t-19 -35q-3 -18 -8 -29.5t-10 -20t-8.5 -14.5t-3.5 -13q-12 -18 -20 -34t-15.5 -30t-17.5 -28t-26 -27
q-14 -24 -27 -31t-26 -7q-14 0 -24.5 8t-17 20t-9.5 25.5t-3 25.5q0 5 0.5 9t2.5 11q-3 1 -5 4t-3.5 12.5t-2 27.5t-0.5 48q-6 0 -16 -10t-20.5 -22t-19 -22t-11.5 -10l-3 5q1 4 1 10t-2 15t-2 22zM250 37q0 7 9.5 19.5t17.5 18.5q8 11 15 17t12.5 11t10 10.5t9.5 15.5
q20 13 25 23t10 10q4 0 6 -6t3.5 -13t2.5 -13t3 -6q0 -14 -4.5 -21t-13.5 -13t-21.5 -13.5t-28.5 -21.5q-17 -8 -27 -17.5t-18 -9.5q-11 0 -11 9z" />
    <glyph glyph-name="w" unicode="w" horiz-adv-x="500" 
d="M158 307q0 -11 -2.5 -28.5t-2.5 -24.5q0 -35 2 -51.5t2 -27.5q0 -23 1 -37t2.5 -21.5t3 -9.5t3.5 -2q6 0 9.5 5.5t7 13.5t7.5 16.5t11 15.5q3 3 7.5 12t13.5 36q10 12 19 34.5t20 45t25.5 39.5t34.5 17q11 0 15.5 -12t4.5 -26q0 -7 -1.5 -12.5t-7.5 -7.5
q-1 -25 -3.5 -35.5t-4.5 -15.5q0 -24 -4.5 -53t-4.5 -64q0 -2 0.5 -8t1.5 -12t3 -11t5 -5q8 0 19.5 18t23.5 40.5t23 43.5t18 26q0 6 4.5 20t10.5 29.5t11.5 29.5t8.5 20q3 27 5.5 42.5t6.5 24t9.5 13t13.5 9.5q4 -4 11 -7t7 -14q0 -23 -1.5 -37t-4 -23t-4.5 -15.5t-2 -13.5
q-15 -48 -27.5 -76t-21.5 -44.5t-14 -24.5t-5 -14q-9 -20 -17 -34t-15.5 -25t-14.5 -21t-14 -21q-5 -5 -10 -13t-13 -16.5t-20 -15.5t-29 -9q-14 0 -18.5 6.5t-12.5 12.5q-3 9 -5 17t-3 17t-1.5 21.5t-0.5 30.5q0 29 2 35.5t2 8.5t-1.5 4t-3.5 2q-5 0 -13 -19.5t-22 -48.5
q-9 -7 -10.5 -11t-2 -10t-4.5 -15t-18 -27q-2 -7 -6 -16.5t-9.5 -17.5t-12.5 -14t-16 -6q-23 0 -27.5 11t-4.5 31q-3 3 -4 7t-1.5 9t-1.5 12t-5 16q0 17 -2 28t-4.5 23t-4.5 28t-2 44q0 3 -3 3q-5 0 -15 -9.5t-21 -20.5t-20 -20.5t-11 -9.5q-7 0 -7 3q0 2 1 5t1 9q0 5 -1 11
t-1 11q0 15 9 29t22 30.5t28 38.5t28 53q3 1 8 8.5t11.5 15.5t16 15t21.5 7q10 0 14.5 -4.5t4.5 -16.5zM398 37q0 7 9.5 19.5t17.5 18.5q8 11 15 17t12.5 11t10 10.5t9.5 15.5q20 13 25 23t10 10q4 0 6 -6t3.5 -13t2.5 -13t3 -6q0 -14 -4.5 -21t-13.5 -13t-21.5 -13.5
t-28.5 -21.5q-17 -8 -27 -17.5t-18 -9.5q-11 0 -11 9z" />
    <glyph glyph-name="x" unicode="x" horiz-adv-x="389" 
d="M360 326q0 -4 -1 -12t-3.5 -17t-6.5 -16t-9 -10q-11 -17 -20.5 -29t-18 -20.5t-16 -15.5t-12.5 -15q-6 -9 -16.5 -18.5t-21 -18.5t-18 -18t-7.5 -16q0 -3 3.5 -10t10 -13.5t16.5 -11.5t23 -5q16 0 26 3t16.5 6t11.5 6t11 3q14 8 25 19t22 26q8 2 12.5 10.5t9.5 8.5t5 -6
q0 -13 -0.5 -26.5t-0.5 -27.5q0 -2 -6.5 -9.5t-16.5 -17t-22.5 -18.5t-25.5 -15q-24 -12 -46 -26.5t-50 -15.5q-19 0 -34.5 10t-27 21.5t-19 21.5t-10.5 10q-7 0 -14 -10t-12 -13q-15 -8 -23.5 -21t-16.5 -15q-12 -4 -19 -10t-13 -6t-13.5 2t-7.5 7q0 7 15.5 22.5t33.5 32
t33.5 31.5t15.5 22q0 2 -4 12.5t-9.5 22t-10.5 21t-7 9.5q-4 0 -12.5 -8t-18.5 -19t-21 -21.5t-20 -15.5q-7 -3 -11.5 -11.5t-12.5 -8.5q-3 0 -4.5 2t-1.5 4t0.5 10.5t1 18t1.5 18t2 9.5q4 7 16.5 15t26 16.5t24 18t10.5 20.5q0 9 -2.5 15t-5.5 12.5t-5.5 15.5t-2.5 24
q0 9 4.5 19.5t11.5 19.5t16 15.5t17 6.5q12 0 18 -12.5t9 -27t6 -27t10 -12.5q5 0 14 7t17.5 15t16 15.5t9.5 7.5q4 1 18 14t30.5 28t33 27.5t27.5 12.5q13 0 22 -6.5t14.5 -16.5t8 -22t2.5 -23zM272 301q0 6 -3 7.5t-12 1.5q-4 0 -7 -3l-7.5 -7.5t-11.5 -10t-19 -9.5
q-11 -14 -20.5 -21.5t-17 -12.5t-11.5 -9t-4 -10q0 -5 2.5 -13.5t5.5 -17t7 -14.5t7 -6t11 6.5t16.5 15.5t16.5 18.5t11 16.5q4 7 10 14t12 15.5t10 17.5t4 21z" />
    <glyph glyph-name="y" unicode="y" 
d="M417 292q0 -12 -4 -25.5t-9 -27t-10 -27.5t-7 -28q0 -3 -6 -17t-13 -31t-12.5 -33t-5.5 -23q0 -4 5 -4q2 0 8.5 9t20.5 23q6 2 15.5 11t19 18.5t19 17t15.5 7.5q5 0 5 -6q0 -2 -0.5 -3t-0.5 -3q0 -4 2.5 -19.5t2.5 -19.5q0 -10 -24 -28.5t-56 -44t-63.5 -56.5t-47.5 -65
q-3 -3 -7 -9.5t-8.5 -15t-9.5 -17t-11 -14.5q-15 -32 -28.5 -46.5t-17.5 -25.5q-3 -2 -8 -8t-10.5 -13t-11 -13t-10.5 -7q-12 -24 -36.5 -43t-53.5 -19q-11 0 -19 4t-8 15t4 19t9.5 15.5t10.5 14t8 14.5q6 1 10 6.5t7 11.5t6 11t8 6q7 12 15.5 24.5t16 23.5t14.5 18.5
t11 8.5q4 8 13.5 20.5t20.5 25.5t22.5 25t19.5 18q5 15 11 31t12 29.5t11 24t9 15.5q0 14 2 22.5t5 17.5t5 20t2 29l-4 4q-20 -17 -36 -26.5t-18 -23.5l-30 -30t-29 -15q-11 -17 -28 -31t-46 -14q-17 0 -25.5 6.5t-8.5 24.5q0 13 3 27q-4 3 -4 15q0 24 -1 32t-5 8
q-2 0 -11 -7t-19 -16t-19 -17t-12 -9l-3 6q2 5 4.5 11t2.5 11q0 6 -1 15t-3 15q0 8 14.5 20t37.5 31q22 23 37.5 40.5t27 29t20 17.5t16.5 6q12 0 22.5 -8t10.5 -21q0 -3 -2.5 -14t-6 -23t-7 -22t-4.5 -11q-3 -17 -8 -32t-5 -33q0 -7 5 -7q4 0 10 2q1 4 7.5 9t15 10t16 10
t12.5 11t15 17.5t15 11.5q19 19 31.5 32.5t20.5 22t12.5 12.5t7.5 5q7 1 13.5 9.5t14.5 18t19.5 17t28.5 7.5t22.5 -5t5.5 -13z" />
    <glyph glyph-name="z" unicode="z" horiz-adv-x="333" 
d="M-11 96q2 5 3 10.5t1 10.5q0 2 -1 7t-1 9t1.5 10t7.5 12q10 10 27 31t34 43t31.5 39.5t19.5 20.5q14 26 25.5 32.5t22.5 6.5q24 0 36.5 -5t25.5 -22q4 -11 9 -18.5t10 -17t8.5 -24.5t3.5 -42q0 -16 -3.5 -27.5t-8 -20.5t-8.5 -15t-5 -10q-2 -6 -8.5 -13.5t-13.5 -16
t-12 -19t-5 -22.5q0 -17 4 -24t8 -7q3 0 9.5 4.5t14 11.5t13 13.5t7.5 11.5q6 3 14.5 14t31.5 31q26 30 35 42.5t12 12.5q2 0 3 -1.5t2 -7.5t1 -18v-33q0 -4 -1.5 -7t-8.5 -10t-20.5 -18.5t-37.5 -31.5q-10 -13 -19.5 -22t-17 -16.5t-12 -14t-4.5 -15.5q5 -6 8 -16t14 -21
q2 -17 5.5 -28.5t3.5 -31.5q0 -32 -8 -49.5t-15 -34.5q-11 -11 -18.5 -26.5t-30.5 -31.5q-15 -15 -27.5 -24t-23.5 -15t-22.5 -11.5t-24.5 -13.5q-16 -2 -28 -2.5t-16 -0.5q-11 3 -19 5.5t-24 19.5q0 6 -1 11t-1 18q0 19 2.5 30t5.5 17.5t6 11t5 11.5q2 6 9.5 17.5t17 24.5
t18.5 25.5t13 20.5q7 4 12.5 10.5t12 16t15 21.5t23.5 27q0 6 -7.5 23.5t-7.5 39.5q0 23 6 42t19 30q1 9 6.5 17.5t11.5 18t10.5 20t4.5 23.5q0 6 -6 15.5t-6 17.5q-6 11 -13.5 19.5t-15.5 8.5q-9 0 -19.5 -9.5t-21 -21.5t-19.5 -22.5t-13 -11.5q-1 -3 -6 -8.5t-11 -11.5
t-11 -10.5t-7 -4.5q-11 -20 -19 -28t-15 -8h-3zM49 -263q0 -13 15 -13q10 0 22 5.5t22.5 13t18.5 15t11 12.5q7 10 14 17.5t19 30.5q0 10 1 15t1 8q0 1 -0.5 10.5t-2 20.5t-4 20t-6.5 9q-6 0 -16 -10t-20 -22.5t-17.5 -24.5t-8.5 -16q-3 -2 -7.5 -7.5t-8.5 -12.5t-8.5 -13
t-7.5 -8q-1 -11 -9 -24t-8 -26z" />
    <glyph glyph-name="braceleft" unicode="{" horiz-adv-x="333" 
d="M56 344q35 1 61.5 31t32.5 74l23 164q8 57 45 84t83 27h63l-8 -60h-40q-34 0 -47.5 -17.5t-15.5 -36.5l-24 -170q-5 -32 -18 -54.5t-28 -36.5t-29.5 -21.5t-21.5 -9.5v-2q6 -2 16.5 -8t21 -17.5t18 -29.5t7.5 -43v-19.5t-2 -20.5l-18 -127q-2 -11 -2.5 -21.5t-0.5 -17.5
q0 -14 10 -28t38 -14h40l-9 -60h-63q-41 0 -68.5 21.5t-27.5 65.5v22.5t2 21.5l17 123q2 16 3 27t1 19q0 32 -18 55.5t-49 24.5z" />
    <glyph glyph-name="bar" unicode="|" horiz-adv-x="426" 
d="M216 12q1 -3 -3 -9t-10.5 -11.5t-14.5 -9.5t-15 -4q-8 0 -17.5 16t-13.5 29q-4 10 -6 27.5t-1.5 34.5t2.5 30t5 15q-1 12 1 24.5t5 26.5t6 32t6 41q2 3 3.5 18.5t4 36t6.5 41t10 32.5q0 6 2.5 22.5t5.5 34t6 33t5 20.5q4 12 4.5 35.5t-0.5 48t-1.5 44.5t1.5 25q2 6 2 15
t-1 18.5t-1 17.5t2 12q3 2 13 5t22 6t23 5.5t16 2.5q6 0 10.5 -2.5t6.5 -4.5q0 -12 3 -29.5t5 -35.5t2.5 -34.5t-5.5 -25.5q3 -13 0.5 -26t-5.5 -20q-3 -13 -4.5 -26t-4 -32t-8 -46t-16.5 -68q-3 -12 -6.5 -33l-7 -42t-7.5 -37.5t-7 -19.5q-1 -1 -3 -11l-5 -25t-7 -33
t-10 -36q1 -11 -1 -27.5l-4 -33t-3 -32t3 -25.5q5 -4 7 -10z" />
    <glyph glyph-name="braceright" unicode="}" horiz-adv-x="333" 
d="M286 290q-35 -1 -61.5 -31t-32.5 -74l-23 -164q-8 -57 -45 -84t-83 -27h-63l8 60h40q34 0 47.5 17.5t15.5 36.5l24 170q4 32 17.5 54.5t28.5 36.5t29.5 21.5t21.5 9.5v2q-6 1 -16.5 7.5t-21 18t-18 29.5t-7.5 43v19.5t2 20.5l18 127q2 11 2.5 21.5t0.5 17.5q0 14 -10 28
t-38 14h-40l9 60h63q41 0 68.5 -21.5t27.5 -65.5v-22.5t-2 -21.5l-17 -123q-2 -16 -3 -27t-1 -19q0 -32 18 -55.5t49 -24.5z" />
    <glyph glyph-name="asciitilde" unicode="~" horiz-adv-x="600" 
d="M569 330q-2 -29 -11 -57t-26 -50t-42.5 -35.5t-61.5 -13.5q-34 0 -67 8.5t-65 19t-62.5 19t-58.5 8.5q-18 0 -30.5 -13.5t-17.5 -44.5h-96q4 29 13 57t26 50t43 35.5t62 13.5q33 0 66 -8.5t65 -18.5t62.5 -18.5t58.5 -8.5q19 0 30.5 12.5t19.5 44.5h92z" />
    <glyph glyph-name="uni00A0" unicode="&#xa0;" horiz-adv-x="500" 
 />
    <glyph glyph-name="exclamdown" unicode="&#xa1;" horiz-adv-x="333" 
d="M30 -295q0 10 3.5 24.5t7 32t7 36.5t3.5 39q0 31 10 64.5t10 77.5q0 9 4.5 26.5t9.5 38.5t10 44t5 45q10 20 13.5 47.5t3.5 49.5q4 7 12 17.5t17 19.5t18.5 15.5t15.5 6.5q3 0 5.5 -2.5t2.5 -13.5q0 -7 -2.5 -25t-2.5 -31q0 -4 2 -8t2 -14q0 -16 -2.5 -29t-8.5 -30
q0 -29 -1.5 -46.5t-4 -31t-4 -27t-1.5 -34.5q-2 -1 -4 -8t-4 -17.5t-3.5 -23.5t-1.5 -26q0 -5 0.5 -11.5t2.5 -10.5q13 0 15 -3t2 -8q0 -6 -2 -18t-5 -27t-5 -31t-2 -31q-4 -27 -11.5 -42t-31.5 -20q-14 -14 -33 -29t-34 -15q-11 0 -14.5 4.5t-3.5 24.5zM118 358q0 8 2 15.5
t2 20.5v14q0 15 24 15q6 0 11 1t11 2.5t15 2.5t24 1q3 0 6 -6t5.5 -14.5t3.5 -16t1 -10.5q-2 -5 -9 -14t-15.5 -18t-17 -16t-14.5 -7q-3 0 -7.5 0.5t-9.5 1.5q-17 1 -24.5 6.5t-7.5 21.5z" />
    <glyph glyph-name="cent" unicode="&#xa2;" horiz-adv-x="464" 
d="M246 364q5 0 5 -4q0 -1 -2 -8.5t-5 -17t-5 -19t-2 -15.5q0 -5 4 -5q3 3 9.5 8.5t20.5 12.5q5 0 11 5.5t13 5.5q6 0 10.5 3.5t14.5 3.5q17 0 20.5 -6t3.5 -17q0 -21 -0.5 -28t-5.5 -12q-10 -8 -13 -13t-10 -5q-5 -10 -21 -19.5t-32 -18.5q-3 -7 -15 -15.5t-19 -12.5
q-3 -11 -5 -25t-3.5 -26t-3 -20.5t-3.5 -9.5q1 -5 1 -13q0 -12 -2.5 -21.5t-2.5 -33.5q8 0 20 3t24 7.5t22 10.5t16 12q14 0 23 4t16.5 9t14 9t15.5 4q8 0 8 -8t-6.5 -17.5t-14 -18.5t-15 -15.5t-8.5 -9.5q-11 -4 -24.5 -13l-28.5 -19t-31 -18.5t-32 -11.5q-5 -1 -7.5 -8
t-2.5 -30q0 -6 -6.5 -15t-11.5 -9q-8 0 -10.5 7.5t-2.5 13.5q0 5 1.5 12.5t1.5 26.5q-14 0 -34 2t-29 11t-18 15.5t-16 14t-11.5 18t-4.5 28.5q0 20 -4.5 25.5t-4.5 10.5q0 16 6 30t14.5 25.5t16.5 20.5t12 15q22 31 48.5 48.5t42.5 31.5q2 29 4 43t6 18q0 33 8 36
q1 0 7 1.5t12.5 2.5t12.5 2t8 1zM148 89q0 -20 6 -30t23 -20q2 30 3.5 40t5.5 17q0 4 -1 10t-3 11q2 6 3 18t1 21q-6 0 -9 -5q-2 -5 -7 -8.5t-10 -9.5t-8.5 -16t-3.5 -28z" />
    <glyph glyph-name="sterling" unicode="&#xa3;" horiz-adv-x="537" 
d="M346 700q12 0 20 -12.5t13 -29t7 -33t2 -25.5q0 -6 -1 -10.5t-1 -9.5q0 -18 -0.5 -27t-0.5 -15q0 -8 2.5 -19.5t2.5 -31.5q7 -13 12 -18t5 -9q0 -6 -8 -15t-18 -17t-20.5 -13.5t-14.5 -5.5q-8 0 -12 6.5t-4 14.5t1.5 17t1.5 11q-2 10 -2 12q0 28 1 37.5t1 14.5
q0 9 -1 14.5t-1 12.5q0 26 -1.5 32.5t-6.5 6.5q-6 0 -8.5 -7.5t-4.5 -20t-4.5 -28t-9.5 -31.5q-2 -18 -7 -37.5t-10.5 -38.5t-10 -36.5t-4.5 -31.5q0 -2 2 -5t11 -3q5 0 17 1t27 4q12 0 21.5 1t23.5 3q35 1 53 3.5t26 2.5q3 0 3.5 -4.5t0.5 -6.5q0 -10 -5.5 -17.5t-13 -13
t-14.5 -10t-10 -7.5q-3 -5 -16.5 -7t-34.5 -5t-48.5 -7t-58.5 -12q-5 -2 -9.5 -17t-8 -34t-7.5 -35t-8 -19q-2 -16 -11 -34.5t-9 -41.5q10 -12 24 -22t28.5 -17.5t27.5 -11.5t21 -4q21 0 33 1.5t20 4.5t13 7t13 9q12 7 25.5 25.5t37.5 38.5q5 5 12.5 16.5t15.5 23t16 20.5
t15 9q5 0 5 -5q0 -6 -2.5 -10.5t-6 -12.5t-7 -20.5t-5.5 -33.5q-14 -15 -27 -34.5t-28 -39t-32 -36t-37 -24.5q-7 -5 -15.5 -6.5t-17.5 -3.5q-8 0 -18.5 -1.5t-15.5 -1.5q-30 0 -55.5 9t-45 19.5t-32 19.5t-16.5 9q-6 0 -11 -4t-9.5 -9.5t-9.5 -9.5t-12 -4q-9 0 -15 3.5
t-11.5 9t-12 11t-16.5 8.5q-2 8 -13 22.5t-23 30t-22 31t-10 26.5q0 5 4 14.5t10 18.5t13 16t12 7q6 0 14.5 -3t16.5 -7.5t14.5 -9t8.5 -6.5q1 -2 8.5 -6.5t16.5 -9.5t18 -9t12 -4q7 0 10 5t6 12t7 15.5t12 16.5q0 21 5 39t5 38q-21 0 -35.5 -2t-23.5 -4t-14 -4t-9 -2
q-17 -1 -33 -4.5t-24 -3.5q-3 0 -6.5 3t-3.5 8q0 6 3 16.5t6.5 21t7.5 19.5t7 12t13 6t21.5 5t22 3.5t15.5 1.5q4 -10 11 -10q4 0 13.5 0.5t20 2t19 5t10.5 8.5q3 11 6.5 27.5t5.5 42.5q3 6 5.5 18.5t5 25.5t5.5 24.5t6 16.5q0 9 4 27.5t9 38.5t10.5 36.5t8.5 19.5
q8 33 14 38q2 1 11 7.5t21 8.5q3 3 9.5 7.5t13 8t12.5 6t9 2.5z" />
    <glyph glyph-name="currency" unicode="&#xa4;" horiz-adv-x="600" 
d="M417 344q0 27 -9 50.5t-25 41t-37.5 27.5t-45.5 10q-25 0 -46.5 -10t-37 -27.5t-24.5 -41t-9 -50.5t9 -50.5t25 -41t37.5 -27.5t45.5 -10t45.5 10t37.5 27.5t25 41t9 50.5zM477 99l-63 65q-26 -18 -54 -27.5t-60 -9.5t-60 9.5t-55 26.5l-62 -64l-58 62l61 65
q-17 27 -27.5 55.5t-10.5 62.5q0 33 10.5 62t27.5 57l-62 64l59 63l63 -65q52 36 114 36q61 0 115 -36l62 64l58 -62l-61 -64q17 -27 27.5 -56.5t10.5 -62.5t-10.5 -62.5t-27.5 -55.5l62 -65z" />
    <glyph glyph-name="yen" unicode="&#xa5;" horiz-adv-x="464" 
d="M97 -13q0 4 3 17.5t7.5 28t8.5 26t7 12.5q2 1 3 6.5t2.5 12t3 13.5t4.5 10q-47 0 -69 -6.5t-29 -7.5q-13 -1 -29.5 -3.5t-21.5 -2.5q-4 0 -7.5 2.5t-3.5 6.5q0 5 3.5 15.5t11 21.5t19.5 19.5t29 8.5q21 0 30 -1.5t16 -1.5q20 0 43.5 6t33.5 7q2 6 4 21.5t4 45.5
q0 3 -1.5 6t-5.5 3q-45 0 -66.5 -6.5t-28.5 -7.5q-13 -1 -29.5 -3.5t-21.5 -2.5q-4 0 -7.5 2.5t-3.5 6.5q0 5 3.5 15.5t11 21.5t19.5 19.5t29 8.5q14 0 21.5 -1.5t14.5 -1.5q4 0 13 1t17 4q-14 31 -25 50t-18.5 30.5t-12 18t-4.5 12.5q0 8 -4.5 20.5t-10.5 29t-11 37
t-5 44.5q-2 1 -3.5 3.5t-2.5 10.5t-2.5 22.5t-2.5 40.5q13 25 21.5 30t22.5 5q6 0 16.5 6.5t17.5 6.5q2 0 8 -4.5t12 -10t10.5 -11.5t4.5 -9q0 -25 -2 -50t-2 -54q1 -29 7 -55.5t13 -49t12 -41.5t5 -32q0 -11 9.5 -24.5t20.5 -13.5q5 0 12 11t15 23.5t16 23.5t14 11l11 22
t18 33.5t18.5 32t12.5 16.5q3 12 8.5 22t13 22.5t17.5 31.5t22 51q13 18 21.5 32.5t15 25t11.5 16t12 5.5q4 0 7.5 -7t8.5 -10q0 -38 -1 -60t-9 -23q-5 -27 -12.5 -46t-15 -32t-13 -20t-5.5 -11q0 -17 -12 -36.5t-28.5 -40.5t-34 -42.5t-28.5 -41.5q16 0 25 2t16 5t15 6
t23 5q26 1 40.5 3.5t23.5 2.5q3 0 4 -3.5t1 -7.5q0 -9 -6.5 -17t-14.5 -14t-16 -10.5t-11 -7.5q0 -5 -11.5 -7t-30 -4t-41.5 -4.5t-46 -7.5q-4 -13 -14 -31t-16 -52l9 2q8 0 12 -0.5t7 -0.5q16 0 25 2t16 5t15 6t23 5q26 1 40.5 3.5t23.5 2.5q3 0 4 -3.5t1 -7.5
q0 -9 -6.5 -17t-14.5 -14t-16 -10.5t-11 -7.5q0 -5 -22.5 -8t-50 -6t-51 -6.5t-25.5 -8.5q-2 -4 -5.5 -13.5t-8 -22t-7.5 -27t-3 -27.5q0 -9 6.5 -13t6.5 -12q0 -6 -9 -13.5t-20.5 -14.5t-22.5 -12t-16 -5t-13.5 1t-16 3t-13 6.5t-5.5 12.5z" />
    <glyph glyph-name="brokenbar" unicode="&#xa6;" horiz-adv-x="268" 
d="M87 -42v250h95v-250h-95zM87 458v250h95v-250h-95z" />
    <glyph glyph-name="section" unicode="&#xa7;" horiz-adv-x="536" 
d="M349 322q0 19 -13.5 32.5t-32.5 23.5t-39.5 17.5t-35.5 13.5q-20 -14 -30 -28t-10 -37q0 -16 12 -29t30 -23t38.5 -18t37.5 -13q20 8 31.5 23t11.5 38zM456 344q0 -52 -27 -82t-66 -41q23 -17 36.5 -41.5t13.5 -53.5q0 -35 -14 -60.5t-38.5 -42.5t-57.5 -25.5t-70 -8.5
q-29 0 -65.5 4.5t-66.5 18.5l26 87q23 -15 49.5 -20t47.5 -5q32 0 50 12.5t18 40.5q0 19 -15.5 32t-39 23.5t-51 21.5t-51 27t-39 39t-15.5 58q0 23 8 41.5t20.5 32.5t28.5 24t33 17q-20 13 -35.5 35.5t-15.5 58.5q0 33 13.5 57t36 40.5t53 24.5t64.5 8q32 0 62 -5t60 -14
l-25 -82q-23 9 -48.5 13t-48.5 4q-50 0 -50 -47q0 -17 16 -29t40.5 -22.5t53 -21.5t53 -26.5t40.5 -37.5t16 -55z" />
    <glyph glyph-name="dieresis" unicode="&#xa8;" horiz-adv-x="278" 
d="M14 487q0 8 5.5 13.5t10.5 15.5q5 8 17 15t19 7q12 0 20.5 -3.5t14.5 -7.5q9 0 12 -6t3 -29q0 -12 -3 -17t-8.5 -8t-12 -6.5t-12.5 -12.5q-2 2 -8 2.5t-14 0.5q-8 -2 -11.5 -2.5t-5.5 -0.5q-18 10 -22.5 18.5t-4.5 20.5zM161 487q0 8 5.5 13.5t10.5 15.5q5 8 17 15t19 7
q12 0 20.5 -3.5t14.5 -7.5q9 0 12 -6t3 -29q0 -12 -3 -17t-8.5 -8t-12 -6.5t-12.5 -12.5q-2 2 -8 2.5t-14 0.5q-8 -2 -11.5 -2.5t-5.5 -0.5q-18 10 -22.5 18.5t-4.5 20.5z" />
    <glyph glyph-name="copyright" unicode="&#xa9;" horiz-adv-x="800" 
d="M47 329q0 73 27.5 137.5t75.5 112.5t112.5 75.5t137.5 27.5t137.5 -27.5t112.5 -75.5t75.5 -112.5t27.5 -137.5t-27.5 -137.5t-75.5 -112.5t-112.5 -75.5t-137.5 -27.5t-137.5 27.5t-112.5 75.5t-75.5 112.5t-27.5 137.5zM121 329q0 -59 22 -111.5t60 -91.5t88.5 -61.5
t108.5 -22.5t108.5 22.5t88.5 61.5t60 91.5t22 111.5t-22 111.5t-60 91.5t-88.5 61.5t-108.5 22.5t-108.5 -22.5t-88.5 -61.5t-60 -91.5t-22 -111.5zM202 329q0 47 14.5 87t41 69t65 45t86.5 16q67 0 116.5 -37t59.5 -109h-63q-8 38 -38 62t-74 24q-33 0 -58 -12t-42 -33
t-25.5 -49.5t-8.5 -62.5q0 -30 9.5 -58.5t27 -50t42.5 -34.5t57 -13q45 0 74.5 25.5t35.5 65.5h64q-14 -70 -61.5 -110.5t-112.5 -40.5q-48 0 -86.5 16.5t-66 46t-42.5 69t-15 84.5z" />
    <glyph glyph-name="ordfeminine" unicode="&#xaa;" horiz-adv-x="265" 
d="M232 724q17 0 21.5 -4.5t9.5 -8.5q-2 -11 -9 -19t-18 -11q-7 -12 -16 -17.5t-19 -15.5q-5 -8 -23 -20q-7 -7 -14 -13.5t-13 -8.5q-5 -9 -17.5 -19t-22.5 -21q-1 -5 -4 -7.5t-3 -9.5q14 0 22 7.5t20 13.5q2 5 12.5 15t24.5 15q8 11 19 18t18 14q7 1 12.5 1.5t9.5 0.5
q8 0 7.5 -11.5t4.5 -23.5q0 -5 -1.5 -9t-1.5 -12q0 -10 6.5 -18.5t17.5 -8.5q9 0 12 3.5t7 3.5q5 6 8 8t5 4l2 -1q0 -6 0.5 -11t0.5 -7t-1 -4t-1 -4t1 -4t1 -5q0 -5 -6 -7.5t-11 -8.5q-16 -10 -23.5 -13.5t-26.5 -3.5q-11 0 -21 6t-14 14q-4 3 -5.5 9t-2 13t-1.5 12t-4 5
q-4 0 -13.5 -8t-12.5 -13q-4 -1 -15 -11t-26 -22t-33 -21.5t-36 -9.5q-5 0 -12.5 4t-10.5 6q-4 9 -4.5 13t-0.5 6q0 7 2.5 13t4.5 11v7.5t1 13.5q1 6 5 13.5t9 15t9.5 13.5t6.5 11q5 11 14 21.5t19 15.5q1 4 5.5 8t13 9t20.5 14t30 24q17 10 30.5 20t30.5 10z" />
    <glyph glyph-name="guillemotleft" unicode="&#xab;" horiz-adv-x="630" 
d="M114 161q0 27 10.5 45t23 30.5t23.5 21t12 14.5q7 4 15 11t15.5 14.5t15 13.5t12.5 8q2 1 8.5 8.5t16.5 16.5t23.5 16.5t30.5 7.5q14 0 21.5 -6.5t7.5 -14.5q0 -11 -13 -18.5t-23 -18.5q-8 -9 -21.5 -20.5t-25.5 -13.5q-12 -20 -24 -33t-21.5 -23.5t-15 -21.5t-5.5 -27
q0 -15 2.5 -25t6 -17t7 -12.5t4.5 -11.5q11 -18 24.5 -39t13.5 -29q0 -4 -6.5 -8t-16 -7.5t-19 -5.5t-15.5 -2q-10 0 -17.5 7t-13.5 16.5t-12 20t-14 17.5q-3 12 -7.5 21.5t-9.5 19.5q-1 11 -7 22.5t-6 22.5zM281 161q0 27 10.5 45t23 30.5t23.5 21t12 14.5q7 4 15 11
t15.5 14.5t15 13.5t12.5 8q2 1 8.5 8.5t16.5 16.5t23.5 16.5t30.5 7.5q14 0 21.5 -6.5t7.5 -14.5q0 -11 -13 -18.5t-23 -18.5q-8 -9 -21.5 -20.5t-25.5 -13.5q-12 -20 -24 -33t-21.5 -23.5t-15 -21.5t-5.5 -27q0 -15 2.5 -25t6 -17t7 -12.5t4.5 -11.5q11 -18 24.5 -39
t13.5 -29q0 -4 -6.5 -8t-16 -7.5t-19 -5.5t-15.5 -2q-10 0 -17.5 7t-13.5 16.5t-12 20t-14 17.5q-3 12 -7.5 21.5t-9.5 19.5q-1 11 -7 22.5t-6 22.5z" />
    <glyph glyph-name="logicalnot" unicode="&#xac;" horiz-adv-x="600" 
d="M455 106v187h-410v93h510v-280h-100z" />
    <glyph glyph-name="uni00AD" unicode="&#xad;" horiz-adv-x="315" 
d="M251 226q0 -22 -13 -31t-32 -9q-14 0 -26 6q-2 -2 -10.5 -3.5t-19 -3t-21.5 -2.5t-18 -1q-14 0 -29 2.5t-29 2.5q-5 0 -10.5 -1t-10.5 -1q-9 0 -18.5 2.5t-9.5 13.5q0 8 4.5 10.5t6.5 13.5q7 1 11 7t7.5 12.5t7 11.5t9.5 5q10 0 22 -1t18 -1q5 0 16 1.5t15 1.5
q14 0 27.5 -1t42.5 -1q17 0 27.5 1t13.5 1q11 0 15 -11.5t4 -24.5z" />
    <glyph glyph-name="registered" unicode="&#xae;" horiz-adv-x="800" 
d="M47 329q0 73 27.5 137.5t75.5 112.5t112.5 75.5t137.5 27.5t137.5 -27.5t112.5 -75.5t75.5 -112.5t27.5 -137.5t-27.5 -137.5t-75.5 -112.5t-112.5 -75.5t-137.5 -27.5t-137.5 27.5t-112.5 75.5t-75.5 112.5t-27.5 137.5zM121 329q0 -59 22 -111.5t60 -91.5t88.5 -61.5
t108.5 -22.5t108.5 22.5t88.5 61.5t60 91.5t22 111.5t-22 111.5t-60 91.5t-88.5 61.5t-108.5 22.5t-108.5 -22.5t-88.5 -61.5t-60 -91.5t-22 -111.5zM266 533h153q72 0 107 -28t35 -88q0 -55 -29.5 -80.5t-74.5 -31.5l114 -180h-68l-107 178h-64v-178h-66v408zM332 357h64
q19 0 37 1.5t32 7.5t22 19t8 36q0 19 -8 30.5t-20.5 17.5t-28 8t-31.5 2h-75v-122z" />
    <glyph glyph-name="macron" unicode="&#xaf;" horiz-adv-x="278" 
d="M-22 476q0 2 3.5 10t9.5 16.5t13 15.5t14 7q26 0 49 -1t45 -1q29 0 47.5 3t40.5 3q11 0 22 -1t22 -1q10 0 20 1t20 1q5 0 8.5 -6.5t8.5 -32.5q0 -6 -2 -10.5t-9.5 -7t-22.5 -3.5t-40 -1q-11 0 -21 1.5t-18 1.5q-10 0 -23.5 -4t-36.5 -4t-48.5 3t-52.5 3q-15 0 -30 -3
q-6 3 -12.5 3.5t-6.5 6.5z" />
    <glyph glyph-name="degree" unicode="&#xb0;" horiz-adv-x="400" 
d="M286 530q0 19 -7 36.5t-18.5 30t-27 20t-33.5 7.5t-33.5 -7.5t-27 -20t-18.5 -30t-7 -36.5q0 -20 7 -37t18.5 -29.5t27 -20t33.5 -7.5t33.5 7.5t27 20t18.5 29.5t7 37zM350 530q0 -31 -12 -58t-32 -47t-47.5 -31.5t-58.5 -11.5q-32 0 -59 11.5t-47.5 31.5t-32 47
t-11.5 58t12 58t32 47t47.5 31.5t58.5 11.5t58.5 -11.5t48 -31.5t32 -47t11.5 -58z" />
    <glyph glyph-name="plusminus" unicode="&#xb1;" horiz-adv-x="600" 
d="M45 0v95h510v-95h-510zM351 265v-132h-102v132h-204v95h204v132h102v-132h204v-95h-204z" />
    <glyph glyph-name="uni00B2" unicode="&#xb2;" horiz-adv-x="289" 
d="M274 609q0 -25 -7.5 -45t-17 -35.5t-18.5 -27t-12 -20.5q-13 -11 -20.5 -25t-19.5 -27q-8 -14 -15.5 -24t-13.5 -17t-11 -12t-8 -11q-7 -12 -14.5 -20t-7.5 -16q0 -2 6.5 -3.5t15 -2.5t16 -1.5t10.5 -0.5h25.5t23.5 1q4 -1 9.5 -1h10.5q10 2 16.5 2.5t21.5 0.5q2 0 6 1.5
t10 1.5q2 0 5.5 -0.5t8.5 -3.5q0 -14 -3.5 -25.5t-16.5 -12.5q-2 -3 -5 -6t-9 -5.5t-16.5 -4t-27.5 -2.5q-3 -3 -10.5 -5t-15.5 -3.5t-16 -2.5t-12 -2q-9 -2 -32.5 -2.5t-49.5 -0.5q-17 0 -25.5 3t-19.5 5t-17 7.5t-9 11.5t-3.5 12t-0.5 8q0 5 6.5 16.5t8.5 16.5
q8 7 12.5 13.5t10 14t14.5 18t26 27.5q4 8 15 22t24 29t23.5 28t12.5 18q1 4 5.5 10.5t10 13.5t9.5 13t4 9q0 1 6.5 11.5t6.5 19.5q0 12 -5.5 19t-13.5 10.5t-17.5 5.5t-16.5 5q-2 2 -6.5 2h-11.5q-25 0 -40.5 -1.5t-25.5 -9.5q-2 -5 -7.5 -10.5t-7.5 -25.5q-7 -8 -9 -10
t-4 -2q-6 0 -10.5 6t-7.5 14t-5 16.5t-2 13.5q0 21 1 29t5 18q5 10 11 15.5t12 8.5t10.5 5t7.5 5q10 2 22.5 5t38.5 3q44 0 65 -5t29 -5q6 -5 20.5 -11.5t27.5 -21.5q5 -14 9.5 -21.5t4.5 -26.5z" />
    <glyph glyph-name="uni00B3" unicode="&#xb3;" horiz-adv-x="277" 
d="M65 455q0 11 7 22t17 22.5t22 25t23 30.5q13 13 15 18t10 12q10 20 20 30q0 3 -5.5 5.5t-19.5 2.5q-29 -3 -39 -3t-17 -4q-32 -4 -45.5 -10.5t-20.5 -6.5q-8 2 -10 5.5t-2 10.5q0 13 2.5 19t5.5 10q3 18 11 27t19.5 13t26 5.5t30.5 6.5q8 0 17.5 1l28.5 3q28 0 44 -1.5
t24.5 -3t11 -2.5t4.5 -1q5 -1 15.5 -11.5t10.5 -23.5q0 -11 -4.5 -19t-6.5 -15q-3 -7 -12.5 -18.5t-20 -23.5t-18.5 -22.5t-9 -13.5q-6 -6 -13.5 -16t-15 -19.5t-12.5 -18.5t-5 -14q14 -9 27.5 -14.5t26 -10t25 -10t25.5 -16.5q5 -9 10.5 -15.5t5.5 -28.5q0 -13 -13.5 -28
t-30.5 -28t-31.5 -21.5t-17.5 -8.5q-7 -5 -12 -7.5l-11 -5.5t-14 -7.5t-20 -11.5q-27 -5 -34 -9t-11 -4q-19 0 -28 0.5t-15 2.5q-1 0 -6 -1.5t-15 -1.5q-9 0 -15 4.5t-5 12.5q1 6 8.5 11.5t18 10.5l21 10t16.5 11q14 9 19 11t11 4q6 5 22 14.5t33.5 20t30.5 20.5t13 16
q0 4 -9 6.5t-22 5.5t-28 6.5t-27 10.5q-23 5 -30 11.5t-7 17.5z" />
    <glyph glyph-name="acute" unicode="&#xb4;" horiz-adv-x="278" 
d="M209 592q12 0 23.5 -3t19.5 -14q2 -2 2 -26q-6 -7 -10 -13t-8 -17q-27 -9 -47.5 -23.5t-31.5 -16.5q-5 -1 -13.5 -6t-17.5 -10q-7 -4 -17.5 -7.5t-22 -7t-22.5 -6.5t-18 -6q-5 2 -13.5 6t-8.5 17q16 9 27 13.5t21.5 8.5t21.5 9t27 16q29 20 45.5 36t25 27t11.5 17t6 6z
" />
    <glyph glyph-name="uni00B5" unicode="&#xb5;" horiz-adv-x="536" 
d="M355 0l-9 65q-14 -35 -38 -54.5t-52 -19.5q-18 0 -33.5 5.5t-26.5 22.5v-217h-119v690h119v-336q0 -32 15 -54.5t53 -22.5q21 0 35.5 9t23.5 24t13.5 33.5t4.5 37.5v309h119v-492h-105z" />
    <glyph glyph-name="paragraph" unicode="&#xb6;" horiz-adv-x="671" 
d="M470 -218v801h-118v-801h-103v531q-39 0 -75 11.5t-64 33t-45 54t-17 74.5q0 51 17.5 85.5t47.5 55.5t70 30.5t85 9.5h305v-885h-103z" />
    <glyph glyph-name="periodcentered" unicode="&#xb7;" horiz-adv-x="232" 
d="M42 259q0 23 17 40t40 17t40 -17t17 -40t-17 -40t-40 -17t-40 17t-17 40z" />
    <glyph glyph-name="cedilla" unicode="&#xb8;" horiz-adv-x="278" 
d="M211 2q0 -9 -13 -25q-6 -29 -15 -50.5t-17 -39t-15 -33t-10 -33.5q-14 -20 -20 -35t-9.5 -24.5t-5.5 -14.5t-7 -5q-6 0 -19.5 5t-13.5 17q0 26 10.5 43.5t12.5 30.5q1 6 4.5 15.5t8.5 17.5q4 7 9 20t9.5 27t9 27.5t8.5 21.5q4 5 8 13.5t9.5 16t14 13t21.5 4.5
q14 -1 17 -4t3 -8z" />
    <glyph glyph-name="uni00B9" unicode="&#xb9;" horiz-adv-x="240" 
d="M5 500q0 10 1.5 22.5t5.5 14.5q13 16 22.5 25.5t17 15.5t13 11t10.5 12q2 1 7.5 6t11.5 11t12.5 12t11.5 9q8 12 15 16t17 15q3 3 9.5 8t15.5 10t20.5 8.5t23.5 3.5q6 0 19.5 -6t18.5 -17q0 -2 0.5 -4.5t0.5 -4.5q0 -18 -5 -34t-6 -37q-1 -4 -3 -13.5t-4 -20.5t-4.5 -22
t-5.5 -17q-4 -18 -7.5 -29t-7 -19.5t-6.5 -18t-6 -24.5q-6 -14 -9 -31.5t-11 -31.5q-11 -35 -16.5 -48t-11.5 -19q-2 -8 -9.5 -17.5t-17.5 -17t-19.5 -12.5t-13.5 -5q-14 0 -19 2t-5 7q0 10 9.5 30t13.5 43q9 14 9 22.5t6 25.5q1 3 3 4t2 6q3 16 7 31l8 30t8.5 32.5
t7.5 40.5q2 19 5 31t3 35q0 5 -4 5q-5 0 -14 -8.5t-30 -18.5q-5 -8 -12.5 -11.5t-14.5 -12.5q-18 -12 -29 -21.5t-17.5 -16t-11 -9.5t-8.5 -3q-7 0 -7 5z" />
    <glyph glyph-name="ordmasculine" unicode="&#xba;" horiz-adv-x="265" 
d="M276 634q0 -23 -4 -37t-9.5 -23t-10.5 -15t-8 -13q-12 -10 -15.5 -14t-4.5 -6.5t-3 -4.5t-11 -7q-8 -14 -23 -21t-19 -9q-6 -5 -18.5 -6t-17.5 -3q-33 2 -40.5 4t-9.5 7q-12 5 -17.5 17t-5.5 36q0 20 7.5 46.5t24.5 44.5q6 8 8.5 16.5t10.5 9.5q6 5 13.5 12.5l14.5 14.5
t12.5 12t7.5 5q15 0 20.5 -3t5.5 -8q0 -2 -4 -5.5t-4 -10.5q8 1 17.5 5t29.5 4q14 0 21.5 -2t11.5 -5t6.5 -6t5.5 -5q2 -7 5 -12.5t3 -17.5zM119 539q0 -16 19 -16q4 0 12 3.5t17 8t16 10t10 10.5q5 2 9 7t4 10q0 6 5 10.5t5 16.5q0 8 -4.5 15.5t-16.5 7.5q-13 0 -19.5 -5
t-11.5 -11t-9.5 -11t-13.5 -5q-1 0 -4.5 -4.5t-7.5 -12t-7 -16.5t-3 -18z" />
    <glyph glyph-name="guillemotright" unicode="&#xbb;" horiz-adv-x="630" 
d="M476 221q0 -27 -10.5 -45t-23 -30.5t-23.5 -21t-12 -14.5q-7 -4 -15 -11t-15.5 -14.5t-15 -13.5t-12.5 -8q-2 -1 -8.5 -8.5t-16.5 -16.5t-23.5 -16.5t-30.5 -7.5q-14 0 -21.5 6.5t-7.5 14.5q0 11 13 18.5t23 18.5q8 9 21.5 20.5t25.5 13.5q12 20 24 33t21.5 23.5t15 21.5
t5.5 27q0 15 -2.5 25t-6 17t-7 12.5t-4.5 11.5q-11 18 -24.5 39t-13.5 29q0 4 6.5 8t16 7.5t19 5.5t15.5 2q10 0 17.5 -7t13.5 -16.5t12 -20t14 -17.5q3 -12 7.5 -21.5t9.5 -19.5q1 -11 7 -22.5t6 -22.5zM309 221q0 -27 -10.5 -45t-23 -30.5t-23.5 -21t-12 -14.5
q-7 -4 -15 -11t-15.5 -14.5t-15 -13.5t-12.5 -8q-2 -1 -8.5 -8.5t-16.5 -16.5t-23.5 -16.5t-30.5 -7.5q-14 0 -21.5 6.5t-7.5 14.5q0 11 13 18.5t23 18.5q8 9 21.5 20.5t25.5 13.5q12 20 24 33t21.5 23.5t15 21.5t5.5 27q0 15 -2.5 25t-6 17t-7 12.5t-4.5 11.5
q-11 18 -24.5 39t-13.5 29q0 4 6.5 8t16 7.5t19 5.5t15.5 2q10 0 17.5 -7t13.5 -16.5t12 -20t14 -17.5q3 -12 7.5 -21.5t9.5 -19.5q1 -11 7 -22.5t6 -22.5z" />
    <glyph glyph-name="onequarter" unicode="&#xbc;" horiz-adv-x="697" 
d="M126 40q-1 -3 -12.5 -9t-25.5 -11t-28 -9t-21 -4q-8 0 -6 15.5t6 27.5q3 10 13 26.5t21.5 32.5t22 28.5t15.5 14.5q16 24 41 49.5t62 69.5q4 3 16 18t28.5 34.5t34 38.5t32.5 31q4 6 17 21.5t28 32.5t28.5 31.5t18.5 19.5q12 12 28.5 34.5t32 45.5t28.5 42.5t19 24.5
q5 5 11 13.5t12 17.5t11.5 17t10.5 12q4 2 16 5t26 6t26.5 5t17.5 2q14 0 12 -7q-8 -11 -16.5 -28t-18.5 -34t-21 -33t-23 -25q-6 -12 -17 -24.5t-19 -18.5q-12 -12 -19 -25t-19 -31t-32.5 -44t-58.5 -65q-11 -11 -29 -31t-36 -40.5t-33 -36t-20 -18.5q-2 -1 -10.5 -10.5
t-21.5 -23.5t-29.5 -31.5t-34.5 -34.5q-6 -11 -19 -26.5t-26.5 -31.5t-24.5 -31t-14 -24q2 -2 1 -4.5t-1 -4.5zM35 500q0 10 1.5 22.5t5.5 14.5q13 16 22.5 25.5t17 15.5t13 11t10.5 12q2 1 7.5 6t11.5 11t12.5 12t11.5 9q8 12 15 16t17 15q3 3 9.5 8t15.5 10t20.5 8.5
t23.5 3.5q6 0 19.5 -6t18.5 -17q0 -2 0.5 -4.5t0.5 -4.5q0 -18 -5 -34t-6 -37q-1 -4 -3 -13.5t-4 -20.5t-4.5 -22t-5.5 -17q0 -2 -2.5 -10.5t-6 -21t-8 -26.5t-10.5 -26q-11 -35 -16.5 -48t-11.5 -19q-2 -8 -9.5 -17.5t-17.5 -17t-19.5 -12.5t-13.5 -5q-14 0 -19 2t-5 7
q0 10 9.5 30t13.5 43q9 14 9 22.5t6 25.5q1 3 3 4t2 6q3 16 4 20l1.5 6t1.5 8.5t4 29.5q2 19 5 31t3 35q0 5 -4 5q-5 0 -14 -8.5t-30 -18.5q-5 -8 -12.5 -11.5t-14.5 -12.5q-18 -12 -29 -21.5t-17.5 -16t-11 -9.5t-8.5 -3q-7 0 -7 5zM624 214q0 -6 -3 -9q0 -7 -4 -16t-5 -17
q-1 -4 -4 -10t-5 -19q-4 -5 -7 -13t-3 -13q0 -3 5 -3q14 0 21 4.5t21 6.5q5 -2 5.5 -11t0.5 -17q0 -2 -4.5 -4.5t-7.5 -2.5q-9 -10 -23.5 -14t-28.5 -14q-2 -1 -4 -7t-4.5 -13t-4.5 -13.5t-3 -8.5q0 -8 -2.5 -6.5t-2.5 -6.5q-5 -5 -18 -6.5t-17 -4.5q-2 -1 -5.5 -4t-7.5 -3
q-8 0 -8 10q0 13 3 25.5t6 12.5q0 9 1 10.5t1 8.5q0 4 -2 5.5t-12 1.5q-2 0 -1.5 -0.5t-1 -0.5t-7.5 -0.5t-21 -0.5q-6 3 -15 4t-17.5 5t-14 12.5t-5.5 25.5q0 18 1 29t2 18t2 12t1 11q4 13 6 24.5t5 16.5q1 8 5 20t8.5 24t8.5 22t4 13q-2 1 -6 5q7 21 12.5 28.5t6.5 13.5
q8 5 23.5 12t29.5 9q4 4 14 4q13 0 13 -9t-3.5 -14t-8.5 -17q-2 -7 -3.5 -8.5t-2.5 -4.5t-4.5 -10.5t-7.5 -16.5t-7.5 -17t-3.5 -11q-2 -2 -7 -14.5t-11 -28t-11 -28.5t-7 -16q0 -7 -1 -11l-2 -8t-2 -9t-1 -12q0 -6 -3 -10t11 -9q6 0 9 -1t5 -2t6 -2t13 -1q4 0 8.5 0.5
t7.5 0.5l4 2q1 9 2 12t1.5 5t1.5 5t1 13q6 12 7 29t9 44q3 5 6 6.5t9 2.5q2 3 10.5 3.5t10.5 0.5q7 0 10 -2.5t8 -3.5q8 -3 11.5 -5.5t3.5 -8.5z" />
    <glyph glyph-name="onehalf" unicode="&#xbd;" horiz-adv-x="697" 
d="M126 40q-1 -3 -12.5 -9t-25.5 -11t-28 -9t-21 -4q-8 0 -6 15.5t6 27.5q3 10 13 26.5t21.5 32.5t22 28.5t15.5 14.5q16 24 41 49.5t62 69.5q4 3 16 18t28.5 34.5t34 38.5t32.5 31q4 6 17 21.5t28 32.5t28.5 31.5t18.5 19.5q12 12 28.5 34.5t32 45.5t28.5 42.5t19 24.5
q5 5 11 13.5t12 17.5t11.5 17t10.5 12q4 2 16 5t26 6t26.5 5t17.5 2q14 0 12 -7q-8 -11 -16.5 -28t-18.5 -34t-21 -33t-23 -25q-6 -12 -17 -24.5t-19 -18.5q-12 -12 -19 -25t-19 -31t-32.5 -44t-58.5 -65q-11 -11 -29 -31t-36 -40.5t-33 -36t-20 -18.5q-2 -1 -10.5 -10.5
t-21.5 -23.5t-29.5 -31.5t-34.5 -34.5q-6 -11 -19 -26.5t-26.5 -31.5t-24.5 -31t-14 -24v-9zM35 500q0 10 1.5 22.5t5.5 14.5q13 16 22.5 25.5t17 15.5t13 11t10.5 12q2 1 7.5 6t11.5 11t12.5 12t11.5 9q8 12 15 16t17 15q3 3 9.5 8t15.5 10t20.5 8.5t23.5 3.5q6 0 19.5 -6
t18.5 -17q0 -2 0.5 -4.5t0.5 -4.5q0 -18 -5 -34t-6 -37q-1 -4 -3 -13.5t-4 -20.5t-4.5 -22t-5.5 -17q0 -2 -2.5 -10.5t-6 -21t-8 -26.5t-10.5 -26q-11 -35 -16.5 -48t-11.5 -19q-2 -8 -9.5 -17.5t-17.5 -17t-19.5 -12.5t-13.5 -5q-14 0 -19 2t-5 7q0 10 9.5 30t13.5 43
q9 14 9 22.5t6 25.5q1 3 3 4t2 6q3 16 4 20l1.5 6t1.5 8.5t4 29.5q2 19 5 31t3 35q0 5 -4 5q-5 0 -14 -8.5t-30 -18.5q-5 -8 -12.5 -11.5t-14.5 -12.5q-18 -12 -29 -21.5t-17.5 -16t-11 -9.5t-8.5 -3q-7 0 -7 5zM651 264q0 -22 -9.5 -39.5t-22 -31.5t-23.5 -24.5t-14 -17.5
q-6 -5 -7 -6.5t-1.5 -2.5t-2 -3t-6.5 -8q-8 -12 -10 -16.5t-2.5 -6t-0.5 -2t-3 -5.5q-6 -11 -13 -17.5t-7 -14.5q0 -2 5.5 -3.5t13 -2t14.5 -1t10 -0.5q5 0 13 1q4 -1 8.5 -1h9.5q8 2 14 2.5t20 0.5q1 0 5 1t9 1q2 0 4.5 -0.5t7.5 -2.5q0 -12 -3.5 -22.5t-14.5 -11.5
q-4 -6 -12.5 -10t-38.5 -6q-6 -6 -8 -7.5t-10 -3.5t-29 -2.5t-44 -0.5q-15 0 -22.5 2.5t-17.5 4.5t-15 7t-7.5 10.5t-3 10.5t-0.5 7q0 5 5.5 15t7.5 14q7 7 11 12t9 12t13 16.5t23 24.5q7 14 13.5 18.5t10.5 14.5q1 3 5.5 9l9 12t8 11.5t3.5 7.5q9 6 14.5 10t10 9t4.5 9
q0 10 -5 16t-12 9.5t-15 5.5t-15 4q-1 2 -5.5 2h-9.5q-23 0 -36.5 -1t-22.5 -9q-2 -5 -7 -10t-6 -22q-6 -7 -8 -8.5t-4 -1.5q-5 0 -9 5t-7 12.5t-4.5 14.5t-1.5 12q0 19 1 26t4 16q9 18 20.5 21.5t16.5 8.5q8 2 19.5 4.5t34.5 2.5q38 0 57 -4.5t26 -4.5q5 -5 18.5 -10
t24.5 -19q5 -12 8.5 -19t3.5 -24z" />
    <glyph glyph-name="threequarters" unicode="&#xbe;" horiz-adv-x="697" 
d="M126 40q-1 -3 -12.5 -9t-25.5 -11t-28 -9t-21 -4q-8 0 -6 15.5t6 27.5q3 10 13 26.5t21.5 32.5t22 28.5t15.5 14.5q16 24 41 49.5t62 69.5q4 3 16 18t28.5 34.5t34 38.5t32.5 31q4 6 17 21.5t28 32.5t28.5 31.5t18.5 19.5q12 12 28.5 34.5t32 45.5t28.5 42.5t19 24.5
q5 5 11 13.5t12 17.5t11.5 17t10.5 12q4 2 16 5t26 6t26.5 5t17.5 2q14 0 12 -7q-8 -11 -16.5 -28t-18.5 -34t-21 -33t-23 -25q-6 -12 -17 -24.5t-19 -18.5q-12 -12 -19 -25t-19 -31t-32.5 -44t-58.5 -65q-11 -11 -29 -31t-36 -40.5t-33 -36t-20 -18.5q-2 -1 -10.5 -10.5
t-21.5 -23.5t-29.5 -31.5t-34.5 -34.5q-6 -11 -19 -26.5t-26.5 -31.5t-24.5 -31t-14 -24q2 -2 1 -4.5t-1 -4.5zM83 495q0 11 7 17t17 12t22 15t23 26q19 11 26.5 23.5t18.5 26.5q0 3 -5.5 5.5t-19.5 2.5q-29 -3 -39 -3t-17 -4q-32 -4 -45.5 -10.5t-20.5 -6.5q-8 2 -10 5.5
t-2 10.5q0 13 2.5 19t5.5 10q3 18 11 27t19.5 13t26 5.5t30.5 6.5q8 0 17.5 1l28.5 3q28 0 44 -1.5t24.5 -3t11 -2.5t4.5 -1q5 -1 15.5 -11.5t10.5 -23.5q0 -11 -4.5 -19t-6.5 -15q-3 -7 -12.5 -17t-20 -20.5t-18.5 -19t-9 -11.5q-6 -6 -13.5 -11t-15 -9.5t-12.5 -8.5t-5 -9
q14 -9 27.5 -14.5t26 -10t25 -10t25.5 -16.5q5 -9 10.5 -15.5t5.5 -28.5q0 -13 -12 -23.5t-27 -17.5t-28 -11t-16 -4q-7 -5 -12 -7.5l-11 -5.5t-14 -7.5t-20 -11.5q-27 -5 -34 -9t-11 -4q-19 0 -28 0.5t-15 2.5q-1 0 -6 -1.5t-15 -1.5q-9 0 -15 4.5t-5 12.5q1 6 8.5 11.5
t18 10.5l21 10t16.5 11q14 9 19 11t11 4q6 5 20.5 10t30 9.5t27 10t11.5 11.5q0 4 -9 6.5t-22 5.5t-28 6.5t-27 10.5q-23 5 -30 11.5t-7 17.5zM624 214q0 -6 -3 -9q0 -7 -4 -16t-5 -17q-1 -4 -4 -10t-5 -19q-4 -5 -7 -13t-3 -13q0 -3 5 -3q14 0 21 4.5t21 6.5q5 -2 5.5 -11
t0.5 -17q0 -2 -4.5 -4.5t-7.5 -2.5q-9 -10 -23.5 -14t-28.5 -14q-2 -1 -4 -7t-4.5 -13t-4.5 -13.5t-3 -8.5q0 -8 -2.5 -6.5t-2.5 -6.5q-5 -5 -18 -6.5t-17 -4.5q-2 -1 -5.5 -4t-7.5 -3q-8 0 -8 10q0 13 3 25.5t6 12.5q0 9 1 10.5t1 8.5q0 4 -2 5.5t-12 1.5q-2 0 -1.5 -0.5
t-1 -0.5t-7.5 -0.5t-21 -0.5q-6 3 -15 4t-17.5 5t-14 12.5t-5.5 25.5q0 18 1 29t2 18t2 12t1 11q4 13 6 24.5t5 16.5q1 8 5 20t8.5 24t8.5 22t4 13q-2 1 -6 5q7 21 12.5 28.5t6.5 13.5q8 5 23.5 12t29.5 9q4 4 14 4q13 0 13 -9t-3.5 -14t-8.5 -17q-2 -7 -3.5 -8.5t-2.5 -4.5
t-4.5 -10.5t-7.5 -16.5t-7.5 -17t-3.5 -11q-2 -2 -7 -14.5t-11 -28t-11 -28.5t-7 -16q0 -7 -1 -11l-2 -8t-2 -9t-1 -12q0 -6 -3 -10t11 -9q6 0 9 -1t5 -2t6 -2t13 -1q4 0 8.5 0.5t7.5 0.5l4 2q1 9 2 12t1.5 5t1.5 5t1 13q6 12 7 29t9 44q3 5 6 6.5t9 2.5q2 3 10.5 3.5
t10.5 0.5q7 0 10 -2.5t8 -3.5q8 -3 11.5 -5.5t3.5 -8.5z" />
    <glyph glyph-name="questiondown" unicode="&#xbf;" 
d="M164 -37q0 -20 10.5 -39.5t27.5 -32.5q9 -10 20.5 -19t22 -16t18.5 -11l8 -4q3 0 5 4q-3 8 -4 17t-1 17q0 3 3.5 6.5t8.5 3.5t12.5 -5.5t14.5 -13t13 -15.5t9 -14t7.5 -10t8.5 -8.5t7 -10t3 -15.5q0 -8 -2 -13.5t-6 -12.5q-1 -11 -2.5 -20.5t-5.5 -16.5t-12 -11.5
t-21 -4.5q-6 0 -18.5 6t-51.5 15q-14 3 -25 9.5t-22 13.5t-24.5 15t-32.5 14q-12 14 -25 23.5t-24.5 22.5t-18.5 33.5t-7 58.5q0 32 4 50.5t9 30.5t10.5 20.5t7.5 22.5q10 13 18 29.5l16 33t16 31t17 25.5q5 17 13 34t11 26q2 7 7.5 10.5t13.5 5.5t17.5 3.5t18.5 5.5
q6 0 10.5 -4t4.5 -10q0 -10 -6.5 -25.5t-16.5 -36.5t-21.5 -48.5t-20.5 -61.5q-7 -9 -16 -37t-9 -71zM220 333q0 13 1.5 20.5t12.5 18.5q1 8 8 16t16.5 14.5t19 10.5t17.5 4q12 0 23 6.5t21 6.5q8 0 12 -3t6 -8t3 -11t4 -11q-4 -12 -10 -19.5t-11 -12.5t-9 -8.5t-5 -7.5
q-8 -3 -16 -9.5l-16 -13t-16.5 -11.5t-17.5 -5q-6 0 -13.5 0.5t-14 2.5t-11 7t-4.5 13z" />
    <glyph glyph-name="Agrave" unicode="&#xc0;" horiz-adv-x="481" 
d="M2 210q5 18 9 29t10.5 18t16.5 10.5t26 6.5q3 1 5.5 8.5t6 18.5t9 24t13.5 25q1 6 4 18.5t7.5 27.5t10.5 30.5t12 28.5q0 19 11 41t14 41l10 17q2 11 7 19t10 14t9 10.5t4 7.5q0 8 -6 9.5t-6 8.5q0 23 10 30t26 9q13 2 20.5 11.5t12.5 26.5q18 9 29 17t17.5 13.5t11 8.5
t10.5 3q8 0 20 -4t12 -15q0 -6 -3.5 -15.5t-7.5 -20t-7.5 -20t-3.5 -14.5t4 -8.5t9 -5.5l10 -4t7 -5q2 -2 8 -3.5t13 -4.5t13.5 -8.5t9.5 -14.5q4 -12 5.5 -19.5t4.5 -12.5q0 -27 6 -67q-2 -9 -2.5 -18.5t-0.5 -17.5q0 -5 2.5 -11t5.5 -11q0 -26 -1 -51.5t-1 -58.5
q0 -8 2.5 -10t6 -3t6 -3t2.5 -10q0 -14 -4.5 -20t-16.5 -14q0 -20 -1.5 -36.5t-1.5 -27.5q-2 -2 -3 -15.5t-2 -30t-2.5 -30t-4.5 -13.5v-14t2 -11q-9 -26 -10 -46.5t-10 -34.5v-14q0 -5 -5 -11t-12 -11.5t-14 -9t-10 -3.5q-10 0 -10 22q0 9 2 31t2 43q0 13 -0.5 21.5
t-1.5 14.5q3 4 3.5 20.5t0.5 24.5q-2 0 -2.5 3t-1 14.5t-0.5 33v59.5q-8 0 -15 -2.5t-14.5 -5t-18 -5t-25.5 -2.5q-2 0 -8 -2t-13.5 -5t-16 -5.5t-15.5 -2.5q-17 -5 -29 -11t-22.5 -11.5t-22 -9t-27.5 -3.5q-2 0 -4 -7t-4.5 -17.5t-6.5 -21.5t-10 -19q-8 -11 -11 -23
t-5 -24.5t-6 -26t-13 -26.5q-1 -9 -4 -22t-7 -25.5t-8.5 -23t-8.5 -14.5q-9 -2 -15.5 -5t-10.5 -3q-11 0 -15 4.5t-4 22.5q0 17 4.5 32t10.5 32q-1 10 3 22t9 20q0 12 3.5 26t8 27.5t8 25t3.5 17.5q-17 0 -23 2.5t-6 16.5q0 7 2.5 11t2.5 8zM200 413q0 -10 -19 -47
q-3 -16 -8 -25.5t-10 -17t-9 -15.5t-4 -20q5 -2 15 -2h15q4 0 9 1.5t15 3t28 3t50 1.5q11 7 27.5 7.5t30.5 4.5q0 14 1.5 23.5t1.5 14.5t-2 11t-2 13q0 9 0.5 16.5t2.5 12.5q-6 1 -6 48v15t2 14q-5 3 -9 11.5t-10 18.5t-16.5 19.5t-29.5 14.5q-9 0 -14 -9t-16 -21
q-2 -14 -9 -28.5t-14.5 -27.5t-13.5 -23.5t-6 -16.5zM240 888q3 0 6 -6t11.5 -17t25 -27t45.5 -36q16 -11 27 -16t21.5 -9t21.5 -8.5t27 -13.5q0 -13 -8.5 -17t-13.5 -6q-8 3 -18.5 6t-22 6.5t-22 7t-17.5 7.5q-9 5 -17.5 10t-13.5 6q-11 2 -31.5 16.5t-47.5 23.5
q-4 11 -8 17t-10 13q0 24 2 26q8 11 19.5 14t23.5 3z" />
    <glyph glyph-name="Aacute" unicode="&#xc1;" horiz-adv-x="481" 
d="M2 210q5 18 9 29t10.5 18t16.5 10.5t26 6.5q3 1 5.5 8.5t6 18.5t9 24t13.5 25q1 6 4 18.5t7.5 27.5t10.5 30.5t12 28.5q0 19 11 41t14 41l10 17q2 11 7 19t10 14t9 10.5t4 7.5q0 8 -6 9.5t-6 8.5q0 23 10 30t26 9q13 2 20.5 11.5t12.5 26.5q18 9 29 17t17.5 13.5t11 8.5
t10.5 3q8 0 20 -4t12 -15q0 -6 -3.5 -15.5t-7.5 -20t-7.5 -20t-3.5 -14.5t4 -8.5t9 -5.5l10 -4t7 -5q2 -2 8 -3.5t13 -4.5t13.5 -8.5t9.5 -14.5q4 -12 5.5 -19.5t4.5 -12.5q0 -27 6 -67q-2 -9 -2.5 -18.5t-0.5 -17.5q0 -5 2.5 -11t5.5 -11q0 -26 -1 -51.5t-1 -58.5
q0 -8 2.5 -10t6 -3t6 -3t2.5 -10q0 -14 -4.5 -20t-16.5 -14q0 -20 -1.5 -36.5t-1.5 -27.5q-2 -2 -3 -15.5t-2 -30t-2.5 -30t-4.5 -13.5v-14t2 -11q-9 -26 -10 -46.5t-10 -34.5v-14q0 -5 -5 -11t-12 -11.5t-14 -9t-10 -3.5q-10 0 -10 22q0 9 2 31t2 43q0 13 -0.5 21.5
t-1.5 14.5q3 4 3.5 20.5t0.5 24.5q-2 0 -2.5 3t-1 14.5t-0.5 33v59.5q-8 0 -15 -2.5t-14.5 -5t-18 -5t-25.5 -2.5q-2 0 -8 -2t-13.5 -5t-16 -5.5t-15.5 -2.5q-17 -5 -29 -11t-22.5 -11.5t-22 -9t-27.5 -3.5q-2 0 -4 -7t-4.5 -17.5t-6.5 -21.5t-10 -19q-8 -11 -11 -23
t-5 -24.5t-6 -26t-13 -26.5q-1 -9 -4 -22t-7 -25.5t-8.5 -23t-8.5 -14.5q-9 -2 -15.5 -5t-10.5 -3q-11 0 -15 4.5t-4 22.5q0 17 4.5 32t10.5 32q-1 10 3 22t9 20q0 12 3.5 26t8 27.5t8 25t3.5 17.5q-17 0 -23 2.5t-6 16.5q0 7 2.5 11t2.5 8zM200 413q0 -10 -19 -47
q-3 -16 -8 -25.5t-10 -17t-9 -15.5t-4 -20q5 -2 15 -2h15q4 0 9 1.5t15 3t28 3t50 1.5q11 7 27.5 7.5t30.5 4.5q0 14 1.5 23.5t1.5 14.5t-2 11t-2 13q0 9 0.5 16.5t2.5 12.5q-6 1 -6 48v15t2 14q-5 3 -9 11.5t-10 18.5t-16.5 19.5t-29.5 14.5q-9 0 -14 -9t-16 -21
q-2 -14 -9 -28.5t-14.5 -27.5t-13.5 -23.5t-6 -16.5zM364 888q12 0 23.5 -3t19.5 -14q2 -2 2 -26q-6 -7 -10 -13t-8 -17q-27 -9 -47.5 -23.5t-31.5 -16.5q-5 -1 -13.5 -6t-17.5 -10q-7 -4 -17.5 -7.5t-22 -7t-22.5 -6.5t-18 -6q-5 2 -13.5 6t-8.5 17q16 9 27 13.5t21.5 8.5
t21.5 9t27 16q29 20 45.5 36t25 27t11.5 17t6 6z" />
    <glyph glyph-name="Acircumflex" unicode="&#xc2;" horiz-adv-x="481" 
d="M2 210q5 18 9 29t10.5 18t16.5 10.5t26 6.5q3 1 5.5 8.5t6 18.5t9 24t13.5 25q1 6 4 18.5t7.5 27.5t10.5 30.5t12 28.5q0 19 11 41t14 41l10 17q2 11 7 19t10 14t9 10.5t4 7.5q0 8 -6 9.5t-6 8.5q0 23 10 30t26 9q13 2 20.5 11.5t12.5 26.5q18 9 29 17t17.5 13.5t11 8.5
t10.5 3q8 0 20 -4t12 -15q0 -6 -3.5 -15.5t-7.5 -20t-7.5 -20t-3.5 -14.5t4 -8.5t9 -5.5l10 -4t7 -5q2 -2 8 -3.5t13 -4.5t13.5 -8.5t9.5 -14.5q4 -12 5.5 -19.5t4.5 -12.5q0 -27 6 -67q-2 -9 -2.5 -18.5t-0.5 -17.5q0 -5 2.5 -11t5.5 -11q0 -26 -1 -51.5t-1 -58.5
q0 -8 2.5 -10t6 -3t6 -3t2.5 -10q0 -14 -4.5 -20t-16.5 -14q0 -20 -1.5 -36.5t-1.5 -27.5q-2 -2 -3 -15.5t-2 -30t-2.5 -30t-4.5 -13.5v-14t2 -11q-9 -26 -10 -46.5t-10 -34.5v-14q0 -5 -5 -11t-12 -11.5t-14 -9t-10 -3.5q-10 0 -10 22q0 9 2 31t2 43q0 13 -0.5 21.5
t-1.5 14.5q3 4 3.5 20.5t0.5 24.5q-2 0 -2.5 3t-1 14.5t-0.5 33v59.5q-8 0 -15 -2.5t-14.5 -5t-18 -5t-25.5 -2.5q-2 0 -8 -2t-13.5 -5t-16 -5.5t-15.5 -2.5q-17 -5 -29 -11t-22.5 -11.5t-22 -9t-27.5 -3.5q-2 0 -4 -7t-4.5 -17.5t-6.5 -21.5t-10 -19q-8 -11 -11 -23
t-5 -24.5t-6 -26t-13 -26.5q-1 -9 -4 -22t-7 -25.5t-8.5 -23t-8.5 -14.5q-9 -2 -15.5 -5t-10.5 -3q-11 0 -15 4.5t-4 22.5q0 17 4.5 32t10.5 32q-1 10 3 22t9 20q0 12 3.5 26t8 27.5t8 25t3.5 17.5q-17 0 -23 2.5t-6 16.5q0 7 2.5 11t2.5 8zM200 413q0 -10 -19 -47
q-3 -16 -8 -25.5t-10 -17t-9 -15.5t-4 -20q5 -2 15 -2h15q4 0 9 1.5t15 3t28 3t50 1.5q11 7 27.5 7.5t30.5 4.5q0 14 1.5 23.5t1.5 14.5t-2 11t-2 13q0 9 0.5 16.5t2.5 12.5q-6 1 -6 48v15t2 14q-5 3 -9 11.5t-10 18.5t-16.5 19.5t-29.5 14.5q-9 0 -14 -9t-16 -21
q-2 -14 -9 -28.5t-14.5 -27.5t-13.5 -23.5t-6 -16.5zM281 798q-4 0 -10.5 -4t-14.5 -9.5t-15.5 -10.5t-12.5 -7q-17 -7 -31.5 -18t-17.5 -11q-8 0 -13.5 7.5t-5.5 15.5q0 4 4.5 9.5t8.5 13.5q12 13 34.5 25t37.5 28q17 5 25 13t19 8q14 0 33.5 -14.5t55.5 -28.5
q9 -3 16 -9.5t13 -10.5q10 -6 12 -16.5t2 -31.5q0 -9 -6 -9t-14.5 4.5t-19 10.5t-23 11.5t-27.5 8.5q-2 0 -8 4t-13.5 8.5t-15.5 8.5t-13 4z" />
    <glyph glyph-name="Atilde" unicode="&#xc3;" horiz-adv-x="481" 
d="M2 210q5 18 9 29t10.5 18t16.5 10.5t26 6.5q3 1 5.5 8.5t6 18.5t9 24t13.5 25q1 6 4 18.5t7.5 27.5t10.5 30.5t12 28.5q0 19 11 41t14 41l10 17q2 11 7 19t10 14t9 10.5t4 7.5q0 8 -6 9.5t-6 8.5q0 23 10 30t26 9q13 2 20.5 11.5t12.5 26.5q18 9 29 17t17.5 13.5t11 8.5
t10.5 3q8 0 20 -4t12 -15q0 -6 -3.5 -15.5t-7.5 -20t-7.5 -20t-3.5 -14.5t4 -8.5t9 -5.5l10 -4t7 -5q2 -2 8 -3.5t13 -4.5t13.5 -8.5t9.5 -14.5q4 -12 5.5 -19.5t4.5 -12.5q0 -27 6 -67q-2 -9 -2.5 -18.5t-0.5 -17.5q0 -5 2.5 -11t5.5 -11q0 -26 -1 -51.5t-1 -58.5
q0 -8 2.5 -10t6 -3t6 -3t2.5 -10q0 -14 -4.5 -20t-16.5 -14q0 -20 -1.5 -36.5t-1.5 -27.5q-2 -2 -3 -15.5t-2 -30t-2.5 -30t-4.5 -13.5v-14t2 -11q-9 -26 -10 -46.5t-10 -34.5v-14q0 -5 -5 -11t-12 -11.5t-14 -9t-10 -3.5q-10 0 -10 22q0 9 2 31t2 43q0 13 -0.5 21.5
t-1.5 14.5q3 4 3.5 20.5t0.5 24.5q-2 0 -2.5 3t-1 14.5t-0.5 33v59.5q-8 0 -15 -2.5t-14.5 -5t-18 -5t-25.5 -2.5q-2 0 -8 -2t-13.5 -5t-16 -5.5t-15.5 -2.5q-17 -5 -29 -11t-22.5 -11.5t-22 -9t-27.5 -3.5q-2 0 -4 -7t-4.5 -17.5t-6.5 -21.5t-10 -19q-8 -11 -11 -23
t-5 -24.5t-6 -26t-13 -26.5q-1 -9 -4 -22t-7 -25.5t-8.5 -23t-8.5 -14.5q-9 -2 -15.5 -5t-10.5 -3q-11 0 -15 4.5t-4 22.5q0 17 4.5 32t10.5 32q-1 10 3 22t9 20q0 12 3.5 26t8 27.5t8 25t3.5 17.5q-17 0 -23 2.5t-6 16.5q0 7 2.5 11t2.5 8zM200 413q0 -10 -19 -47
q-3 -16 -8 -25.5t-10 -17t-9 -15.5t-4 -20q5 -2 15 -2h15q4 0 9 1.5t15 3t28 3t50 1.5q11 7 27.5 7.5t30.5 4.5q0 14 1.5 23.5t1.5 14.5t-2 11t-2 13q0 9 0.5 16.5t2.5 12.5q-6 1 -6 48v15t2 14q-5 3 -9 11.5t-10 18.5t-16.5 19.5t-29.5 14.5q-9 0 -14 -9t-16 -21
q-2 -14 -9 -28.5t-14.5 -27.5t-13.5 -23.5t-6 -16.5zM284 849q14 0 21 -2t10 -5.5t5.5 -7.5t7.5 -8q0 -6 -1.5 -15t-1.5 -14q0 -3 3.5 -5.5t8.5 -2.5t17 4.5t29 9.5q19 5 31.5 14.5t27.5 9.5q11 0 11 -6q0 -8 -1 -16t-7 -12q0 -5 -11.5 -11t-27.5 -12t-32 -10.5t-25 -4.5
q-15 -2 -33 -8t-27 -6q-12 0 -16 8.5t-7 18.5t-7 18.5t-14 8.5q-13 0 -27 -8.5t-18 -9.5q-8 -2 -17.5 -6t-18.5 -9t-16.5 -8.5t-11.5 -3.5q-8 0 -8 7q0 2 1.5 9t1.5 14q6 8 13.5 13.5t16.5 5.5q5 5 19.5 12.5t30.5 14.5t29.5 12t17.5 5t8 3t18 3z" />
    <glyph glyph-name="Adieresis" unicode="&#xc4;" horiz-adv-x="481" 
d="M2 210q5 18 9 29t10.5 18t16.5 10.5t26 6.5q3 1 5.5 8.5t6 18.5t9 24t13.5 25q1 6 4 18.5t7.5 27.5t10.5 30.5t12 28.5q0 19 11 41t14 41l10 17q2 11 7 19t10 14t9 10.5t4 7.5q0 8 -6 9.5t-6 8.5q0 23 10 30t26 9q13 2 20.5 11.5t12.5 26.5q18 9 29 17t17.5 13.5t11 8.5
t10.5 3q8 0 20 -4t12 -15q0 -6 -3.5 -15.5t-7.5 -20t-7.5 -20t-3.5 -14.5t4 -8.5t9 -5.5l10 -4t7 -5q2 -2 8 -3.5t13 -4.5t13.5 -8.5t9.5 -14.5q4 -12 5.5 -19.5t4.5 -12.5q0 -27 6 -67q-2 -9 -2.5 -18.5t-0.5 -17.5q0 -5 2.5 -11t5.5 -11q0 -26 -1 -51.5t-1 -58.5
q0 -8 2.5 -10t6 -3t6 -3t2.5 -10q0 -14 -4.5 -20t-16.5 -14q0 -20 -1.5 -36.5t-1.5 -27.5q-2 -2 -3 -15.5t-2 -30t-2.5 -30t-4.5 -13.5v-14t2 -11q-9 -26 -10 -46.5t-10 -34.5v-14q0 -5 -5 -11t-12 -11.5t-14 -9t-10 -3.5q-10 0 -10 22q0 9 2 31t2 43q0 13 -0.5 21.5
t-1.5 14.5q3 4 3.5 20.5t0.5 24.5q-2 0 -2.5 3t-1 14.5t-0.5 33v59.5q-8 0 -15 -2.5t-14.5 -5t-18 -5t-25.5 -2.5q-2 0 -8 -2t-13.5 -5t-16 -5.5t-15.5 -2.5q-17 -5 -29 -11t-22.5 -11.5t-22 -9t-27.5 -3.5q-2 0 -4 -7t-4.5 -17.5t-6.5 -21.5t-10 -19q-8 -11 -11 -23
t-5 -24.5t-6 -26t-13 -26.5q-1 -9 -4 -22t-7 -25.5t-8.5 -23t-8.5 -14.5q-9 -2 -15.5 -5t-10.5 -3q-11 0 -15 4.5t-4 22.5q0 17 4.5 32t10.5 32q-1 10 3 22t9 20q0 12 3.5 26t8 27.5t8 25t3.5 17.5q-17 0 -23 2.5t-6 16.5q0 7 2.5 11t2.5 8zM200 413q0 -10 -19 -47
q-3 -16 -8 -25.5t-10 -17t-9 -15.5t-4 -20q5 -2 15 -2h15q4 0 9 1.5t15 3t28 3t50 1.5q11 7 27.5 7.5t30.5 4.5q0 14 1.5 23.5t1.5 14.5t-2 11t-2 13q0 9 0.5 16.5t2.5 12.5q-6 1 -6 48v15t2 14q-5 3 -9 11.5t-10 18.5t-16.5 19.5t-29.5 14.5q-9 0 -14 -9t-16 -21
q-2 -14 -9 -28.5t-14.5 -27.5t-13.5 -23.5t-6 -16.5zM186 783q0 8 5.5 13.5t10.5 15.5q5 8 17 15t19 7q12 0 20.5 -3.5t14.5 -7.5q9 0 12 -6t3 -29q0 -12 -3 -17t-8.5 -8t-12 -6.5t-12.5 -12.5q-2 2 -8 2.5t-14 0.5q-8 -2 -11.5 -2.5t-5.5 -0.5q-18 10 -22.5 18.5t-4.5 20.5
zM333 783q0 8 5.5 13.5t10.5 15.5q5 8 17 15t19 7q12 0 20.5 -3.5t14.5 -7.5q9 0 12 -6t3 -29q0 -12 -3 -17t-8.5 -8t-12 -6.5t-12.5 -12.5q-2 2 -8 2.5t-14 0.5q-8 -2 -11.5 -2.5t-5.5 -0.5q-18 10 -22.5 18.5t-4.5 20.5z" />
    <glyph glyph-name="Aring" unicode="&#xc5;" horiz-adv-x="481" 
d="M2 210q5 18 9 29t10.5 18t16.5 10.5t26 6.5q3 1 5.5 8.5t6 18.5t9 24t13.5 25q1 6 4 18.5t7.5 27.5t10.5 30.5t12 28.5q0 19 11 41t14 41l10 17q2 11 7 19t10 14t9 10.5t4 7.5q0 8 -6 9.5t-6 8.5q0 23 10 30t26 9q13 2 20.5 11.5t12.5 26.5q18 9 29 17t17.5 13.5t11 8.5
t10.5 3q8 0 20 -4t12 -15q0 -6 -3.5 -15.5t-7.5 -20t-7.5 -20t-3.5 -14.5t4 -8.5t9 -5.5l10 -4t7 -5q2 -2 8 -3.5t13 -4.5t13.5 -8.5t9.5 -14.5q4 -12 5.5 -19.5t4.5 -12.5q0 -27 6 -67q-2 -9 -2.5 -18.5t-0.5 -17.5q0 -5 2.5 -11t5.5 -11q0 -26 -1 -51.5t-1 -58.5
q0 -8 2.5 -10t6 -3t6 -3t2.5 -10q0 -14 -4.5 -20t-16.5 -14q0 -20 -1.5 -36.5t-1.5 -27.5q-2 -2 -3 -15.5t-2 -30t-2.5 -30t-4.5 -13.5v-14t2 -11q-9 -26 -10 -46.5t-10 -34.5v-14q0 -5 -5 -11t-12 -11.5t-14 -9t-10 -3.5q-10 0 -10 22q0 9 2 31t2 43q0 13 -0.5 21.5
t-1.5 14.5q3 4 3.5 20.5t0.5 24.5q-2 0 -2.5 3t-1 14.5t-0.5 33v59.5q-8 0 -15 -2.5t-14.5 -5t-18 -5t-25.5 -2.5q-2 0 -8 -2t-13.5 -5t-16 -5.5t-15.5 -2.5q-17 -5 -29 -11t-22.5 -11.5t-22 -9t-27.5 -3.5q-2 0 -4 -7t-4.5 -17.5t-6.5 -21.5t-10 -19q-8 -11 -11 -23
t-5 -24.5t-6 -26t-13 -26.5q-1 -9 -4 -22t-7 -25.5t-8.5 -23t-8.5 -14.5q-9 -2 -15.5 -5t-10.5 -3q-11 0 -15 4.5t-4 22.5q0 17 4.5 32t10.5 32q-1 10 3 22t9 20q0 12 3.5 26t8 27.5t8 25t3.5 17.5q-17 0 -23 2.5t-6 16.5q0 7 2.5 11t2.5 8zM200 413q0 -10 -19 -47
q-3 -16 -8 -25.5t-10 -17t-9 -15.5t-4 -20q5 -2 15 -2h15q4 0 9 1.5t15 3t28 3t50 1.5q11 7 27.5 7.5t30.5 4.5q0 14 1.5 23.5t1.5 14.5t-2 11t-2 13q0 9 0.5 16.5t2.5 12.5q-6 1 -6 48v15t2 14q-5 3 -9 11.5t-10 18.5t-16.5 19.5t-29.5 14.5q-9 0 -14 -9t-16 -21
q-2 -14 -9 -28.5t-14.5 -27.5t-13.5 -23.5t-6 -16.5zM248 807q0 11 6 25t10 16q20 30 38 43t47 13q14 0 25.5 -4.5t33.5 -21.5q5 -15 5 -27q0 -8 -1.5 -11.5l-3 -7t-3 -7.5t-1.5 -11q0 -4 -2.5 -10t-7 -12t-9.5 -11.5t-11 -6.5q-11 -3 -23 -9.5t-30 -6.5q-11 0 -17 3.5
t-19 7.5q-12 4 -24.5 13.5t-12.5 24.5zM371 842q0 14 -8.5 17t-19.5 3q-21 0 -37 -15.5t-16 -35.5q2 -5 11 -8t14 -3q2 0 9 1t15 2.5t15 4t10 6.5q3 5 5 11t2 17z" />
    <glyph glyph-name="AE" unicode="&#xc6;" horiz-adv-x="796" 
d="M27 210q5 18 9 29t10.5 18t16.5 10.5t26 6.5q3 1 5.5 8.5t6 18.5t9 24t13.5 25q1 6 4 18.5t7.5 27.5t10.5 30.5t12 28.5q0 19 11 41t14 41l10 17q2 11 7 19t10 14t9 10.5t4 7.5q0 8 -6 9.5t-6 8.5q0 23 10 30t26 9q13 2 20.5 11.5t12.5 26.5q18 9 29 17t17.5 13.5t11 8.5
t10.5 3q8 0 20 -4t12 -15q0 -6 -3.5 -15.5t-7.5 -20t-7.5 -20t-3.5 -14.5q0 -6 10 -11.5t22 -12.5t22.5 -16.5t10.5 -23.5q0 -9 1.5 -16t3.5 -15.5t4 -21t2 -32.5h2q2 24 6.5 38t11 24.5t15 21t17.5 27.5q33 21 47.5 34t25.5 18q5 8 9.5 11.5t8.5 5.5q6 2 13 5.5t17 7.5
t24.5 6.5t35.5 2.5q8 2 18.5 4t23.5 2q6 0 10 -2t7 -2q5 0 10 1t7 1q28 -2 40 -10t12 -30q0 -13 -1 -20.5t-2.5 -12.5t-2.5 -9t-1 -10q0 -17 -5.5 -21t-19.5 -4q-18 0 -23 8q-11 4 -18.5 6t-15 3t-17 1h-23.5q-5 0 -12 -2t-33 -2q-3 0 -5 -1.5t-5.5 -3t-9.5 -2.5t-17 -1
q-18 0 -27 -11.5t-14 -28.5q-9 -6 -15 -21.5t-10.5 -33.5t-8.5 -35.5t-8 -28.5q-7 -14 -9 -44.5t-2 -60.5q11 0 17.5 3.5t12 9t12 11.5t18.5 12q12 1 20.5 4.5t16.5 7t16.5 6t19.5 2.5q6 0 12 -1t12 -1q4 0 21.5 2.5t28.5 2.5t16.5 -3t19.5 -3q6 -4 8.5 -11.5t7.5 -12.5
q0 -32 -5 -46t-13 -19q-11 2 -24.5 3t-30.5 5q-16 -3 -26.5 -3.5t-35.5 -0.5q-4 0 -8 -1.5t-6 -1.5q-5 0 -10 0.5t-10 0.5q-18 -8 -37.5 -11.5t-36 -8.5t-27.5 -15t-12 -31q-8 -23 -10 -46.5t-7 -31.5q0 -5 1 -10t1 -9q-8 -20 -9.5 -40.5t-1.5 -39.5q14 0 29 -3q2 1 12 2.5
t20 1.5q7 0 14.5 -0.5t15.5 -1.5q8 2 20.5 4t20.5 2q4 2 13 4.5t19.5 4.5t20.5 4t17 3q14 5 27 11t33 10q10 11 18 12t16 6q9 -2 11.5 -7t2.5 -12q0 -15 -10.5 -28.5t-28.5 -22.5q-5 -6 -13 -11.5t-17 -10.5t-17 -8t-12 -3q-8 -5 -18 -10t-18 -5q-26 -13 -47.5 -20t-27.5 -7
q-25 -1 -42.5 -4t-22.5 -3h-12.5t-10.5 1q-8 -2 -14 -2.5t-11 -0.5q-8 0 -12 4.5t-4 27.5h-2q-2 -6 -7 -12t-11 -10.5t-11.5 -7t-8.5 -2.5q-10 0 -10 22q0 9 2 31t2 43q0 13 -0.5 21.5t-1.5 14.5q1 0 2 3.5t1.5 13.5t0.5 27v43q0 37 -0.5 48.5t-3.5 19.5q-8 0 -15 -2.5
t-14.5 -5t-18 -5t-25.5 -2.5q-2 0 -8 -2t-13.5 -5t-16 -5.5t-15.5 -2.5q-17 -5 -29 -11t-22.5 -11.5t-22 -9t-27.5 -3.5q-2 0 -4 -7t-4.5 -17.5t-6.5 -21.5t-10 -19q-8 -11 -11 -23t-5 -24.5t-6 -26t-13 -26.5q-1 -9 -4 -22t-7 -25.5t-8.5 -23t-8.5 -14.5q-9 -2 -15.5 -5
t-10.5 -3q-11 0 -15 4.5t-4 22.5q0 17 4.5 32t10.5 32q-1 10 3 22t9 20q0 12 3.5 26t8 27.5t8 25t3.5 17.5q-17 0 -23 2.5t-6 16.5q0 7 2.5 11t2.5 8zM225 413q0 -10 -19 -47q-3 -16 -8 -25.5t-10 -17t-9 -15.5t-4 -20q5 -2 15 -2h15q4 0 9 1.5t15 3t28 3t50 1.5
q11 7 27.5 7.5t30.5 4.5q1 11 1.5 22t0.5 16t-1.5 11t-1.5 13q0 9 0.5 17t2.5 19q0 46 -6 74.5t-15.5 44.5t-20.5 22t-21 6t-17.5 -15.5t-18.5 -27.5q-2 -14 -9 -28.5t-14.5 -27.5t-13.5 -23.5t-6 -16.5z" />
    <glyph glyph-name="Ccedilla" unicode="&#xc7;" horiz-adv-x="500" 
d="M318 122q0 -9 -13 -25q-5 -25 -12 -44t-15 -35q16 2 28 5.5t29 5.5q14 11 31.5 16t28.5 17q17 3 24 7q2 9 5 10.5t6 5.5q6 -1 8 -5t2 -7q0 -14 -6 -23.5t-15 -17.5t-19 -15.5t-18 -16.5q-18 -8 -33 -15.5t-30 -14.5t-31.5 -11.5t-37.5 -5.5q-2 -8 -2 -12q-14 -20 -20 -35
t-9.5 -24.5t-5.5 -14.5t-7 -5q-6 0 -19.5 5t-13.5 17q0 25 9.5 42t12.5 30q-12 3 -21.5 6.5t-17.5 7t-16 6.5t-17 3q-45 24 -67.5 57.5t-30.5 78.5q-5 9 -8 25.5t-3 24.5v8v12.5t0.5 12t1.5 7.5q-5 6 -5.5 11t-0.5 14q1 6 5 29t9 50t11 51.5t11 32.5q3 13 7 22t9 16.5t9 16
t7 19.5q26 33 42 60.5t39 41.5q1 9 13 19.5t27 17.5q15 17 27 25.5t20.5 13.5t14.5 7.5t11 7.5q3 3 14.5 8t26 9.5t29 7.5t24.5 3q32 0 43 -1.5t22 -7.5q17 -2 33.5 -17.5t16.5 -35.5q0 -8 1.5 -14t3 -12.5t3 -14t1.5 -19.5q0 -6 -1 -14t-1 -18v-12t2 -14q-3 -8 -4 -21.5
t-6 -27.5q-3 -13 -5 -24t-2 -16q0 -4 -1.5 -8t-4.5 -10.5t-6 -18t-6 -29.5q-3 -1 -6.5 -9t-7 -17t-6 -17.5t-3.5 -10.5q-3 -12 -11 -19t-17.5 -10.5t-19.5 -4.5t-17 -1q-10 0 -13 3.5t-3 8.5v16.5t1 30t3 32.5t6 25q1 14 4 19.5t3 13.5q0 20 8 36.5t10 34.5q6 14 12.5 21
t11 13t7.5 13.5t3 23.5q0 10 -4 15.5t-10 9.5t-12.5 6.5t-11.5 7.5q-7 5 -16 7t-17 2q-22 0 -45 -6t-47 -17q-9 -10 -16 -15.5t-13 -10t-11.5 -9.5t-10.5 -14t-10.5 -16t-11 -14.5t-11.5 -17.5t-13 -25q-15 -33 -21.5 -52.5t-9.5 -32t-4 -21.5t-5 -22q-5 -15 -6 -25.5
t-1.5 -20t-1.5 -18t-5 -18.5q5 -8 6 -17t1 -18q0 -8 -1.5 -16t-1.5 -14q0 -9 4 -17t10 -18.5t13 -25.5t13 -37q13 -8 30 -27.5t44 -31.5q5 17 10.5 33.5t10.5 27.5q4 5 8 13.5t9.5 16t14 13t21.5 4.5q14 -1 17 -4t3 -8z" />
    <glyph glyph-name="Egrave" unicode="&#xc8;" 
d="M398 99q0 -15 -10.5 -28.5t-28.5 -22.5q-5 -6 -13 -11.5t-17 -10.5t-17 -8t-12 -3q-8 -5 -18 -10t-18 -5q-26 -13 -47.5 -20t-27.5 -7q-25 -1 -42.5 -4t-22.5 -3h-12.5t-10.5 1q-8 -2 -14 -2.5t-11 -0.5q-6 0 -19 3.5t-13 11.5v10t2 10q-20 0 -25.5 6.5t-5.5 22.5
q0 4 1 11.5t2 20.5t2 32t1 47q0 20 4 36.5t4 42.5q5 21 7 47.5t9 46.5q0 11 2 40.5t15 67.5q0 14 2 26t5.5 26t8.5 32.5t11 44.5q3 12 8 18.5t11.5 13t13 14t11.5 20.5q33 21 47.5 34t25.5 18q5 8 9.5 11.5t8.5 5.5q6 2 13 5.5t17 7.5t24.5 6.5t35.5 2.5q8 2 18.5 4t23.5 2
q6 0 10 -2t7 -2q5 0 10 1t7 1q28 -2 40 -10t12 -30q0 -13 -1 -20.5t-2.5 -12.5t-2.5 -9t-1 -10q0 -17 -5.5 -21t-19.5 -4q-18 0 -23 8q-11 4 -18.5 6t-15 3t-17 1h-23.5q-5 0 -12 -2t-33 -2q-3 0 -5 -1.5t-5.5 -3t-9.5 -2.5t-17 -1q-13 0 -20 -8t-12 -18.5t-9 -21t-10 -15.5
q1 -3 2 -8t1 -9q-16 -39 -21 -69.5t-13 -44.5q-1 -11 -3 -17.5l-4 -13t-3.5 -15.5t-1.5 -24q11 0 17.5 3.5t12 9t12 11.5t18.5 12q12 1 20.5 4.5t16.5 7t16.5 6t19.5 2.5q6 0 12 -1t12 -1q4 0 21.5 2.5t28.5 2.5t16.5 -3t19.5 -3q6 -4 8.5 -11.5t7.5 -12.5q0 -32 -5 -46
t-13 -19q-11 2 -24.5 3t-30.5 5q-16 -3 -26.5 -3.5t-35.5 -0.5q-4 0 -8 -1.5t-6 -1.5q-5 0 -10 0.5t-10 0.5q-18 -8 -37.5 -11.5t-36 -8.5t-27.5 -15t-12 -31q-8 -23 -10 -46.5t-7 -31.5q0 -5 1 -10t1 -9q-8 -20 -9.5 -40.5t-1.5 -39.5q14 0 29 -3q2 1 12 2.5t20 1.5
q7 0 14.5 -0.5t15.5 -1.5q8 2 20.5 4t20.5 2q4 2 13 4.5t19.5 4.5t20.5 4t17 3q14 5 27 11t33 10q10 11 18 12t16 6q9 -2 11.5 -7t2.5 -12zM192 888q3 0 6 -6t11.5 -17t25 -27t45.5 -36q16 -11 27 -16t21.5 -9t21.5 -8.5t27 -13.5q0 -13 -8.5 -17t-13.5 -6q-8 3 -18.5 6
t-22 6.5t-22 7t-17.5 7.5q-9 5 -17.5 10t-13.5 6q-11 2 -31.5 16.5t-47.5 23.5q-4 11 -8 17t-10 13q0 24 2 26q8 11 19.5 14t23.5 3z" />
    <glyph glyph-name="Eacute" unicode="&#xc9;" 
d="M398 99q0 -15 -10.5 -28.5t-28.5 -22.5q-5 -6 -13 -11.5t-17 -10.5t-17 -8t-12 -3q-8 -5 -18 -10t-18 -5q-26 -13 -47.5 -20t-27.5 -7q-25 -1 -42.5 -4t-22.5 -3h-12.5t-10.5 1q-8 -2 -14 -2.5t-11 -0.5q-6 0 -19 3.5t-13 11.5v10t2 10q-20 0 -25.5 6.5t-5.5 22.5
q0 4 1 11.5t2 20.5t2 32t1 47q0 20 4 36.5t4 42.5q5 21 7 47.5t9 46.5q0 11 2 40.5t15 67.5q0 14 2 26t5.5 26t8.5 32.5t11 44.5q3 12 8 18.5t11.5 13t13 14t11.5 20.5q33 21 47.5 34t25.5 18q5 8 9.5 11.5t8.5 5.5q6 2 13 5.5t17 7.5t24.5 6.5t35.5 2.5q8 2 18.5 4t23.5 2
q6 0 10 -2t7 -2q5 0 10 1t7 1q28 -2 40 -10t12 -30q0 -13 -1 -20.5t-2.5 -12.5t-2.5 -9t-1 -10q0 -17 -5.5 -21t-19.5 -4q-18 0 -23 8q-11 4 -18.5 6t-15 3t-17 1h-23.5q-5 0 -12 -2t-33 -2q-3 0 -5 -1.5t-5.5 -3t-9.5 -2.5t-17 -1q-13 0 -20 -8t-12 -18.5t-9 -21t-10 -15.5
q1 -3 2 -8t1 -9q-16 -39 -21 -69.5t-13 -44.5q-1 -11 -3 -17.5l-4 -13t-3.5 -15.5t-1.5 -24q11 0 17.5 3.5t12 9t12 11.5t18.5 12q12 1 20.5 4.5t16.5 7t16.5 6t19.5 2.5q6 0 12 -1t12 -1q4 0 21.5 2.5t28.5 2.5t16.5 -3t19.5 -3q6 -4 8.5 -11.5t7.5 -12.5q0 -32 -5 -46
t-13 -19q-11 2 -24.5 3t-30.5 5q-16 -3 -26.5 -3.5t-35.5 -0.5q-4 0 -8 -1.5t-6 -1.5q-5 0 -10 0.5t-10 0.5q-18 -8 -37.5 -11.5t-36 -8.5t-27.5 -15t-12 -31q-8 -23 -10 -46.5t-7 -31.5q0 -5 1 -10t1 -9q-8 -20 -9.5 -40.5t-1.5 -39.5q14 0 29 -3q2 1 12 2.5t20 1.5
q7 0 14.5 -0.5t15.5 -1.5q8 2 20.5 4t20.5 2q4 2 13 4.5t19.5 4.5t20.5 4t17 3q14 5 27 11t33 10q10 11 18 12t16 6q9 -2 11.5 -7t2.5 -12zM384 888q12 0 23.5 -3t19.5 -14q2 -2 2 -26q-6 -7 -10 -13t-8 -17q-27 -9 -47.5 -23.5t-31.5 -16.5q-5 -1 -13.5 -6t-17.5 -10
q-7 -4 -17.5 -7.5t-22 -7t-22.5 -6.5t-18 -6q-5 2 -13.5 6t-8.5 17q16 9 27 13.5t21.5 8.5t21.5 9t27 16q29 20 45.5 36t25 27t11.5 17t6 6z" />
    <glyph glyph-name="Ecircumflex" unicode="&#xca;" 
d="M398 99q0 -15 -10.5 -28.5t-28.5 -22.5q-5 -6 -13 -11.5t-17 -10.5t-17 -8t-12 -3q-8 -5 -18 -10t-18 -5q-26 -13 -47.5 -20t-27.5 -7q-25 -1 -42.5 -4t-22.5 -3h-12.5t-10.5 1q-8 -2 -14 -2.5t-11 -0.5q-6 0 -19 3.5t-13 11.5v10t2 10q-20 0 -25.5 6.5t-5.5 22.5
q0 4 1 11.5t2 20.5t2 32t1 47q0 20 4 36.5t4 42.5q5 21 7 47.5t9 46.5q0 11 2 40.5t15 67.5q0 14 2 26t5.5 26t8.5 32.5t11 44.5q3 12 8 18.5t11.5 13t13 14t11.5 20.5q33 21 47.5 34t25.5 18q5 8 9.5 11.5t8.5 5.5q6 2 13 5.5t17 7.5t24.5 6.5t35.5 2.5q8 2 18.5 4t23.5 2
q6 0 10 -2t7 -2q5 0 10 1t7 1q28 -2 40 -10t12 -30q0 -13 -1 -20.5t-2.5 -12.5t-2.5 -9t-1 -10q0 -17 -5.5 -21t-19.5 -4q-18 0 -23 8q-11 4 -18.5 6t-15 3t-17 1h-23.5q-5 0 -12 -2t-33 -2q-3 0 -5 -1.5t-5.5 -3t-9.5 -2.5t-17 -1q-13 0 -20 -8t-12 -18.5t-9 -21t-10 -15.5
q1 -3 2 -8t1 -9q-16 -39 -21 -69.5t-13 -44.5q-1 -11 -3 -17.5l-4 -13t-3.5 -15.5t-1.5 -24q11 0 17.5 3.5t12 9t12 11.5t18.5 12q12 1 20.5 4.5t16.5 7t16.5 6t19.5 2.5q6 0 12 -1t12 -1q4 0 21.5 2.5t28.5 2.5t16.5 -3t19.5 -3q6 -4 8.5 -11.5t7.5 -12.5q0 -32 -5 -46
t-13 -19q-11 2 -24.5 3t-30.5 5q-16 -3 -26.5 -3.5t-35.5 -0.5q-4 0 -8 -1.5t-6 -1.5q-5 0 -10 0.5t-10 0.5q-18 -8 -37.5 -11.5t-36 -8.5t-27.5 -15t-12 -31q-8 -23 -10 -46.5t-7 -31.5q0 -5 1 -10t1 -9q-8 -20 -9.5 -40.5t-1.5 -39.5q14 0 29 -3q2 1 12 2.5t20 1.5
q7 0 14.5 -0.5t15.5 -1.5q8 2 20.5 4t20.5 2q4 2 13 4.5t19.5 4.5t20.5 4t17 3q14 5 27 11t33 10q10 11 18 12t16 6q9 -2 11.5 -7t2.5 -12zM269 798q-4 0 -10.5 -4t-14.5 -9.5t-15.5 -10.5t-12.5 -7q-17 -7 -31.5 -18t-17.5 -11q-8 0 -13.5 7.5t-5.5 15.5q0 4 4.5 9.5
t8.5 13.5q12 13 34.5 25t37.5 28q17 5 25 13t19 8q14 0 33.5 -14.5t55.5 -28.5q9 -3 16 -9.5t13 -10.5q10 -6 12 -16.5t2 -31.5q0 -9 -6 -9t-14.5 4.5t-19 10.5t-23 11.5t-27.5 8.5q-2 0 -8 4t-13.5 8.5t-15.5 8.5t-13 4z" />
    <glyph glyph-name="Edieresis" unicode="&#xcb;" 
d="M398 99q0 -15 -10.5 -28.5t-28.5 -22.5q-5 -6 -13 -11.5t-17 -10.5t-17 -8t-12 -3q-8 -5 -18 -10t-18 -5q-26 -13 -47.5 -20t-27.5 -7q-25 -1 -42.5 -4t-22.5 -3h-12.5t-10.5 1q-8 -2 -14 -2.5t-11 -0.5q-6 0 -19 3.5t-13 11.5v10t2 10q-20 0 -25.5 6.5t-5.5 22.5
q0 4 1 11.5t2 20.5t2 32t1 47q0 20 4 36.5t4 42.5q5 21 7 47.5t9 46.5q0 11 2 40.5t15 67.5q0 14 2 26t5.5 26t8.5 32.5t11 44.5q3 12 8 18.5t11.5 13t13 14t11.5 20.5q33 21 47.5 34t25.5 18q5 8 9.5 11.5t8.5 5.5q6 2 13 5.5t17 7.5t24.5 6.5t35.5 2.5q8 2 18.5 4t23.5 2
q6 0 10 -2t7 -2q5 0 10 1t7 1q28 -2 40 -10t12 -30q0 -13 -1 -20.5t-2.5 -12.5t-2.5 -9t-1 -10q0 -17 -5.5 -21t-19.5 -4q-18 0 -23 8q-11 4 -18.5 6t-15 3t-17 1h-23.5q-5 0 -12 -2t-33 -2q-3 0 -5 -1.5t-5.5 -3t-9.5 -2.5t-17 -1q-13 0 -20 -8t-12 -18.5t-9 -21t-10 -15.5
q1 -3 2 -8t1 -9q-16 -39 -21 -69.5t-13 -44.5q-1 -11 -3 -17.5l-4 -13t-3.5 -15.5t-1.5 -24q11 0 17.5 3.5t12 9t12 11.5t18.5 12q12 1 20.5 4.5t16.5 7t16.5 6t19.5 2.5q6 0 12 -1t12 -1q4 0 21.5 2.5t28.5 2.5t16.5 -3t19.5 -3q6 -4 8.5 -11.5t7.5 -12.5q0 -32 -5 -46
t-13 -19q-11 2 -24.5 3t-30.5 5q-16 -3 -26.5 -3.5t-35.5 -0.5q-4 0 -8 -1.5t-6 -1.5q-5 0 -10 0.5t-10 0.5q-18 -8 -37.5 -11.5t-36 -8.5t-27.5 -15t-12 -31q-8 -23 -10 -46.5t-7 -31.5q0 -5 1 -10t1 -9q-8 -20 -9.5 -40.5t-1.5 -39.5q14 0 29 -3q2 1 12 2.5t20 1.5
q7 0 14.5 -0.5t15.5 -1.5q8 2 20.5 4t20.5 2q4 2 13 4.5t19.5 4.5t20.5 4t17 3q14 5 27 11t33 10q10 11 18 12t16 6q9 -2 11.5 -7t2.5 -12zM170 788q0 8 5.5 13.5t10.5 15.5q5 8 17 15t19 7q12 0 20.5 -3.5t14.5 -7.5q9 0 12 -6t3 -29q0 -12 -3 -17t-8.5 -8t-12 -6.5
t-12.5 -12.5q-2 2 -8 2.5t-14 0.5q-8 -2 -11.5 -2.5t-5.5 -0.5q-18 10 -22.5 18.5t-4.5 20.5zM317 788q0 8 5.5 13.5t10.5 15.5q5 8 17 15t19 7q12 0 20.5 -3.5t14.5 -7.5q9 0 12 -6t3 -29q0 -12 -3 -17t-8.5 -8t-12 -6.5t-12.5 -12.5q-2 2 -8 2.5t-14 0.5q-8 -2 -11.5 -2.5
t-5.5 -0.5q-18 10 -22.5 18.5t-4.5 20.5z" />
    <glyph glyph-name="Igrave" unicode="&#xcc;" horiz-adv-x="204" 
d="M204 672q0 -8 -3 -21.5t-6.5 -29t-6.5 -31.5t-3 -29q-3 -8 -6 -25t-6 -34.5t-6 -31t-6 -13.5q-3 -6 -3 -10v-6t1 -8q-4 -9 -7 -28.5t-6 -40.5t-5.5 -37.5t-5.5 -17.5q0 -15 -1.5 -26t-3.5 -24t-3.5 -30.5t-1.5 -45.5q-3 -8 -4.5 -19.5t-3 -23.5t-2.5 -23t-3 -17
q0 -41 6.5 -59t6.5 -26q0 -9 -3 -13.5t-8 -7.5t-11 -7t-13 -12q-12 -5 -22 -5q-8 0 -17 10.5t-9 33.5q0 22 -5 35q0 8 -0.5 16.5t-2.5 19.5q0 10 0.5 17t1.5 14.5t1.5 17t0.5 24.5q0 5 2 8t4 5q-2 4 -2.5 11.5t-0.5 18.5q0 8 2 18.5t2 20.5q0 5 -0.5 10t-0.5 7q4 13 8 41
t4 53q4 9 4 25q0 29 -3.5 38t-12.5 14q0 9 -0.5 14t-0.5 9q0 11 1.5 21.5t6.5 15.5l-5 14q2 3 5.5 15t5.5 27q7 10 10.5 23t7.5 28t9.5 31.5t16.5 33.5q6 10 21.5 17t28.5 8q12 8 20 11.5t17 3.5q8 0 12 -12t4 -16zM102 888q3 0 6 -6t11.5 -17t25 -27t45.5 -36
q16 -11 27 -16t21.5 -9t21.5 -8.5t27 -13.5q0 -13 -8.5 -17t-13.5 -6q-8 3 -18.5 6t-22 6.5t-22 7t-17.5 7.5q-9 5 -17.5 10t-13.5 6q-11 2 -31.5 16.5t-47.5 23.5q-4 11 -8 17t-10 13q0 24 2 26q8 11 19.5 14t23.5 3z" />
    <glyph glyph-name="Iacute" unicode="&#xcd;" horiz-adv-x="204" 
d="M204 672q0 -8 -3 -21.5t-6.5 -29t-6.5 -31.5t-3 -29q-3 -8 -6 -25t-6 -34.5t-6 -31t-6 -13.5q-3 -6 -3 -10v-6t1 -8q-4 -9 -7 -28.5t-6 -40.5t-5.5 -37.5t-5.5 -17.5q0 -15 -1.5 -26t-3.5 -24t-3.5 -30.5t-1.5 -45.5q-3 -8 -4.5 -19.5t-3 -23.5t-2.5 -23t-3 -17
q0 -41 6.5 -59t6.5 -26q0 -9 -3 -13.5t-8 -7.5t-11 -7t-13 -12q-12 -5 -22 -5q-8 0 -17 10.5t-9 33.5q0 22 -5 35q0 8 -0.5 16.5t-2.5 19.5q0 10 0.5 17t1.5 14.5t1.5 17t0.5 24.5q0 5 2 8t4 5q-2 4 -2.5 11.5t-0.5 18.5q0 8 2 18.5t2 20.5q0 5 -0.5 10t-0.5 7q4 13 8 41
t4 53q4 9 4 25q0 29 -3.5 38t-12.5 14q0 9 -0.5 14t-0.5 9q0 11 1.5 21.5t6.5 15.5l-5 14q2 3 5.5 15t5.5 27q7 10 10.5 23t7.5 28t9.5 31.5t16.5 33.5q6 10 21.5 17t28.5 8q12 8 20 11.5t17 3.5q8 0 12 -12t4 -16zM226 888q12 0 23.5 -3t19.5 -14q2 -2 2 -26q-6 -7 -10 -13
t-8 -17q-27 -9 -47.5 -23.5t-31.5 -16.5q-5 -1 -13.5 -6t-17.5 -10q-7 -4 -17.5 -7.5t-22 -7t-22.5 -6.5t-18 -6q-5 2 -13.5 6t-8.5 17q16 9 27 13.5t21.5 8.5t21.5 9t27 16q29 20 45.5 36t25 27t11.5 17t6 6z" />
    <glyph glyph-name="Icircumflex" unicode="&#xce;" horiz-adv-x="204" 
d="M204 672q0 -8 -3 -21.5t-6.5 -29t-6.5 -31.5t-3 -29q-3 -8 -6 -25t-6 -34.5t-6 -31t-6 -13.5q-3 -6 -3 -10v-6t1 -8q-4 -9 -7 -28.5t-6 -40.5t-5.5 -37.5t-5.5 -17.5q0 -15 -1.5 -26t-3.5 -24t-3.5 -30.5t-1.5 -45.5q-3 -8 -4.5 -19.5t-3 -23.5t-2.5 -23t-3 -17
q0 -41 6.5 -59t6.5 -26q0 -9 -3 -13.5t-8 -7.5t-11 -7t-13 -12q-12 -5 -22 -5q-8 0 -17 10.5t-9 33.5q0 22 -5 35q0 8 -0.5 16.5t-2.5 19.5q0 10 0.5 17t1.5 14.5t1.5 17t0.5 24.5q0 5 2 8t4 5q-2 4 -2.5 11.5t-0.5 18.5q0 8 2 18.5t2 20.5q0 5 -0.5 10t-0.5 7q4 13 8 41
t4 53q4 9 4 25q0 29 -3.5 38t-12.5 14q0 9 -0.5 14t-0.5 9q0 11 1.5 21.5t6.5 15.5l-5 14q2 3 5.5 15t5.5 27q7 10 10.5 23t7.5 28t9.5 31.5t16.5 33.5q6 10 21.5 17t28.5 8q12 8 20 11.5t17 3.5q8 0 12 -12t4 -16zM145 798q-4 0 -10.5 -4t-14.5 -9.5t-15.5 -10.5t-12.5 -7
q-17 -7 -31.5 -18t-17.5 -11q-8 0 -13.5 7.5t-5.5 15.5q0 4 4.5 9.5t8.5 13.5q12 13 34.5 25t37.5 28q17 5 25 13t19 8q14 0 33.5 -14.5t55.5 -28.5q9 -3 16 -9.5t13 -10.5q10 -6 12 -16.5t2 -31.5q0 -9 -6 -9t-14.5 4.5t-19 10.5t-23 11.5t-27.5 8.5q-2 0 -8 4t-13.5 8.5
t-15.5 8.5t-13 4z" />
    <glyph glyph-name="Idieresis" unicode="&#xcf;" horiz-adv-x="209" 
d="M204 672q0 -8 -3 -21.5t-6.5 -29t-6.5 -31.5t-3 -29q-3 -8 -6 -25t-6 -34.5t-6 -31t-6 -13.5q-3 -6 -3 -10v-6t1 -8q-4 -9 -7 -28.5t-6 -40.5t-5.5 -37.5t-5.5 -17.5q0 -15 -1.5 -26t-3.5 -24t-3.5 -30.5t-1.5 -45.5q-3 -8 -4.5 -19.5t-3 -23.5t-2.5 -23t-3 -17
q0 -41 6.5 -59t6.5 -26q0 -9 -3 -13.5t-8 -7.5t-11 -7t-13 -12q-12 -5 -22 -5q-8 0 -17 10.5t-9 33.5q0 22 -5 35q0 8 -0.5 16.5t-2.5 19.5q0 10 0.5 17t1.5 14.5t1.5 17t0.5 24.5q0 5 2 8t4 5q-2 4 -2.5 11.5t-0.5 18.5q0 8 2 18.5t2 20.5q0 5 -0.5 10t-0.5 7q4 13 8 41
t4 53q4 9 4 25q0 29 -3.5 38t-12.5 14q0 9 -0.5 14t-0.5 9q0 11 1.5 21.5t6.5 15.5l-5 14q2 3 5.5 15t5.5 27q7 10 10.5 23t7.5 28t9.5 31.5t16.5 33.5q6 10 21.5 17t28.5 8q12 8 20 11.5t17 3.5q8 0 12 -12t4 -16zM52 788q0 8 5.5 13.5t10.5 15.5q5 8 17 15t19 7
q12 0 20.5 -3.5t14.5 -7.5q9 0 12 -6t3 -29q0 -12 -3 -17t-8.5 -8t-12 -6.5t-12.5 -12.5q-2 2 -8 2.5t-14 0.5q-8 -2 -11.5 -2.5t-5.5 -0.5q-18 10 -22.5 18.5t-4.5 20.5zM199 788q0 8 5.5 13.5t10.5 15.5q5 8 17 15t19 7q12 0 20.5 -3.5t14.5 -7.5q9 0 12 -6t3 -29
q0 -12 -3 -17t-8.5 -8t-12 -6.5t-12.5 -12.5q-2 2 -8 2.5t-14 0.5q-8 -2 -11.5 -2.5t-5.5 -0.5q-18 10 -22.5 18.5t-4.5 20.5z" />
    <glyph glyph-name="Eth" unicode="&#xd0;" horiz-adv-x="519" 
d="M499 376q0 -23 -3 -45t-17 -41q-1 -6 -4.5 -16.5t-8.5 -22t-11 -21t-11 -12.5q-2 -13 -7 -20t-11 -13.5t-12.5 -14.5t-11.5 -23q-4 -2 -13.5 -11t-19.5 -20.5t-18 -22.5t-8 -17q9 7 14.5 9t10.5 2q7 0 7 -11q0 -8 -6.5 -16.5t-15.5 -16.5t-19.5 -14.5t-17.5 -9.5
q-5 -2 -16 -12t-21 -11q-12 -11 -29.5 -24t-32.5 -16q-7 -8 -24.5 -13t-39.5 -16q-11 0 -22.5 -2.5t-34.5 -2.5q-7 7 -14.5 11.5t-7.5 15.5q0 13 12 21t20 22q7 1 11 3t7 5t6.5 7t10.5 7q19 0 32.5 5.5t25 13t23 16.5t26.5 17q14 8 22 15t8 15q19 12 27.5 21t13 16.5
t8.5 13.5t13 14q1 3 7 14.5t15 25.5t18 27.5t16 21.5q1 12 4 20t6 14.5t6 13.5t5 18q0 14 -0.5 27t-3.5 16q-5 4 -6.5 12t-4.5 18.5t-10 24t-22 30.5q-12 21 -29.5 32t-30.5 29q-26 11 -52 26t-44 26q-6 -7 -9.5 -19.5t-6 -26.5t-5.5 -28.5t-8 -24.5q-5 -32 -13.5 -61
t-10.5 -43q20 1 32.5 3t20 3.5t11.5 2.5t7 1q14 0 22.5 -1t13.5 -4t9 -9t9 -16q0 -6 -0.5 -16t-2.5 -19.5t-5.5 -18t-9.5 -11.5q-14 0 -22.5 1t-14 2.5t-9.5 2.5t-9 1q-8 0 -23 -2.5t-45 -3.5q0 -12 -5 -26t-7 -25q-3 -30 -6 -48t-6 -32.5t-6 -28.5t-6 -35
q-15 -38 -28.5 -56.5t-21.5 -18.5q-11 0 -14 4.5t-3 16.5t3.5 19t3.5 12q0 3 -1.5 6.5t-1.5 8.5q0 6 1 13l3 21t4.5 40t4.5 70q2 6 3 18.5t3 29.5q-35 -1 -53 -9t-28 -8q-16 0 -16 6q0 10 3 20.5t8.5 19.5t12 15.5t12.5 8.5q8 2 14.5 5.5t14 7t18 6.5t27.5 4q-4 12 -4 22
q0 5 1.5 11t3.5 17t5 29t5 47q1 12 2.5 20t3.5 14t3.5 12l3.5 14q12 10 18 17.5t11 14t11 11t18 8.5l-1 8q-25 11 -49 14q-13 9 -25.5 15t-22 10.5t-15 9t-5.5 12.5q0 12 -0.5 19t-1.5 12t-1.5 9t-0.5 9l13 8q5 0 8.5 -1t6.5 -1q13 0 18 2t9 2q5 -2 14 -3t18 -3t17 -5t13 -8
q4 1 7.5 1.5t8.5 0.5q4 0 8 -2.5t11.5 -6t19 -6t30.5 -2.5q7 -6 19.5 -11.5t27.5 -13t32.5 -18t34.5 -24.5q11 -5 19.5 -13t17.5 -13q14 -7 25 -17.5t20.5 -23t20 -26.5t22.5 -27q1 -9 4.5 -16.5t7 -18.5t6 -27t2.5 -41z" />
    <glyph glyph-name="Ntilde" unicode="&#xd1;" horiz-adv-x="556" 
d="M363 -24q-13 0 -23 15.5t-19 32.5q-4 5 -8 12t-6 16q-6 6 -12.5 17t-12 23.5t-10 25t-8.5 22.5q-11 35 -27.5 64t-25.5 63q-19 29 -22.5 42t-6.5 16q-2 1 -4.5 8t-5.5 15t-6 14t-6 6q-2 0 -4.5 -5t-6.5 -25q-5 -7 -6.5 -17t-3.5 -25q-8 -8 -10.5 -23.5t-10.5 -29.5
q-5 -39 -13 -57t-8 -25q1 -8 -4 -24.5t-10 -29.5q-1 -12 -4 -20.5t-6.5 -17t-6 -17.5t-2.5 -23q0 -6 -3.5 -16t-8.5 -21.5t-10 -24.5t-7 -25l-6 -3q-8 -1 -14 -5l-9 -6q-8 0 -10 6t-2 23q0 9 3 25.5t7 34.5t7.5 36t4.5 31q1 12 6 28.5t5 42.5q0 7 1.5 13l3.5 14t4.5 20.5
t5.5 34.5q4 32 7.5 53.5t6.5 37t5 26t2 19.5q5 25 7 45.5t4 39.5t4.5 38t9.5 40q0 6 -1 13.5t-1 22.5q4 24 7.5 37t10 19t17 7.5t28.5 2.5q13 0 17 -7t10 -7q4 0 9.5 7t12 16t14 16t14.5 7q8 0 14.5 -6t6.5 -16q-7 -17 -13 -34.5t-10.5 -33.5t-7.5 -28.5t-3 -19.5
q0 -9 3.5 -20.5t8 -22.5t7.5 -20.5t3 -14.5q14 -27 17.5 -42t8.5 -20q4 -18 7.5 -29.5t6.5 -18.5t5.5 -12t2.5 -10q0 -4 5 -16t11 -26.5t11 -27.5t5 -19q13 -19 19 -39.5t17 -33.5q1 -7 5.5 -18.5t10.5 -22.5t11.5 -19t8.5 -8q8 0 8.5 13t8.5 40q5 17 9.5 52t14.5 73
q0 12 2 30t4 37.5l4 39t2 34.5q0 3 0.5 8t1.5 18t1.5 37t0.5 65q0 14 2.5 21.5t2.5 21.5q4 6 7.5 18.5t7 27.5t7.5 30.5t10 28.5q19 17 29 24t13 7q5 0 6.5 -6.5t1.5 -35.5q0 -21 -1.5 -35.5t-3 -23.5t-3 -15t-1.5 -11q0 -10 2 -14q-2 -4 -3 -17t-2.5 -31.5t-3 -41.5
t-2.5 -48q-2 -6 -3 -10.5t-1 -9.5q0 -7 3 -17q-1 -2 -4 -20t-6 -42.5t-5.5 -50t-2.5 -42.5q-3 -7 -7 -30t-8.5 -51t-10 -55.5t-11.5 -44.5q0 -20 -6 -31.5t-20 -33.5q-20 -5 -38.5 -15t-29.5 -10zM323 849q14 0 21 -2t10 -5.5t5.5 -7.5t7.5 -8q0 -6 -1.5 -15t-1.5 -14
q0 -3 3.5 -5.5t8.5 -2.5t17 4.5t29 9.5q19 5 31.5 14.5t27.5 9.5q11 0 11 -6q0 -8 -1 -16t-7 -12q0 -5 -11.5 -11t-27.5 -12t-32 -10.5t-25 -4.5q-15 -2 -33 -8t-27 -6q-12 0 -16 8.5t-7 18.5t-7 18.5t-14 8.5q-13 0 -27 -8.5t-18 -9.5q-8 -2 -17.5 -6t-18.5 -9t-16.5 -8.5
t-11.5 -3.5q-8 0 -8 7q0 2 1.5 9t1.5 14q6 8 13.5 13.5t16.5 5.5q5 5 19.5 12.5t30.5 14.5t29.5 12t17.5 5t8 3t18 3z" />
    <glyph glyph-name="Ograve" unicode="&#xd2;" horiz-adv-x="537" 
d="M-2 276q0 16 3.5 36.5t11.5 30.5q16 25 26 45.5t16.5 37t11.5 28.5t12 18q0 15 7 31.5t8 23.5q6 8 10 22t9.5 29t12.5 29.5t18 24.5q2 10 7 16.5t11 11t12 8t9 8.5q6 0 12.5 -5t6.5 -12q0 -15 -3 -24t-6.5 -15t-6.5 -11t-3 -13q0 -12 3 -12q1 0 6.5 6t12.5 13t14 13.5
t11 8.5q15 7 24 14.5t17.5 14.5t18 11.5t26.5 4.5q7 0 10 6t14 6q4 0 7.5 -1t10 -3.5t17 -5.5t28.5 -7q9 -11 19 -15.5t19 -19.5q7 -3 11 -8.5t8 -11.5l8 -12t11 -10q3 -11 11.5 -23t16.5 -31t14.5 -48t6.5 -72q-4 -22 -6 -41.5t-7 -41t-14 -47t-26 -59.5q-5 -4 -9.5 -11.5
t-10.5 -17t-15 -21.5t-25 -26q-2 -10 -9.5 -18.5t-17 -17t-19 -17.5t-16.5 -20q-26 -17 -44.5 -32t-41.5 -34q-20 -5 -33 -11t-24.5 -11t-25 -8.5t-34.5 -3.5q-10 3 -21.5 4.5t-23.5 5.5t-23 12t-21 23q-12 17 -17.5 31.5t-8.5 28.5t-4.5 30t-5.5 36q0 7 2 14.5t2 10.5
q0 33 1 52t9 30q0 26 -1.5 31.5t-4.5 5.5q-2 0 -3.5 -4t-3.5 -9.5t-5 -9.5t-7 -4q-7 0 -11.5 2t-4.5 10zM118 246q0 -10 -1.5 -18.5t-1.5 -21.5q0 -3 1 -10.5t2.5 -17.5t3 -21t3.5 -20q3 -4 8 -16t13 -25t19.5 -23.5t28.5 -10.5q19 2 35.5 5t24.5 11q20 9 32.5 18.5
t21.5 18.5t17.5 18.5t22.5 18.5q14 22 30.5 41.5t21.5 35.5q8 23 12.5 37t11.5 17q0 18 8 42t8 49q0 9 -3 24.5t-3 27.5v7.5t1 9.5q-7 7 -9.5 15t-6.5 18.5t-12 24t-26 32.5q-1 6 -9.5 12t-20.5 11t-25.5 8t-24.5 3q-10 0 -23 -3.5t-25.5 -8.5t-23 -10t-15.5 -8t-13 -10
t-17 -16t-18 -19.5t-16 -19.5q-5 -29 -10.5 -50t-10.5 -44t-8 -53.5t-3 -78.5zM250 888q3 0 6 -6t11.5 -17t25 -27t45.5 -36q16 -11 27 -16t21.5 -9t21.5 -8.5t27 -13.5q0 -13 -8.5 -17t-13.5 -6q-8 3 -18.5 6t-22 6.5t-22 7t-17.5 7.5q-9 5 -17.5 10t-13.5 6
q-11 2 -31.5 16.5t-47.5 23.5q-4 11 -8 17t-10 13q0 24 2 26q8 11 19.5 14t23.5 3z" />
    <glyph glyph-name="Oacute" unicode="&#xd3;" horiz-adv-x="537" 
d="M-2 276q0 16 3.5 36.5t11.5 30.5q16 25 26 45.5t16.5 37t11.5 28.5t12 18q0 15 7 31.5t8 23.5q6 8 10 22t9.5 29t12.5 29.5t18 24.5q2 10 7 16.5t11 11t12 8t9 8.5q6 0 12.5 -5t6.5 -12q0 -15 -3 -24t-6.5 -15t-6.5 -11t-3 -13q0 -12 3 -12q1 0 6.5 6t12.5 13t14 13.5
t11 8.5q15 7 24 14.5t17.5 14.5t18 11.5t26.5 4.5q7 0 10 6t14 6q4 0 7.5 -1t10 -3.5t17 -5.5t28.5 -7q9 -11 19 -15.5t19 -19.5q7 -3 11 -8.5t8 -11.5l8 -12t11 -10q3 -11 11.5 -23t16.5 -31t14.5 -48t6.5 -72q-4 -22 -6 -41.5t-7 -41t-14 -47t-26 -59.5q-5 -4 -9.5 -11.5
t-10.5 -17t-15 -21.5t-25 -26q-2 -10 -9.5 -18.5t-17 -17t-19 -17.5t-16.5 -20q-26 -17 -44.5 -32t-41.5 -34q-20 -5 -33 -11t-24.5 -11t-25 -8.5t-34.5 -3.5q-10 3 -21.5 4.5t-23.5 5.5t-23 12t-21 23q-12 17 -17.5 31.5t-8.5 28.5t-4.5 30t-5.5 36q0 7 2 14.5t2 10.5
q0 33 1 52t9 30q0 26 -1.5 31.5t-4.5 5.5q-2 0 -3.5 -4t-3.5 -9.5t-5 -9.5t-7 -4q-7 0 -11.5 2t-4.5 10zM118 246q0 -10 -1.5 -18.5t-1.5 -21.5q0 -3 1 -10.5t2.5 -17.5t3 -21t3.5 -20q3 -4 8 -16t13 -25t19.5 -23.5t28.5 -10.5q19 2 35.5 5t24.5 11q20 9 32.5 18.5
t21.5 18.5t17.5 18.5t22.5 18.5q14 22 30.5 41.5t21.5 35.5q8 23 12.5 37t11.5 17q0 18 8 42t8 49q0 9 -3 24.5t-3 27.5v7.5t1 9.5q-7 7 -9.5 15t-6.5 18.5t-12 24t-26 32.5q-1 6 -9.5 12t-20.5 11t-25.5 8t-24.5 3q-10 0 -23 -3.5t-25.5 -8.5t-23 -10t-15.5 -8t-13 -10
t-17 -16t-18 -19.5t-16 -19.5q-5 -29 -10.5 -50t-10.5 -44t-8 -53.5t-3 -78.5zM444 888q12 0 23.5 -3t19.5 -14q2 -2 2 -26q-6 -7 -10 -13t-8 -17q-27 -9 -47.5 -23.5t-31.5 -16.5q-5 -1 -13.5 -6t-17.5 -10q-7 -4 -17.5 -7.5t-22 -7t-22.5 -6.5t-18 -6q-5 2 -13.5 6
t-8.5 17q16 9 27 13.5t21.5 8.5t21.5 9t27 16q29 20 45.5 36t25 27t11.5 17t6 6z" />
    <glyph glyph-name="Ocircumflex" unicode="&#xd4;" horiz-adv-x="537" 
d="M-2 276q0 16 3.5 36.5t11.5 30.5q16 25 26 45.5t16.5 37t11.5 28.5t12 18q0 15 7 31.5t8 23.5q6 8 10 22t9.5 29t12.5 29.5t18 24.5q2 10 7 16.5t11 11t12 8t9 8.5q6 0 12.5 -5t6.5 -12q0 -15 -3 -24t-6.5 -15t-6.5 -11t-3 -13q0 -12 3 -12q1 0 6.5 6t12.5 13t14 13.5
t11 8.5q15 7 24 14.5t17.5 14.5t18 11.5t26.5 4.5q7 0 10 6t14 6q4 0 7.5 -1t10 -3.5t17 -5.5t28.5 -7q9 -11 19 -15.5t19 -19.5q7 -3 11 -8.5t8 -11.5l8 -12t11 -10q3 -11 11.5 -23t16.5 -31t14.5 -48t6.5 -72q-4 -22 -6 -41.5t-7 -41t-14 -47t-26 -59.5q-5 -4 -9.5 -11.5
t-10.5 -17t-15 -21.5t-25 -26q-2 -10 -9.5 -18.5t-17 -17t-19 -17.5t-16.5 -20q-26 -17 -44.5 -32t-41.5 -34q-20 -5 -33 -11t-24.5 -11t-25 -8.5t-34.5 -3.5q-10 3 -21.5 4.5t-23.5 5.5t-23 12t-21 23q-12 17 -17.5 31.5t-8.5 28.5t-4.5 30t-5.5 36q0 7 2 14.5t2 10.5
q0 33 1 52t9 30q0 26 -1.5 31.5t-4.5 5.5q-2 0 -3.5 -4t-3.5 -9.5t-5 -9.5t-7 -4q-7 0 -11.5 2t-4.5 10zM118 246q0 -10 -1.5 -18.5t-1.5 -21.5q0 -3 1 -10.5t2.5 -17.5t3 -21t3.5 -20q3 -4 8 -16t13 -25t19.5 -23.5t28.5 -10.5q19 2 35.5 5t24.5 11q20 9 32.5 18.5
t21.5 18.5t17.5 18.5t22.5 18.5q14 22 30.5 41.5t21.5 35.5q8 23 12.5 37t11.5 17q0 18 8 42t8 49q0 9 -3 24.5t-3 27.5v7.5t1 9.5q-7 7 -9.5 15t-6.5 18.5t-12 24t-26 32.5q-1 6 -9.5 12t-20.5 11t-25.5 8t-24.5 3q-10 0 -23 -3.5t-25.5 -8.5t-23 -10t-15.5 -8t-13 -10
t-17 -16t-18 -19.5t-16 -19.5q-5 -29 -10.5 -50t-10.5 -44t-8 -53.5t-3 -78.5zM331 798q-4 0 -10.5 -4t-14.5 -9.5t-15.5 -10.5t-12.5 -7q-17 -7 -31.5 -18t-17.5 -11q-8 0 -13.5 7.5t-5.5 15.5q0 4 4.5 9.5t8.5 13.5q12 13 34.5 25t37.5 28q17 5 25 13t19 8
q14 0 33.5 -14.5t55.5 -28.5q9 -3 16 -9.5t13 -10.5q10 -6 12 -16.5t2 -31.5q0 -9 -6 -9t-14.5 4.5t-19 10.5t-23 11.5t-27.5 8.5q-2 0 -8 4t-13.5 8.5t-15.5 8.5t-13 4z" />
    <glyph glyph-name="Otilde" unicode="&#xd5;" horiz-adv-x="537" 
d="M-2 276q0 16 3.5 36.5t11.5 30.5q16 25 26 45.5t16.5 37t11.5 28.5t12 18q0 15 7 31.5t8 23.5q6 8 10 22t9.5 29t12.5 29.5t18 24.5q2 10 7 16.5t11 11t12 8t9 8.5q6 0 12.5 -5t6.5 -12q0 -15 -3 -24t-6.5 -15t-6.5 -11t-3 -13q0 -12 3 -12q1 0 6.5 6t12.5 13t14 13.5
t11 8.5q15 7 24 14.5t17.5 14.5t18 11.5t26.5 4.5q7 0 10 6t14 6q4 0 7.5 -1t10 -3.5t17 -5.5t28.5 -7q9 -11 19 -15.5t19 -19.5q7 -3 11 -8.5t8 -11.5l8 -12t11 -10q3 -11 11.5 -23t16.5 -31t14.5 -48t6.5 -72q-4 -22 -6 -41.5t-7 -41t-14 -47t-26 -59.5q-5 -4 -9.5 -11.5
t-10.5 -17t-15 -21.5t-25 -26q-2 -10 -9.5 -18.5t-17 -17t-19 -17.5t-16.5 -20q-26 -17 -44.5 -32t-41.5 -34q-20 -5 -33 -11t-24.5 -11t-25 -8.5t-34.5 -3.5q-10 3 -21.5 4.5t-23.5 5.5t-23 12t-21 23q-12 17 -17.5 31.5t-8.5 28.5t-4.5 30t-5.5 36q0 7 2 14.5t2 10.5
q0 33 1 52t9 30q0 26 -1.5 31.5t-4.5 5.5q-2 0 -3.5 -4t-3.5 -9.5t-5 -9.5t-7 -4q-7 0 -11.5 2t-4.5 10zM118 246q0 -10 -1.5 -18.5t-1.5 -21.5q0 -3 1 -10.5t2.5 -17.5t3 -21t3.5 -20q3 -4 8 -16t13 -25t19.5 -23.5t28.5 -10.5q19 2 35.5 5t24.5 11q20 9 32.5 18.5
t21.5 18.5t17.5 18.5t22.5 18.5q14 22 30.5 41.5t21.5 35.5q8 23 12.5 37t11.5 17q0 18 8 42t8 49q0 9 -3 24.5t-3 27.5v7.5t1 9.5q-7 7 -9.5 15t-6.5 18.5t-12 24t-26 32.5q-1 6 -9.5 12t-20.5 11t-25.5 8t-24.5 3q-10 0 -23 -3.5t-25.5 -8.5t-23 -10t-15.5 -8t-13 -10
t-17 -16t-18 -19.5t-16 -19.5q-5 -29 -10.5 -50t-10.5 -44t-8 -53.5t-3 -78.5zM343 849q14 0 21 -2t10 -5.5t5.5 -7.5t7.5 -8q0 -6 -1.5 -15t-1.5 -14q0 -3 3.5 -5.5t8.5 -2.5t17 4.5t29 9.5q19 5 31.5 14.5t27.5 9.5q11 0 11 -6q0 -8 -1 -16t-7 -12q0 -5 -11.5 -11
t-27.5 -12t-32 -10.5t-25 -4.5q-15 -2 -33 -8t-27 -6q-12 0 -16 8.5t-7 18.5t-7 18.5t-14 8.5q-13 0 -27 -8.5t-18 -9.5q-8 -2 -17.5 -6t-18.5 -9t-16.5 -8.5t-11.5 -3.5q-8 0 -8 7q0 2 1.5 9t1.5 14q6 8 13.5 13.5t16.5 5.5q5 5 19.5 12.5t30.5 14.5t29.5 12t17.5 5t8 3
t18 3z" />
    <glyph glyph-name="Odieresis" unicode="&#xd6;" horiz-adv-x="537" 
d="M-2 276q0 16 3.5 36.5t11.5 30.5q16 25 26 45.5t16.5 37t11.5 28.5t12 18q0 15 7 31.5t8 23.5q6 8 10 22t9.5 29t12.5 29.5t18 24.5q2 10 7 16.5t11 11t12 8t9 8.5q6 0 12.5 -5t6.5 -12q0 -15 -3 -24t-6.5 -15t-6.5 -11t-3 -13q0 -12 3 -12q1 0 6.5 6t12.5 13t14 13.5
t11 8.5q15 7 24 14.5t17.5 14.5t18 11.5t26.5 4.5q7 0 10 6t14 6q4 0 7.5 -1t10 -3.5t17 -5.5t28.5 -7q9 -11 19 -15.5t19 -19.5q7 -3 11 -8.5t8 -11.5l8 -12t11 -10q3 -11 11.5 -23t16.5 -31t14.5 -48t6.5 -72q-4 -22 -6 -41.5t-7 -41t-14 -47t-26 -59.5q-5 -4 -9.5 -11.5
t-10.5 -17t-15 -21.5t-25 -26q-2 -10 -9.5 -18.5t-17 -17t-19 -17.5t-16.5 -20q-26 -17 -44.5 -32t-41.5 -34q-20 -5 -33 -11t-24.5 -11t-25 -8.5t-34.5 -3.5q-10 3 -21.5 4.5t-23.5 5.5t-23 12t-21 23q-12 17 -17.5 31.5t-8.5 28.5t-4.5 30t-5.5 36q0 7 2 14.5t2 10.5
q0 33 1 52t9 30q0 26 -1.5 31.5t-4.5 5.5q-2 0 -3.5 -4t-3.5 -9.5t-5 -9.5t-7 -4q-7 0 -11.5 2t-4.5 10zM118 246q0 -10 -1.5 -18.5t-1.5 -21.5q0 -3 1 -10.5t2.5 -17.5t3 -21t3.5 -20q3 -4 8 -16t13 -25t19.5 -23.5t28.5 -10.5q19 2 35.5 5t24.5 11q20 9 32.5 18.5
t21.5 18.5t17.5 18.5t22.5 18.5q14 22 30.5 41.5t21.5 35.5q8 23 12.5 37t11.5 17q0 18 8 42t8 49q0 9 -3 24.5t-3 27.5v7.5t1 9.5q-7 7 -9.5 15t-6.5 18.5t-12 24t-26 32.5q-1 6 -9.5 12t-20.5 11t-25.5 8t-24.5 3q-10 0 -23 -3.5t-25.5 -8.5t-23 -10t-15.5 -8t-13 -10
t-17 -16t-18 -19.5t-16 -19.5q-5 -29 -10.5 -50t-10.5 -44t-8 -53.5t-3 -78.5zM216 793q0 8 5.5 13.5t10.5 15.5q5 8 17 15t19 7q12 0 20.5 -3.5t14.5 -7.5q9 0 12 -6t3 -29q0 -12 -3 -17t-8.5 -8t-12 -6.5t-12.5 -12.5q-2 2 -8 2.5t-14 0.5q-8 -2 -11.5 -2.5t-5.5 -0.5
q-18 10 -22.5 18.5t-4.5 20.5zM363 793q0 8 5.5 13.5t10.5 15.5q5 8 17 15t19 7q12 0 20.5 -3.5t14.5 -7.5q9 0 12 -6t3 -29q0 -12 -3 -17t-8.5 -8t-12 -6.5t-12.5 -12.5q-2 2 -8 2.5t-14 0.5q-8 -2 -11.5 -2.5t-5.5 -0.5q-18 10 -22.5 18.5t-4.5 20.5z" />
    <glyph glyph-name="multiply" unicode="&#xd7;" horiz-adv-x="600" 
d="M475 3l-174 173l-176 -172l-71 67l177 174l-177 175l70 69l176 -174l175 173l71 -68l-175 -175l175 -174z" />
    <glyph glyph-name="Oslash" unicode="&#xd8;" horiz-adv-x="537" 
d="M461 712q6 0 9.5 -3t5 -7.5t2.5 -10t3 -9.5q-1 -9 -1.5 -18.5t-0.5 -18.5q0 -7 1 -15t1 -13l-6 -21q7 -8 17 -23t18.5 -38t14.5 -53.5t6 -67.5q-3 -22 -4.5 -41.5t-6 -41t-13.5 -47t-26 -59.5q-5 -4 -9.5 -11.5t-10.5 -17t-15 -21.5t-25 -26q-2 -10 -9.5 -18.5t-17 -17
t-19 -17.5t-16.5 -20q-26 -17 -45.5 -32t-46.5 -34q-20 -5 -33 -11t-24.5 -11t-25 -8.5t-34.5 -3.5q-12 0 -22 1.5t-20 3.5q-13 -10 -21 -21.5t-13.5 -21t-9 -16t-8.5 -6.5q-7 0 -10.5 6.5t-5.5 15t-2.5 17t-0.5 13.5q0 7 2.5 12t5 10.5t5 12.5t2.5 18q-17 24 -23.5 59
t-6.5 72q0 10 0.5 29.5t2.5 27.5q3 15 5 29.5t5.5 34.5t10.5 48.5t22 71.5q5 27 12 42.5t13.5 26t11.5 17t5 15.5q18 36 38.5 56.5t39.5 33.5q7 10 20 19.5t21 20.5q12 4 21.5 12t19 15.5t19 13t20.5 5.5q12 0 16 6t15 6q4 0 7.5 -1t10 -3.5t17 -5.5t28.5 -7q6 -4 8 -6
q10 19 16.5 29.5t12 15.5t10.5 6.5t11 1.5zM443 374q0 9 -3 24.5t-3 27.5v7.5t1 9.5q-7 8 -10 16t-10 19q-6 -10 -14 -24t-16 -27.5t-15 -24.5t-12 -15q-8 -17 -21.5 -33.5t-22.5 -35.5q-18 -21 -33 -44.5t-29.5 -46.5t-30 -46.5t-34.5 -44.5q-8 -8 -14 -27t-15 -35
q13 -15 33 -15q39 0 66 16q19 9 30.5 18.5t20.5 19t17.5 19t22.5 20.5q14 22 30.5 41.5t21.5 35.5q8 23 12.5 37t11.5 17q0 18 8 42t8 49zM301 567q-10 0 -23 -3.5t-25.5 -8.5t-23 -10t-15.5 -8t-13 -10t-17 -16t-18 -19.5t-16 -19.5q-5 -29 -10.5 -50t-11 -44t-10 -53.5
t-6.5 -78.5q0 -10 -1.5 -18.5t-1.5 -21.5q0 -4 2.5 -20t4.5 -33q11 12 17.5 25.5t13.5 21.5q13 16 21.5 37.5t16.5 28.5q10 13 17.5 25.5t15.5 26.5t18.5 30.5t28.5 37.5q3 4 9 21t26 48q21 35 32 58.5t22 40.5q-11 5 -25.5 9t-27.5 4z" />
    <glyph glyph-name="Ugrave" unicode="&#xd9;" horiz-adv-x="519" 
d="M134 298q0 -35 3.5 -57t7.5 -37.5t7.5 -26.5t3.5 -24q5 -14 14 -24t14 -24q9 -7 17.5 -14t19.5 -7q18 0 30 10.5t20.5 24.5t16 28t17.5 22q13 25 19.5 43t10 31t6 22t8.5 16q3 3 6 16t7.5 31.5t10.5 40t14 42.5q7 55 17 83t10 46q0 9 2 16t5 15t6.5 18.5t7.5 27.5l11 14
q1 20 5 30t7 19q1 7 2.5 12t7 9.5t15.5 9.5t27 13q7 0 11 -9t7 -47q0 -17 -4 -40t-4 -53q-5 -23 -7 -43t-11 -48q-6 -17 -10 -34.5t-7.5 -32t-6.5 -25t-7 -13.5q-4 -33 -9.5 -58t-10.5 -46t-9 -39t-4 -37q-5 -12 -5.5 -32t-11.5 -50q-1 -9 -1.5 -22t-0.5 -39q0 -9 2.5 -13.5
t6 -8t6 -6.5t2.5 -7q0 -10 -8 -14.5t-12 -20.5q-11 -7 -23.5 -20.5t-31.5 -13.5q-9 0 -14 4t-7 9t-3 11t-3 9q0 6 2 10t2 8q0 5 -2.5 7.5t-2.5 8.5q0 4 1.5 6.5t1.5 6.5q0 38 5.5 61.5t5.5 32.5q0 8 -1.5 9.5t-3.5 1.5q-5 0 -9.5 -6.5t-9 -15.5t-10 -18.5t-12.5 -15.5
q-1 -4 -2.5 -7.5t-7 -10.5t-17 -18.5l-30.5 -30.5q-14 -13 -39 -19.5t-49 -6.5q-18 0 -30 11t-20.5 26t-14.5 29.5t-10 21.5q-2 11 -7 31t-9 31q-2 15 -2 30v25q-4 2 -6 9t-2 14q0 9 1 13.5t1 9.5q0 11 -2.5 17.5t-2.5 14.5q0 13 1.5 22.5t2.5 13.5q-3 8 -4 24t-1 52v71
q0 30 2 41t5 19q1 48 2.5 76.5t5.5 45t11 24.5t20 16q6 0 9 -4.5t5.5 -11t5.5 -14t8 -12.5q15 -2 25 -19.5t10 -34.5q0 -8 -2 -21t-4.5 -26.5t-4.5 -26t-2 -20.5q0 -25 -2 -40t-4.5 -24.5t-4.5 -15t-2 -11.5q0 -3 0.5 -7t1 -12t1 -23t0.5 -39q-3 -8 -3 -16zM202 888
q3 0 6 -6t11.5 -17t25 -27t45.5 -36q16 -11 27 -16t21.5 -9t21.5 -8.5t27 -13.5q0 -13 -8.5 -17t-13.5 -6q-8 3 -18.5 6t-22 6.5t-22 7t-17.5 7.5q-9 5 -17.5 10t-13.5 6q-11 2 -31.5 16.5t-47.5 23.5q-4 11 -8 17t-10 13q0 24 2 26q8 11 19.5 14t23.5 3z" />
    <glyph glyph-name="Uacute" unicode="&#xda;" horiz-adv-x="519" 
d="M134 298q0 -35 3.5 -57t7.5 -37.5t7.5 -26.5t3.5 -24q5 -14 14 -24t14 -24q9 -7 17.5 -14t19.5 -7q18 0 30 10.5t20.5 24.5t16 28t17.5 22q13 25 19.5 43t10 31t6 22t8.5 16q3 3 6 16t7.5 31.5t10.5 40t14 42.5q7 55 17 83t10 46q0 9 2 16t5 15t6.5 18.5t7.5 27.5l11 14
q1 20 5 30t7 19q1 7 2.5 12t7 9.5t15.5 9.5t27 13q7 0 11 -9t7 -47q0 -17 -4 -40t-4 -53q-5 -23 -7 -43t-11 -48q-6 -17 -10 -34.5t-7.5 -32t-6.5 -25t-7 -13.5q-4 -33 -9.5 -58t-10.5 -46t-9 -39t-4 -37q-5 -12 -5.5 -32t-11.5 -50q-1 -9 -1.5 -22t-0.5 -39q0 -9 2.5 -13.5
t6 -8t6 -6.5t2.5 -7q0 -10 -8 -14.5t-12 -20.5q-11 -7 -23.5 -20.5t-31.5 -13.5q-9 0 -14 4t-7 9t-3 11t-3 9q0 6 2 10t2 8q0 5 -2.5 7.5t-2.5 8.5q0 4 1.5 6.5t1.5 6.5q0 38 5.5 61.5t5.5 32.5q0 8 -1.5 9.5t-3.5 1.5q-5 0 -9.5 -6.5t-9 -15.5t-10 -18.5t-12.5 -15.5
q-1 -4 -2.5 -7.5t-7 -10.5t-17 -18.5l-30.5 -30.5q-14 -13 -39 -19.5t-49 -6.5q-18 0 -30 11t-20.5 26t-14.5 29.5t-10 21.5q-2 11 -7 31t-9 31q-2 15 -2 30v25q-4 2 -6 9t-2 14q0 9 1 13.5t1 9.5q0 11 -2.5 17.5t-2.5 14.5q0 13 1.5 22.5t2.5 13.5q-3 8 -4 24t-1 52v71
q0 30 2 41t5 19q1 48 2.5 76.5t5.5 45t11 24.5t20 16q6 0 9 -4.5t5.5 -11t5.5 -14t8 -12.5q15 -2 25 -19.5t10 -34.5q0 -8 -2 -21t-4.5 -26.5t-4.5 -26t-2 -20.5q0 -25 -2 -40t-4.5 -24.5t-4.5 -15t-2 -11.5q0 -3 0.5 -7t1 -12t1 -23t0.5 -39q-3 -8 -3 -16zM384 888
q12 0 23.5 -3t19.5 -14q2 -2 2 -26q-6 -7 -10 -13t-8 -17q-27 -9 -47.5 -23.5t-31.5 -16.5q-5 -1 -13.5 -6t-17.5 -10q-7 -4 -17.5 -7.5t-22 -7t-22.5 -6.5t-18 -6q-5 2 -13.5 6t-8.5 17q16 9 27 13.5t21.5 8.5t21.5 9t27 16q29 20 45.5 36t25 27t11.5 17t6 6z" />
    <glyph glyph-name="Ucircumflex" unicode="&#xdb;" horiz-adv-x="519" 
d="M134 298q0 -35 3.5 -57t7.5 -37.5t7.5 -26.5t3.5 -24q5 -14 14 -24t14 -24q9 -7 17.5 -14t19.5 -7q18 0 30 10.5t20.5 24.5t16 28t17.5 22q13 25 19.5 43t10 31t6 22t8.5 16q3 3 6 16t7.5 31.5t10.5 40t14 42.5q7 55 17 83t10 46q0 9 2 16t5 15t6.5 18.5t7.5 27.5l11 14
q1 20 5 30t7 19q1 7 2.5 12t7 9.5t15.5 9.5t27 13q7 0 11 -9t7 -47q0 -17 -4 -40t-4 -53q-5 -23 -7 -43t-11 -48q-6 -17 -10 -34.5t-7.5 -32t-6.5 -25t-7 -13.5q-4 -33 -9.5 -58t-10.5 -46t-9 -39t-4 -37q-5 -12 -5.5 -32t-11.5 -50q-1 -9 -1.5 -22t-0.5 -39q0 -9 2.5 -13.5
t6 -8t6 -6.5t2.5 -7q0 -10 -8 -14.5t-12 -20.5q-11 -7 -23.5 -20.5t-31.5 -13.5q-9 0 -14 4t-7 9t-3 11t-3 9q0 6 2 10t2 8q0 5 -2.5 7.5t-2.5 8.5q0 4 1.5 6.5t1.5 6.5q0 38 5.5 61.5t5.5 32.5q0 8 -1.5 9.5t-3.5 1.5q-5 0 -9.5 -6.5t-9 -15.5t-10 -18.5t-12.5 -15.5
q-1 -4 -2.5 -7.5t-7 -10.5t-17 -18.5l-30.5 -30.5q-14 -13 -39 -19.5t-49 -6.5q-18 0 -30 11t-20.5 26t-14.5 29.5t-10 21.5q-2 11 -7 31t-9 31q-2 15 -2 30v25q-4 2 -6 9t-2 14q0 9 1 13.5t1 9.5q0 11 -2.5 17.5t-2.5 14.5q0 13 1.5 22.5t2.5 13.5q-3 8 -4 24t-1 52v71
q0 30 2 41t5 19q1 48 2.5 76.5t5.5 45t11 24.5t20 16q6 0 9 -4.5t5.5 -11t5.5 -14t8 -12.5q15 -2 25 -19.5t10 -34.5q0 -8 -2 -21t-4.5 -26.5t-4.5 -26t-2 -20.5q0 -25 -2 -40t-4.5 -24.5t-4.5 -15t-2 -11.5q0 -3 0.5 -7t1 -12t1 -23t0.5 -39q-3 -8 -3 -16zM281 798
q-4 0 -10.5 -4t-14.5 -9.5t-15.5 -10.5t-12.5 -7q-17 -7 -31.5 -18t-17.5 -11q-8 0 -13.5 7.5t-5.5 15.5q0 4 4.5 9.5t8.5 13.5q12 13 34.5 25t37.5 28q17 5 25 13t19 8q14 0 33.5 -14.5t55.5 -28.5q9 -3 16 -9.5t13 -10.5q10 -6 12 -16.5t2 -31.5q0 -9 -6 -9t-14.5 4.5
t-19 10.5t-23 11.5t-27.5 8.5q-2 0 -8 4t-13.5 8.5t-15.5 8.5t-13 4z" />
    <glyph glyph-name="Udieresis" unicode="&#xdc;" horiz-adv-x="519" 
d="M134 298q0 -35 3.5 -57t7.5 -37.5t7.5 -26.5t3.5 -24q5 -14 14 -24t14 -24q9 -7 17.5 -14t19.5 -7q18 0 30 10.5t20.5 24.5t16 28t17.5 22q13 25 19.5 43t10 31t6 22t8.5 16q3 3 6 16t7.5 31.5t10.5 40t14 42.5q7 55 17 83t10 46q0 9 2 16t5 15t6.5 18.5t7.5 27.5l11 14
q1 20 5 30t7 19q1 7 2.5 12t7 9.5t15.5 9.5t27 13q7 0 11 -9t7 -47q0 -17 -4 -40t-4 -53q-5 -23 -7 -43t-11 -48q-6 -17 -10 -34.5t-7.5 -32t-6.5 -25t-7 -13.5q-4 -33 -9.5 -58t-10.5 -46t-9 -39t-4 -37q-5 -12 -5.5 -32t-11.5 -50q-1 -9 -1.5 -22t-0.5 -39q0 -9 2.5 -13.5
t6 -8t6 -6.5t2.5 -7q0 -10 -8 -14.5t-12 -20.5q-11 -7 -23.5 -20.5t-31.5 -13.5q-9 0 -14 4t-7 9t-3 11t-3 9q0 6 2 10t2 8q0 5 -2.5 7.5t-2.5 8.5q0 4 1.5 6.5t1.5 6.5q0 38 5.5 61.5t5.5 32.5q0 8 -1.5 9.5t-3.5 1.5q-5 0 -9.5 -6.5t-9 -15.5t-10 -18.5t-12.5 -15.5
q-1 -4 -2.5 -7.5t-7 -10.5t-17 -18.5l-30.5 -30.5q-14 -13 -39 -19.5t-49 -6.5q-18 0 -30 11t-20.5 26t-14.5 29.5t-10 21.5q-2 11 -7 31t-9 31q-2 15 -2 30v25q-4 2 -6 9t-2 14q0 9 1 13.5t1 9.5q0 11 -2.5 17.5t-2.5 14.5q0 13 1.5 22.5t2.5 13.5q-3 8 -4 24t-1 52v71
q0 30 2 41t5 19q1 48 2.5 76.5t5.5 45t11 24.5t20 16q6 0 9 -4.5t5.5 -11t5.5 -14t8 -12.5q15 -2 25 -19.5t10 -34.5q0 -8 -2 -21t-4.5 -26.5t-4.5 -26t-2 -20.5q0 -25 -2 -40t-4.5 -24.5t-4.5 -15t-2 -11.5q0 -3 0.5 -7t1 -12t1 -23t0.5 -39q-3 -8 -3 -16zM156 793
q0 8 5.5 13.5t10.5 15.5q5 8 17 15t19 7q12 0 20.5 -3.5t14.5 -7.5q9 0 12 -6t3 -29q0 -12 -3 -17t-8.5 -8t-12 -6.5t-12.5 -12.5q-2 2 -8 2.5t-14 0.5q-8 -2 -11.5 -2.5t-5.5 -0.5q-18 10 -22.5 18.5t-4.5 20.5zM303 793q0 8 5.5 13.5t10.5 15.5q5 8 17 15t19 7
q12 0 20.5 -3.5t14.5 -7.5q9 0 12 -6t3 -29q0 -12 -3 -17t-8.5 -8t-12 -6.5t-12.5 -12.5q-2 2 -8 2.5t-14 0.5q-8 -2 -11.5 -2.5t-5.5 -0.5q-18 10 -22.5 18.5t-4.5 20.5z" />
    <glyph glyph-name="Yacute" unicode="&#xdd;" 
d="M159 641q0 -21 -2 -46.5t-2 -54.5q0 -5 3 -16.5t3 -48.5q6 -20 7.5 -36.5t6.5 -33.5q2 -26 8 -42t7 -40q9 -9 11.5 -21t8.5 -12t16.5 20t22 46.5t23 51.5t20.5 35q6 25 14 43.5t16 33t14 24t8 16.5q3 10 6.5 17t8.5 14t11.5 16.5t14.5 26.5q12 17 20 30.5t13.5 22.5
t10.5 14t12 5q9 0 13 -7t9 -10q0 -41 -2 -59t-7 -26l-6.5 -26t-11 -37t-13.5 -35.5t-13 -21.5q-1 -18 -4.5 -24.5t-9.5 -10.5q-5 -18 -11 -28t-12.5 -19t-13.5 -20t-14 -30q-19 -20 -27.5 -40.5t-21.5 -31.5q0 -6 -8 -27t-18 -44t-19.5 -42.5t-13.5 -23.5q-2 -15 -5.5 -27
t-8 -25t-7.5 -28t-3 -34q0 -9 5 -13t5 -12q0 -2 -3.5 -7.5t-8.5 -10.5t-12 -9t-14 -4q-2 -7 -15 -11t-21 -4q-6 2 -14 3t-15 3t-12 5.5t-5 11.5q0 7 3 21t7 29t9 28t10 17q1 23 8 39.5t9 28.5q8 8 14.5 22t6.5 36q-13 4 -22.5 19t-18 33.5t-16 38t-16.5 32.5q-2 8 -5 22
t-7 28.5t-7.5 25.5t-5.5 13q0 9 -2.5 17t-5.5 22t-6.5 37.5t-5.5 64.5q-7 5 -8.5 27t-1.5 51q0 2 2.5 8t6.5 12t9 10.5t10 4.5h9q7 0 17 7t26 7q3 0 9.5 -3.5t12.5 -9.5t10.5 -13.5t4.5 -14.5zM384 888q12 0 23.5 -3t19.5 -14q2 -2 2 -26q-6 -7 -10 -13t-8 -17
q-27 -9 -47.5 -23.5t-31.5 -16.5q-5 -1 -13.5 -6t-17.5 -10q-7 -4 -17.5 -7.5t-22 -7t-22.5 -6.5t-18 -6q-5 2 -13.5 6t-8.5 17q16 9 27 13.5t21.5 8.5t21.5 9t27 16q29 20 45.5 36t25 27t11.5 17t6 6z" />
    <glyph glyph-name="Thorn" unicode="&#xde;" 
d="M5 462q0 13 3.5 20.5t8 13t8.5 10.5t5 13q16 6 25.5 11t18.5 8.5t20.5 7t31.5 6.5q0 9 1 22.5t2.5 27.5t3 27.5t3.5 23.5q6 2 10 8t10 12t16.5 10.5t29.5 4.5q20 -6 28.5 -16.5t8.5 -23.5q-2 -5 -4.5 -16t-5 -24t-4.5 -24.5t-3 -17.5q6 1 17 1h40q4 0 8.5 3.5t18.5 3.5
q13 0 21.5 -1.5t14.5 -3l12 -3t15 -1.5q21 0 35 -5.5t34 -16.5q7 0 18 -7.5t32 -36.5q0 -7 -0.5 -11t-0.5 -8t1 -8.5t1 -12.5q-2 -6 -2 -14t-2 -12q-15 -34 -32.5 -56.5t-33.5 -29.5l-27 -24q-30 -15 -52 -33t-51 -31q-15 -12 -29.5 -20.5t-28.5 -16.5t-29 -17t-30 -22
q-2 -1 -2 -53q0 -37 6 -47t11 -10t13 10.5t15 10.5q3 0 6.5 -2t5.5 -4q-8 -9 -16.5 -28t-20 -37.5t-26.5 -32.5t-34 -14q-16 0 -20.5 4.5t-5.5 13.5q-7 35 -8.5 72t-5.5 58q-4 -2 -12.5 -7.5t-18.5 -13.5q0 11 -6.5 18.5t-34.5 16.5q-5 11 -6 15t-1 8q0 13 4.5 19t11.5 9
t15.5 5t17.5 6q3 2 9 7.5t23 11.5q2 14 3 32t1 41q5 13 7 24.5t2 21.5t-1 17t-1 10q0 32 5 58.5t8 47.5q-47 -7 -69.5 -12t-33.5 -5q-8 0 -8 8zM383 418q0 18 -17 30t-40.5 18.5t-47.5 9.5t-37 3q-19 0 -27 -4.5t-12 -13.5q-2 -4 -3.5 -17t-3 -29.5t-4 -33.5t-5.5 -30
q0 -2 1 -8t1 -11q0 -10 -1 -27.5t-3 -46.5q7 1 20 10t19 14q13 2 26 9.5t27 18l30 22.5t34 22q5 9 12.5 17.5t14 16t11.5 15t5 15.5z" />
    <glyph glyph-name="germandbls" unicode="&#xdf;" horiz-adv-x="370" 
d="M338 259q0 -16 -2.5 -25.5t-2.5 -23.5q-5 -23 -17 -46t-25.5 -42.5t-26 -31.5t-16.5 -12q-3 -5 -16 -16.5t-30.5 -23t-35 -20.5t-29.5 -9q-6 0 -12.5 2.5t-12.5 4.5q0 4 -3.5 7t-7.5 5.5t-7 5t-3 6.5q0 5 8.5 11t20.5 13t24.5 15t20.5 18q7 9 18.5 21t23 30t19.5 44t8 62
q0 19 -1.5 26.5t-4.5 11.5t-7 9.5t-10 22.5q-25 22 -33.5 34t-8.5 29q0 14 5.5 23.5t15 18.5t22.5 20t27 29q13 22 24.5 35.5t20.5 25t14 22.5t5 29q0 23 -5.5 32.5t-22.5 9.5q-14 0 -28 -7t-26.5 -17.5t-22.5 -23t-14 -23.5q-20 -26 -31 -70.5t-22 -119.5q-3 -4 -5 -17
t-5 -29t-6.5 -32.5t-8.5 -26.5q-1 -16 -2.5 -26.5t-3.5 -19.5l-4 -18t-4 -22q-7 -47 -16 -92t-12 -92q-2 -22 -7.5 -45.5t-5.5 -46.5q0 -10 -2 -25.5t-4.5 -33t-5.5 -35.5t-4 -33q-5 -34 -13.5 -43.5t-21.5 -9.5q-14 0 -20 12.5t-9 23.5q0 56 6 110.5t10 109.5q2 7 4.5 23.5
t5 35.5t4 36.5t1.5 26.5q2 1 4 21l4.5 45t6 48t7.5 29q0 19 1.5 30.5t4 18.5t4.5 11t2 8q2 37 8.5 63t6.5 54q0 2 2.5 9.5t5.5 18t5.5 21.5t2.5 21q9 23 14.5 42.5t13 37.5t20 34.5t35.5 34.5q21 16 37.5 31t44.5 20q5 5 15.5 5.5t21.5 0.5q12 0 19 -1.5t17 -1.5
q6 -3 14 -4.5t17 -5t19.5 -10.5t21.5 -22q13 -12 17.5 -24t4.5 -41q0 -9 -1.5 -20.5t-3.5 -19.5q-6 -8 -9.5 -18.5t-15 -26t-35 -37.5t-68.5 -54q-2 -9 -6.5 -11.5t-4.5 -12.5q0 -11 5 -19t12 -15t15 -12.5t14 -11.5q9 -14 23 -30.5t14 -48.5z" />
    <glyph glyph-name="agrave" unicode="&#xe0;" horiz-adv-x="407" 
d="M414 156q0 -10 1 -18t1 -11q0 -2 -1.5 -5.5t-1.5 -8.5q0 -3 1 -6t1 -8q0 -8 -9 -12.5t-17 -14.5q-22 -15 -34.5 -21.5t-22.5 -6.5q-3 0 -7 1.5t-6 1.5t-6.5 -1.5t-8.5 -1.5q-11 0 -25.5 9.5t-19.5 23.5q-7 4 -9 15t-3 22t-2.5 19.5t-6.5 8.5q-3 0 -8.5 -4t-11.5 -9.5
t-11.5 -12t-8.5 -10.5q-6 0 -12 -6t-12.5 -14t-14.5 -16t-20 -14q-15 -20 -33.5 -28.5t-30.5 -19.5q-11 -1 -17 -4.5t-13 -3.5t-19 6.5t-17 10.5q-5 14 -6 20.5t-1 11.5q0 15 5 25t5 14q0 3 -5 4.5t-7 1.5q0 20 0.5 33t2 21.5t5.5 13.5t12 10q7 4 14 11t13 14t11.5 12t9.5 6
q12 18 19.5 26t22.5 17q4 8 13 15.5t19.5 15t21.5 16t20 19.5q9 2 17 9.5t16 16.5q13 8 24.5 16.5t22.5 16t22.5 12.5t24.5 5q15 0 19.5 -7.5t12.5 -14.5q-2 -17 -13.5 -31t-28.5 -19q-10 -20 -24.5 -29.5t-29.5 -25.5q-5 -9 -13.5 -17t-20.5 -16q-7 -11 -17 -21.5
t-19 -14.5q-8 -16 -27 -32t-31 -35q-2 -8 -6.5 -12t-4.5 -13q15 0 26 12t29 20q3 7 19.5 23.5t37.5 26.5q11 19 28.5 30t28.5 22q10 2 19 3t14 1q7 0 9.5 -5t3 -12t1.5 -14.5t5 -11.5q0 -9 -2 -15.5t-2 -20.5q0 -16 9.5 -30t26.5 -14q14 0 19 6t10 6q11 6 14 13t7 7z
M188 592q3 0 6 -6t11.5 -17t25 -27t45.5 -36q16 -11 27 -16t21.5 -9t21.5 -8.5t27 -13.5q0 -13 -8.5 -17t-13.5 -6q-8 3 -18.5 6t-22 6.5t-22 7t-17.5 7.5q-9 5 -17.5 10t-13.5 6q-11 2 -31.5 16.5t-47.5 23.5q-4 11 -8 17t-10 13q0 24 2 26q8 11 19.5 14t23.5 3z" />
    <glyph glyph-name="aacute" unicode="&#xe1;" horiz-adv-x="407" 
d="M414 156q0 -10 1 -18t1 -11q0 -2 -1.5 -5.5t-1.5 -8.5q0 -3 1 -6t1 -8q0 -8 -9 -12.5t-17 -14.5q-22 -15 -34.5 -21.5t-22.5 -6.5q-3 0 -7 1.5t-6 1.5t-6.5 -1.5t-8.5 -1.5q-11 0 -25.5 9.5t-19.5 23.5q-7 4 -9 15t-3 22t-2.5 19.5t-6.5 8.5q-3 0 -8.5 -4t-11.5 -9.5
t-11.5 -12t-8.5 -10.5q-6 0 -12 -6t-12.5 -14t-14.5 -16t-20 -14q-15 -20 -33.5 -28.5t-30.5 -19.5q-11 -1 -17 -4.5t-13 -3.5t-19 6.5t-17 10.5q-5 14 -6 20.5t-1 11.5q0 15 5 25t5 14q0 3 -5 4.5t-7 1.5q0 20 0.5 33t2 21.5t5.5 13.5t12 10q7 4 14 11t13 14t11.5 12t9.5 6
q12 18 19.5 26t22.5 17q4 8 13 15.5t19.5 15t21.5 16t20 19.5q9 2 17 9.5t16 16.5q13 8 24.5 16.5t22.5 16t22.5 12.5t24.5 5q15 0 19.5 -7.5t12.5 -14.5q-2 -17 -13.5 -31t-28.5 -19q-10 -20 -24.5 -29.5t-29.5 -25.5q-5 -9 -13.5 -17t-20.5 -16q-7 -11 -17 -21.5
t-19 -14.5q-8 -16 -27 -32t-31 -35q-2 -8 -6.5 -12t-4.5 -13q15 0 26 12t29 20q3 7 19.5 23.5t37.5 26.5q11 19 28.5 30t28.5 22q10 2 19 3t14 1q7 0 9.5 -5t3 -12t1.5 -14.5t5 -11.5q0 -9 -2 -15.5t-2 -20.5q0 -16 9.5 -30t26.5 -14q14 0 19 6t10 6q11 6 14 13t7 7z
M373 592q12 0 23.5 -3t19.5 -14q2 -2 2 -26q-6 -7 -10 -13t-8 -17q-27 -9 -47.5 -23.5t-31.5 -16.5q-5 -1 -13.5 -6t-17.5 -10q-7 -4 -17.5 -7.5t-22 -7t-22.5 -6.5t-18 -6q-5 2 -13.5 6t-8.5 17q16 9 27 13.5t21.5 8.5t21.5 9t27 16q29 20 45.5 36t25 27t11.5 17t6 6z" />
    <glyph glyph-name="acircumflex" unicode="&#xe2;" horiz-adv-x="407" 
d="M414 156q0 -10 1 -18t1 -11q0 -2 -1.5 -5.5t-1.5 -8.5q0 -3 1 -6t1 -8q0 -8 -9 -12.5t-17 -14.5q-22 -15 -34.5 -21.5t-22.5 -6.5q-3 0 -7 1.5t-6 1.5t-6.5 -1.5t-8.5 -1.5q-11 0 -25.5 9.5t-19.5 23.5q-7 4 -9 15t-3 22t-2.5 19.5t-6.5 8.5q-3 0 -8.5 -4t-11.5 -9.5
t-11.5 -12t-8.5 -10.5q-6 0 -12 -6t-12.5 -14t-14.5 -16t-20 -14q-15 -20 -33.5 -28.5t-30.5 -19.5q-11 -1 -17 -4.5t-13 -3.5t-19 6.5t-17 10.5q-5 14 -6 20.5t-1 11.5q0 15 5 25t5 14q0 3 -5 4.5t-7 1.5q0 20 0.5 33t2 21.5t5.5 13.5t12 10q7 4 14 11t13 14t11.5 12t9.5 6
q12 18 19.5 26t22.5 17q4 8 13 15.5t19.5 15t21.5 16t20 19.5q9 2 17 9.5t16 16.5q13 8 24.5 16.5t22.5 16t22.5 12.5t24.5 5q15 0 19.5 -7.5t12.5 -14.5q-2 -17 -13.5 -31t-28.5 -19q-10 -20 -24.5 -29.5t-29.5 -25.5q-5 -9 -13.5 -17t-20.5 -16q-7 -11 -17 -21.5
t-19 -14.5q-8 -16 -27 -32t-31 -35q-2 -8 -6.5 -12t-4.5 -13q15 0 26 12t29 20q3 7 19.5 23.5t37.5 26.5q11 19 28.5 30t28.5 22q10 2 19 3t14 1q7 0 9.5 -5t3 -12t1.5 -14.5t5 -11.5q0 -9 -2 -15.5t-2 -20.5q0 -16 9.5 -30t26.5 -14q14 0 19 6t10 6q11 6 14 13t7 7z
M269 502q-4 0 -10.5 -4t-14.5 -9.5t-15.5 -10.5t-12.5 -7q-17 -7 -31.5 -18t-17.5 -11q-8 0 -13.5 7.5t-5.5 15.5q0 4 4.5 9.5t8.5 13.5q12 13 34.5 25t37.5 28q17 5 25 13t19 8q14 0 33.5 -14.5t55.5 -28.5q9 -3 16 -9.5t13 -10.5q10 -6 12 -16.5t2 -31.5q0 -9 -6 -9
t-14.5 4.5t-19 10.5t-23 11.5t-27.5 8.5q-2 0 -8 4t-13.5 8.5t-15.5 8.5t-13 4z" />
    <glyph glyph-name="atilde" unicode="&#xe3;" horiz-adv-x="407" 
d="M414 156q0 -10 1 -18t1 -11q0 -2 -1.5 -5.5t-1.5 -8.5q0 -3 1 -6t1 -8q0 -8 -9 -12.5t-17 -14.5q-22 -15 -34.5 -21.5t-22.5 -6.5q-3 0 -7 1.5t-6 1.5t-6.5 -1.5t-8.5 -1.5q-11 0 -25.5 9.5t-19.5 23.5q-7 4 -9 15t-3 22t-2.5 19.5t-6.5 8.5q-3 0 -8.5 -4t-11.5 -9.5
t-11.5 -12t-8.5 -10.5q-6 0 -12 -6t-12.5 -14t-14.5 -16t-20 -14q-15 -20 -33.5 -28.5t-30.5 -19.5q-11 -1 -17 -4.5t-13 -3.5t-19 6.5t-17 10.5q-5 14 -6 20.5t-1 11.5q0 15 5 25t5 14q0 3 -5 4.5t-7 1.5q0 20 0.5 33t2 21.5t5.5 13.5t12 10q7 4 14 11t13 14t11.5 12t9.5 6
q12 18 19.5 26t22.5 17q4 8 13 15.5t19.5 15t21.5 16t20 19.5q9 2 17 9.5t16 16.5q13 8 24.5 16.5t22.5 16t22.5 12.5t24.5 5q15 0 19.5 -7.5t12.5 -14.5q-2 -17 -13.5 -31t-28.5 -19q-10 -20 -24.5 -29.5t-29.5 -25.5q-5 -9 -13.5 -17t-20.5 -16q-7 -11 -17 -21.5
t-19 -14.5q-8 -16 -27 -32t-31 -35q-2 -8 -6.5 -12t-4.5 -13q15 0 26 12t29 20q3 7 19.5 23.5t37.5 26.5q11 19 28.5 30t28.5 22q10 2 19 3t14 1q7 0 9.5 -5t3 -12t1.5 -14.5t5 -11.5q0 -9 -2 -15.5t-2 -20.5q0 -16 9.5 -30t26.5 -14q14 0 19 6t10 6q11 6 14 13t7 7z
M273 553q14 0 21 -2t10 -5.5t5.5 -7.5t7.5 -8q0 -6 -1.5 -15t-1.5 -14q0 -3 3.5 -5.5t8.5 -2.5t17 4.5t29 9.5q19 5 31.5 14.5t27.5 9.5q11 0 11 -6q0 -8 -1 -16t-7 -12q0 -5 -11.5 -11t-27.5 -12t-32 -10.5t-25 -4.5q-15 -2 -33 -8t-27 -6q-12 0 -16 8.5t-7 18.5t-7 18.5
t-14 8.5q-13 0 -27 -8.5t-18 -9.5q-8 -2 -17.5 -6t-18.5 -9t-16.5 -8.5t-11.5 -3.5q-8 0 -8 7q0 2 1.5 9t1.5 14q6 8 13.5 13.5t16.5 5.5q5 5 19.5 12.5t30.5 14.5t29.5 12t17.5 5t8 3t18 3z" />
    <glyph glyph-name="adieresis" unicode="&#xe4;" horiz-adv-x="407" 
d="M414 156q0 -10 1 -18t1 -11q0 -2 -1.5 -5.5t-1.5 -8.5q0 -3 1 -6t1 -8q0 -8 -9 -12.5t-17 -14.5q-22 -15 -34.5 -21.5t-22.5 -6.5q-3 0 -7 1.5t-6 1.5t-6.5 -1.5t-8.5 -1.5q-11 0 -25.5 9.5t-19.5 23.5q-7 4 -9 15t-3 22t-2.5 19.5t-6.5 8.5q-3 0 -8.5 -4t-11.5 -9.5
t-11.5 -12t-8.5 -10.5q-6 0 -12 -6t-12.5 -14t-14.5 -16t-20 -14q-15 -20 -33.5 -28.5t-30.5 -19.5q-11 -1 -17 -4.5t-13 -3.5t-19 6.5t-17 10.5q-5 14 -6 20.5t-1 11.5q0 15 5 25t5 14q0 3 -5 4.5t-7 1.5q0 20 0.5 33t2 21.5t5.5 13.5t12 10q7 4 14 11t13 14t11.5 12t9.5 6
q12 18 19.5 26t22.5 17q4 8 13 15.5t19.5 15t21.5 16t20 19.5q9 2 17 9.5t16 16.5q13 8 24.5 16.5t22.5 16t22.5 12.5t24.5 5q15 0 19.5 -7.5t12.5 -14.5q-2 -17 -13.5 -31t-28.5 -19q-10 -20 -24.5 -29.5t-29.5 -25.5q-5 -9 -13.5 -17t-20.5 -16q-7 -11 -17 -21.5
t-19 -14.5q-8 -16 -27 -32t-31 -35q-2 -8 -6.5 -12t-4.5 -13q15 0 26 12t29 20q3 7 19.5 23.5t37.5 26.5q11 19 28.5 30t28.5 22q10 2 19 3t14 1q7 0 9.5 -5t3 -12t1.5 -14.5t5 -11.5q0 -9 -2 -15.5t-2 -20.5q0 -16 9.5 -30t26.5 -14q14 0 19 6t10 6q11 6 14 13t7 7z
M154 487q0 8 5.5 13.5t10.5 15.5q5 8 17 15t19 7q12 0 20.5 -3.5t14.5 -7.5q9 0 12 -6t3 -29q0 -12 -3 -17t-8.5 -8t-12 -6.5t-12.5 -12.5q-2 2 -8 2.5t-14 0.5q-8 -2 -11.5 -2.5t-5.5 -0.5q-18 10 -22.5 18.5t-4.5 20.5zM301 487q0 8 5.5 13.5t10.5 15.5q5 8 17 15t19 7
q12 0 20.5 -3.5t14.5 -7.5q9 0 12 -6t3 -29q0 -12 -3 -17t-8.5 -8t-12 -6.5t-12.5 -12.5q-2 2 -8 2.5t-14 0.5q-8 -2 -11.5 -2.5t-5.5 -0.5q-18 10 -22.5 18.5t-4.5 20.5z" />
    <glyph glyph-name="aring" unicode="&#xe5;" horiz-adv-x="407" 
d="M414 156q0 -10 1 -18t1 -11q0 -2 -1.5 -5.5t-1.5 -8.5q0 -3 1 -6t1 -8q0 -8 -9 -12.5t-17 -14.5q-22 -15 -34.5 -21.5t-22.5 -6.5q-3 0 -7 1.5t-6 1.5t-6.5 -1.5t-8.5 -1.5q-11 0 -25.5 9.5t-19.5 23.5q-7 4 -9 15t-3 22t-2.5 19.5t-6.5 8.5q-3 0 -8.5 -4t-11.5 -9.5
t-11.5 -12t-8.5 -10.5q-6 0 -12 -6t-12.5 -14t-14.5 -16t-20 -14q-15 -20 -33.5 -28.5t-30.5 -19.5q-11 -1 -17 -4.5t-13 -3.5t-19 6.5t-17 10.5q-5 14 -6 20.5t-1 11.5q0 15 5 25t5 14q0 3 -5 4.5t-7 1.5q0 20 0.5 33t2 21.5t5.5 13.5t12 10q7 4 14 11t13 14t11.5 12t9.5 6
q12 18 19.5 26t22.5 17q4 8 13 15.5t19.5 15t21.5 16t20 19.5q9 2 17 9.5t16 16.5q13 8 24.5 16.5t22.5 16t22.5 12.5t24.5 5q15 0 19.5 -7.5t12.5 -14.5q-2 -17 -13.5 -31t-28.5 -19q-10 -20 -24.5 -29.5t-29.5 -25.5q-5 -9 -13.5 -17t-20.5 -16q-7 -11 -17 -21.5
t-19 -14.5q-8 -16 -27 -32t-31 -35q-2 -8 -6.5 -12t-4.5 -13q15 0 26 12t29 20q3 7 19.5 23.5t37.5 26.5q11 19 28.5 30t28.5 22q10 2 19 3t14 1q7 0 9.5 -5t3 -12t1.5 -14.5t5 -11.5q0 -9 -2 -15.5t-2 -20.5q0 -16 9.5 -30t26.5 -14q14 0 19 6t10 6q11 6 14 13t7 7z
M216 477q0 11 6 25t10 16q20 30 38 43t47 13q14 0 25.5 -4.5t33.5 -21.5q5 -15 5 -27q0 -8 -1.5 -11.5l-3 -7t-3 -7.5t-1.5 -11q0 -4 -2.5 -10t-7 -12t-9.5 -11.5t-11 -6.5q-11 -3 -23 -9.5t-30 -6.5q-11 0 -17 3.5t-19 7.5q-12 4 -24.5 13.5t-12.5 24.5zM339 512
q0 14 -8.5 17t-19.5 3q-21 0 -37 -15.5t-16 -35.5q2 -5 11 -8t14 -3q2 0 9 1t15 2.5t15 4t10 6.5q3 5 5 11t2 17z" />
    <glyph glyph-name="ae" unicode="&#xe6;" horiz-adv-x="574" 
d="M523 326q0 -10 -1 -21t-9 -14q-4 -14 -12.5 -26.5t-21.5 -24.5q-6 -9 -16.5 -19.5t-20.5 -19.5t-19 -15t-12 -7q-8 -13 -18 -17.5t-18 -14.5q2 -21 4 -30.5t6 -11.5q10 -5 17.5 -12t30.5 -7q15 0 27.5 3.5t23 8t19 9t13.5 5.5q1 2 5 4.5t8.5 5t8.5 4.5t5 4l8 3
q13 5 17.5 15.5t12.5 10.5t8 -7q0 -4 -1 -7t-1 -6q0 -29 -4 -38.5t-8 -11.5q-21 -11 -41 -25t-39 -26t-38 -20t-38 -8q-12 -4 -24 -4q-13 0 -23 3.5t-19 8.5t-17 11t-17 11q-12 7 -20.5 15.5t-14.5 22t-9 33.5t-3 52q-6 -6 -16.5 -12.5t-21.5 -13.5t-21 -15t-15 -16
q-6 0 -12 -6t-12.5 -14t-14.5 -16t-20 -14q-15 -20 -33.5 -28.5t-30.5 -19.5q-11 -1 -17 -4.5t-13 -3.5t-19 6.5t-17 10.5q-5 14 -6 20.5t-1 11.5q0 15 5 25t5 14q0 3 -5 4.5t-7 1.5q0 20 0.5 33t2 21.5t5.5 13.5t12 10q7 4 14 11t13 14t11.5 12t9.5 6q12 18 19.5 26
t22.5 17q4 8 13 15.5t19.5 15t21.5 16t20 19.5q9 2 17 9.5t16 16.5q13 8 24.5 16.5t22.5 16t22.5 12.5t24.5 5q15 0 19.5 -7.5t12.5 -14.5q-2 -17 -13.5 -31t-28.5 -19q-10 -20 -24.5 -29.5t-29.5 -25.5q-5 -9 -13.5 -17t-20.5 -16q-7 -11 -17 -21.5t-19 -14.5
q-8 -16 -27 -32t-31 -35q-2 -8 -6.5 -12t-4.5 -13q15 0 26 12t29 20q3 7 19.5 23.5t37.5 26.5q19 23 37.5 38t26.5 15t13 -2t13 -4q2 3 3.5 9.5t5 14.5t10 17t18.5 18q6 4 11 10.5t13 14.5t20 17.5t31 20.5q5 11 18.5 15t29.5 4q11 0 24 -6t14 -12q8 -3 11.5 -13.5
t3.5 -24.5zM441 278q0 8 -5 8q-8 0 -16 -7.5t-17 -14.5q0 -2 -4.5 -6.5t-9.5 -10.5t-9 -12.5t-4 -12.5t10 -6q5 2 14.5 8.5t9.5 11.5q10 5 20.5 18t10.5 24z" />
    <glyph glyph-name="ccedilla" unicode="&#xe7;" horiz-adv-x="333" 
d="M235 122q0 -9 -13 -25q-2 -8 -3.5 -14.5t-3.5 -12.5q9 2 33.5 16.5t66.5 45.5q11 9 14.5 20t8.5 11q6 0 7.5 -7.5t6.5 -7.5q-2 -6 -2.5 -11.5t-0.5 -11.5q4 -5 4 -13t-10.5 -18.5t-25 -21.5t-30.5 -22t-28 -18q-27 -18 -44.5 -25t-29.5 -10q-7 -14 -12.5 -27.5
t-7.5 -28.5q-14 -20 -20 -35t-9.5 -24.5t-5.5 -14.5t-7 -5q-6 0 -19.5 5t-13.5 17q0 26 10.5 43.5t12.5 30.5q1 6 4 14.5t7 16.5q-15 1 -26.5 3.5t-23.5 9.5q-3 5 -10 9t-14.5 10.5t-13.5 17.5t-6 30q-2 2 -2.5 8t-1.5 12.5t-2 11.5t-3 5q-6 0 -13 -10t-9 -10q-4 0 -4 5v3
t0.5 7.5t0.5 16.5v31q0 3 9 11t21 17t23 16t14 9q5 9 15 20.5t36 28.5q4 4 17 14.5t28.5 21t29 19.5t18.5 10q20 19 44 30.5t50 11.5q5 0 7.5 -3.5t2.5 -17.5q2 -6 3.5 -12.5t1.5 -13.5q0 -10 -23.5 -31.5t-59.5 -36.5q-5 -9 -18 -18.5t-29 -20.5t-32.5 -24t-26.5 -29
q-6 -9 -6.5 -26t-2.5 -23q5 -20 11 -27t24 -11q5 15 9 23q4 5 8 13.5t9.5 16t14 13t21.5 4.5q14 -1 17 -4t3 -8z" />
    <glyph glyph-name="egrave" unicode="&#xe8;" horiz-adv-x="296" 
d="M245 326q0 -10 -1 -21t-9 -14q-4 -14 -12.5 -26.5t-21.5 -24.5q-6 -9 -16.5 -19.5t-20.5 -19.5t-19 -15t-12 -7q-8 -13 -18 -17.5t-18 -14.5q2 -21 4 -30.5t6 -11.5q10 -5 17.5 -12t30.5 -7q15 0 27.5 3.5t23 8t19 9t13.5 5.5q1 2 5 4.5t8.5 5t8.5 4.5t5 4l8 3
q13 5 17.5 15.5t12.5 10.5t8 -7q0 -4 -1 -7t-1 -6q0 -29 -4 -38.5t-8 -11.5q-21 -11 -41 -25t-39 -26t-38 -20t-38 -8q-12 -4 -24 -4q-26 0 -42.5 8t-36.5 23q-3 8 -8.5 16.5t-11 20.5t-9.5 30t-4 46q0 17 3 28.5t8 21.5t11 21.5t12 29.5q8 7 12 19.5t18 29.5q8 7 13.5 13.5
t13 14t18.5 16t30 19.5q5 11 18.5 15t29.5 4q11 0 24 -6t14 -12q8 -3 11.5 -13.5t3.5 -24.5zM163 278q0 8 -5 8q-8 0 -16 -7.5t-17 -14.5q0 -2 -4.5 -6.5t-9.5 -10.5t-9 -12.5t-4 -12.5t10 -6q5 2 14.5 8.5t9.5 11.5q10 5 20.5 18t10.5 24zM100 592q3 0 6 -6t11.5 -17
t25 -27t45.5 -36q16 -11 27 -16t21.5 -9t21.5 -8.5t27 -13.5q0 -13 -8.5 -17t-13.5 -6q-8 3 -18.5 6t-22 6.5t-22 7t-17.5 7.5q-9 5 -17.5 10t-13.5 6q-11 2 -31.5 16.5t-47.5 23.5q-4 11 -8 17t-10 13q0 24 2 26q8 11 19.5 14t23.5 3z" />
    <glyph glyph-name="eacute" unicode="&#xe9;" horiz-adv-x="296" 
d="M245 326q0 -10 -1 -21t-9 -14q-4 -14 -12.5 -26.5t-21.5 -24.5q-6 -9 -16.5 -19.5t-20.5 -19.5t-19 -15t-12 -7q-8 -13 -18 -17.5t-18 -14.5q2 -21 4 -30.5t6 -11.5q10 -5 17.5 -12t30.5 -7q15 0 27.5 3.5t23 8t19 9t13.5 5.5q1 2 5 4.5t8.5 5t8.5 4.5t5 4l8 3
q13 5 17.5 15.5t12.5 10.5t8 -7q0 -4 -1 -7t-1 -6q0 -29 -4 -38.5t-8 -11.5q-21 -11 -41 -25t-39 -26t-38 -20t-38 -8q-12 -4 -24 -4q-26 0 -42.5 8t-36.5 23q-3 8 -8.5 16.5t-11 20.5t-9.5 30t-4 46q0 17 3 28.5t8 21.5t11 21.5t12 29.5q8 7 12 19.5t18 29.5q8 7 13.5 13.5
t13 14t18.5 16t30 19.5q5 11 18.5 15t29.5 4q11 0 24 -6t14 -12q8 -3 11.5 -13.5t3.5 -24.5zM163 278q0 8 -5 8q-8 0 -16 -7.5t-17 -14.5q0 -2 -4.5 -6.5t-9.5 -10.5t-9 -12.5t-4 -12.5t10 -6q5 2 14.5 8.5t9.5 11.5q10 5 20.5 18t10.5 24zM323 592q12 0 23.5 -3t19.5 -14
q2 -2 2 -26q-6 -7 -10 -13t-8 -17q-27 -9 -47.5 -23.5t-31.5 -16.5q-5 -1 -13.5 -6t-17.5 -10q-7 -4 -17.5 -7.5t-22 -7t-22.5 -6.5t-18 -6q-5 2 -13.5 6t-8.5 17q16 9 27 13.5t21.5 8.5t21.5 9t27 16q29 20 45.5 36t25 27t11.5 17t6 6z" />
    <glyph glyph-name="ecircumflex" unicode="&#xea;" horiz-adv-x="296" 
d="M245 326q0 -10 -1 -21t-9 -14q-4 -14 -12.5 -26.5t-21.5 -24.5q-6 -9 -16.5 -19.5t-20.5 -19.5t-19 -15t-12 -7q-8 -13 -18 -17.5t-18 -14.5q2 -21 4 -30.5t6 -11.5q10 -5 17.5 -12t30.5 -7q15 0 27.5 3.5t23 8t19 9t13.5 5.5q1 2 5 4.5t8.5 5t8.5 4.5t5 4l8 3
q13 5 17.5 15.5t12.5 10.5t8 -7q0 -4 -1 -7t-1 -6q0 -29 -4 -38.5t-8 -11.5q-21 -11 -41 -25t-39 -26t-38 -20t-38 -8q-12 -4 -24 -4q-26 0 -42.5 8t-36.5 23q-3 8 -8.5 16.5t-11 20.5t-9.5 30t-4 46q0 17 3 28.5t8 21.5t11 21.5t12 29.5q8 7 12 19.5t18 29.5q8 7 13.5 13.5
t13 14t18.5 16t30 19.5q5 11 18.5 15t29.5 4q11 0 24 -6t14 -12q8 -3 11.5 -13.5t3.5 -24.5zM163 278q0 8 -5 8q-8 0 -16 -7.5t-17 -14.5q0 -2 -4.5 -6.5t-9.5 -10.5t-9 -12.5t-4 -12.5t10 -6q5 2 14.5 8.5t9.5 11.5q10 5 20.5 18t10.5 24zM189 502q-4 0 -10.5 -4
t-14.5 -9.5t-15.5 -10.5t-12.5 -7q-17 -7 -31.5 -18t-17.5 -11q-8 0 -13.5 7.5t-5.5 15.5q0 4 4.5 9.5t8.5 13.5q12 13 34.5 25t37.5 28q17 5 25 13t19 8q14 0 33.5 -14.5t55.5 -28.5q9 -3 16 -9.5t13 -10.5q10 -6 12 -16.5t2 -31.5q0 -9 -6 -9t-14.5 4.5t-19 10.5t-23 11.5
t-27.5 8.5q-2 0 -8 4t-13.5 8.5t-15.5 8.5t-13 4z" />
    <glyph glyph-name="edieresis" unicode="&#xeb;" horiz-adv-x="296" 
d="M245 326q0 -10 -1 -21t-9 -14q-4 -14 -12.5 -26.5t-21.5 -24.5q-6 -9 -16.5 -19.5t-20.5 -19.5t-19 -15t-12 -7q-8 -13 -18 -17.5t-18 -14.5q2 -21 4 -30.5t6 -11.5q10 -5 17.5 -12t30.5 -7q15 0 27.5 3.5t23 8t19 9t13.5 5.5q1 2 5 4.5t8.5 5t8.5 4.5t5 4l8 3
q13 5 17.5 15.5t12.5 10.5t8 -7q0 -4 -1 -7t-1 -6q0 -29 -4 -38.5t-8 -11.5q-21 -11 -41 -25t-39 -26t-38 -20t-38 -8q-12 -4 -24 -4q-26 0 -42.5 8t-36.5 23q-3 8 -8.5 16.5t-11 20.5t-9.5 30t-4 46q0 17 3 28.5t8 21.5t11 21.5t12 29.5q8 7 12 19.5t18 29.5q8 7 13.5 13.5
t13 14t18.5 16t30 19.5q5 11 18.5 15t29.5 4q11 0 24 -6t14 -12q8 -3 11.5 -13.5t3.5 -24.5zM163 278q0 8 -5 8q-8 0 -16 -7.5t-17 -14.5q0 -2 -4.5 -6.5t-9.5 -10.5t-9 -12.5t-4 -12.5t10 -6q5 2 14.5 8.5t9.5 11.5q10 5 20.5 18t10.5 24zM94 487q0 8 5.5 13.5t10.5 15.5
q5 8 17 15t19 7q12 0 20.5 -3.5t14.5 -7.5q9 0 12 -6t3 -29q0 -12 -3 -17t-8.5 -8t-12 -6.5t-12.5 -12.5q-2 2 -8 2.5t-14 0.5q-8 -2 -11.5 -2.5t-5.5 -0.5q-18 10 -22.5 18.5t-4.5 20.5zM241 487q0 8 5.5 13.5t10.5 15.5q5 8 17 15t19 7q12 0 20.5 -3.5t14.5 -7.5
q9 0 12 -6t3 -29q0 -12 -3 -17t-8.5 -8t-12 -6.5t-12.5 -12.5q-2 2 -8 2.5t-14 0.5q-8 -2 -11.5 -2.5t-5.5 -0.5q-18 10 -22.5 18.5t-4.5 20.5z" />
    <glyph glyph-name="igrave" unicode="&#xec;" horiz-adv-x="296" 
d="M-5 102q0 3 0.5 11l1 16t1.5 15.5t1 9.5q11 7 21 21.5t22 19.5q2 4 8.5 13t15 18.5t17 18t14.5 10.5q5 11 8.5 15.5t11.5 9.5q20 0 32.5 -5t26.5 -23q1 -2 3.5 -12t4.5 -23t3.5 -27.5t1.5 -25.5q3 -3 5.5 -10.5t6 -16t9 -14.5t16.5 -6q9 0 17 4t20 8q5 6 13.5 15t24.5 17
q0 -15 -1 -30.5t-1 -30.5q0 -6 -12 -17.5t-28.5 -23t-34 -20t-27.5 -8.5q-3 0 -8 0.5t-10.5 1t-9.5 1l-4 0.5q-5 5 -11.5 9t-13.5 11t-14 19t-13 34q-9 9 -13 17t-6.5 15t-5.5 11t-12 4q-4 0 -12 -6t-16 -13.5t-14.5 -14.5t-7.5 -10q-11 -3 -16.5 -12t-11.5 -10q-3 3 -3 14z
M100 592q3 0 6 -6t11.5 -17t25 -27t45.5 -36q16 -11 27 -16t21.5 -9t21.5 -8.5t27 -13.5q0 -13 -8.5 -17t-13.5 -6q-8 3 -18.5 6t-22 6.5t-22 7t-17.5 7.5q-9 5 -17.5 10t-13.5 6q-11 2 -31.5 16.5t-47.5 23.5q-4 11 -8 17t-10 13q0 24 2 26q8 11 19.5 14t23.5 3z" />
    <glyph glyph-name="iacute" unicode="&#xed;" horiz-adv-x="296" 
d="M-5 102q0 3 0.5 11l1 16t1.5 15.5t1 9.5q11 7 21 21.5t22 19.5q2 4 8.5 13t15 18.5t17 18t14.5 10.5q5 11 8.5 15.5t11.5 9.5q20 0 32.5 -5t26.5 -23q1 -2 3.5 -12t4.5 -23t3.5 -27.5t1.5 -25.5q3 -3 5.5 -10.5t6 -16t9 -14.5t16.5 -6q9 0 17 4t20 8q5 6 13.5 15t24.5 17
q0 -15 -1 -30.5t-1 -30.5q0 -6 -12 -17.5t-28.5 -23t-34 -20t-27.5 -8.5q-3 0 -8 0.5t-10.5 1t-9.5 1l-4 0.5q-5 5 -11.5 9t-13.5 11t-14 19t-13 34q-9 9 -13 17t-6.5 15t-5.5 11t-12 4q-4 0 -12 -6t-16 -13.5t-14.5 -14.5t-7.5 -10q-11 -3 -16.5 -12t-11.5 -10q-3 3 -3 14z
M323 592q12 0 23.5 -3t19.5 -14q2 -2 2 -26q-6 -7 -10 -13t-8 -17q-27 -9 -47.5 -23.5t-31.5 -16.5q-5 -1 -13.5 -6t-17.5 -10q-7 -4 -17.5 -7.5t-22 -7t-22.5 -6.5t-18 -6q-5 2 -13.5 6t-8.5 17q16 9 27 13.5t21.5 8.5t21.5 9t27 16q29 20 45.5 36t25 27t11.5 17t6 6z" />
    <glyph glyph-name="icircumflex" unicode="&#xee;" horiz-adv-x="296" 
d="M-5 102q0 3 0.5 11l1 16t1.5 15.5t1 9.5q11 7 21 21.5t22 19.5q2 4 8.5 13t15 18.5t17 18t14.5 10.5q5 11 8.5 15.5t11.5 9.5q20 0 32.5 -5t26.5 -23q1 -2 3.5 -12t4.5 -23t3.5 -27.5t1.5 -25.5q3 -3 5.5 -10.5t6 -16t9 -14.5t16.5 -6q9 0 17 4t20 8q5 6 13.5 15t24.5 17
q0 -15 -1 -30.5t-1 -30.5q0 -6 -12 -17.5t-28.5 -23t-34 -20t-27.5 -8.5q-3 0 -8 0.5t-10.5 1t-9.5 1l-4 0.5q-5 5 -11.5 9t-13.5 11t-14 19t-13 34q-9 9 -13 17t-6.5 15t-5.5 11t-12 4q-4 0 -12 -6t-16 -13.5t-14.5 -14.5t-7.5 -10q-11 -3 -16.5 -12t-11.5 -10q-3 3 -3 14z
M199 502q-4 0 -10.5 -4t-14.5 -9.5t-15.5 -10.5t-12.5 -7q-17 -7 -31.5 -18t-17.5 -11q-8 0 -13.5 7.5t-5.5 15.5q0 4 4.5 9.5t8.5 13.5q12 13 34.5 25t37.5 28q17 5 25 13t19 8q14 0 33.5 -14.5t55.5 -28.5q9 -3 16 -9.5t13 -10.5q10 -6 12 -16.5t2 -31.5q0 -9 -6 -9
t-14.5 4.5t-19 10.5t-23 11.5t-27.5 8.5q-2 0 -8 4t-13.5 8.5t-15.5 8.5t-13 4z" />
    <glyph glyph-name="idieresis" unicode="&#xef;" horiz-adv-x="296" 
d="M-5 102q0 3 0.5 11l1 16t1.5 15.5t1 9.5q11 7 21 21.5t22 19.5q2 4 8.5 13t15 18.5t17 18t14.5 10.5q5 11 8.5 15.5t11.5 9.5q20 0 32.5 -5t26.5 -23q1 -2 3.5 -12t4.5 -23t3.5 -27.5t1.5 -25.5q3 -3 5.5 -10.5t6 -16t9 -14.5t16.5 -6q9 0 17 4t20 8q5 6 13.5 15t24.5 17
q0 -15 -1 -30.5t-1 -30.5q0 -6 -12 -17.5t-28.5 -23t-34 -20t-27.5 -8.5q-3 0 -8 0.5t-10.5 1t-9.5 1l-4 0.5q-5 5 -11.5 9t-13.5 11t-14 19t-13 34q-9 9 -13 17t-6.5 15t-5.5 11t-12 4q-4 0 -12 -6t-16 -13.5t-14.5 -14.5t-7.5 -10q-11 -3 -16.5 -12t-11.5 -10q-3 3 -3 14z
M84 487q0 8 5.5 13.5t10.5 15.5q5 8 17 15t19 7q12 0 20.5 -3.5t14.5 -7.5q9 0 12 -6t3 -29q0 -12 -3 -17t-8.5 -8t-12 -6.5t-12.5 -12.5q-2 2 -8 2.5t-14 0.5q-8 -2 -11.5 -2.5t-5.5 -0.5q-18 10 -22.5 18.5t-4.5 20.5zM231 487q0 8 5.5 13.5t10.5 15.5q5 8 17 15t19 7
q12 0 20.5 -3.5t14.5 -7.5q9 0 12 -6t3 -29q0 -12 -3 -17t-8.5 -8t-12 -6.5t-12.5 -12.5q-2 2 -8 2.5t-14 0.5q-8 -2 -11.5 -2.5t-5.5 -0.5q-18 10 -22.5 18.5t-4.5 20.5z" />
    <glyph glyph-name="eth" unicode="&#xf0;" horiz-adv-x="407" 
d="M-5 150q4 3 7.5 7.5t13.5 15t30 29t56 49.5q5 2 11 14t17 14q10 9 22 20.5t22.5 22t19 17.5t11.5 7q23 0 31.5 -3.5t8.5 -8.5q0 -3 -6 -9.5t-6 -17.5q11 1 23 8t26 7q17 0 31.5 -6.5t22.5 -19.5h2q1 18 3 29.5t4 22t4 23t3 32.5q-2 4 -2.5 16t-0.5 38q0 22 -2 32.5
t-4 18.5q-24 -17 -48.5 -28t-34.5 -11q-3 0 -9.5 7.5t-13.5 17t-12 17.5t-5 9q0 5 27 12.5t81 30.5q-12 18 -20.5 29t-16 16.5t-15 7.5t-17.5 2q-7 0 -12 -4t-9.5 -8.5t-9 -8t-10.5 -3.5q-8 0 -14 4t-6 13q0 12 4 28.5t10 31t13.5 25t15.5 10.5q9 0 24 -3.5t30 -8t27 -9
t15 -7.5q4 -4 14 -12t20.5 -19t19.5 -23t12 -23q9 3 25 13t32.5 20.5t30.5 19t19 8.5q2 0 2 -5q0 -2 -1 -9.5t-2.5 -16.5t-2.5 -17t-2 -11q-2 -5 -4 -8.5t-10.5 -9t-25.5 -14.5t-47 -24q0 -20 4.5 -44.5t4.5 -47.5q0 -5 -2.5 -23.5t-2.5 -36.5q-5 -21 -8 -37t-6 -31
t-8 -31.5t-13 -38.5q-3 -4 -7 -14t-8.5 -21t-9.5 -22t-10 -16q-5 -15 -9 -23.5t-8 -14.5l-9 -13.5t-11 -21.5q-18 -16 -23.5 -23t-7.5 -10.5t-5 -7t-17 -12.5q-6 -11 -15.5 -19.5t-19.5 -14.5t-18 -10t-11 -6q-5 -4 -13 -6t-16.5 -3.5t-16 -2.5t-10.5 -2q-17 2 -26.5 3.5
t-15 3.5t-8 4.5t-4.5 6.5q-18 7 -26.5 23t-8.5 30q0 9 1 13.5t1 13.5q0 21 3.5 27t3.5 18q-9 -1 -18.5 -8.5t-18 -15.5t-16 -15.5t-13.5 -8.5v18q2 4 2.5 8.5t0.5 7.5q0 6 -3 9v18zM142 89q0 -29 27 -29q6 0 19 6.5t26.5 15.5t24.5 19t15 17q8 4 14.5 12t6.5 16
q0 11 8.5 21.5t8.5 27.5q0 23 -5.5 35t-24.5 12t-31.5 -10t-21.5 -22.5t-16.5 -22.5t-16.5 -10q-2 0 -7.5 -8t-11.5 -20.5t-10.5 -28t-4.5 -31.5zM304 37q0 7 9.5 19.5t17.5 18.5q8 11 15 17t12.5 11t10 10.5t9.5 15.5q20 13 25 23t10 10q4 0 6 -6t3.5 -13t2.5 -13t3 -6
q0 -14 -4.5 -21t-13.5 -13t-21.5 -13.5t-28.5 -21.5q-17 -8 -27 -17.5t-18 -9.5q-11 0 -11 9z" />
    <glyph glyph-name="ntilde" unicode="&#xf1;" horiz-adv-x="481" 
d="M219 286q0 -6 -1.5 -17.5t-4.5 -23.5t-6.5 -22.5t-6.5 -14.5q0 -8 -4.5 -21t-10 -27t-10 -27t-4.5 -20q0 -4 2 -4t5.5 2t6.5 9q15 20 26.5 32t21.5 21.5l20 19t23 24.5q5 3 11 8.5t13.5 11t16.5 9.5t21 4q20 0 37 -7q6 -14 14 -22.5t10 -19.5q6 -7 9.5 -19.5t8 -24.5
t11 -20.5t18.5 -8.5q9 0 14 4t9.5 9.5l9 11t12.5 9.5q0 -36 4 -59q-50 -65 -90 -65q-18 0 -29 11t-19.5 26t-16.5 29.5t-20 20.5q-2 10 -8.5 16.5t-11.5 6.5q-7 0 -16.5 -7.5t-21 -18t-23.5 -22t-24 -18.5q-9 -18 -23.5 -34.5t-28 -30t-24 -23t-12.5 -14.5q-3 -6 -8.5 -9.5
t-11.5 -5t-12 -1.5h-9q-15 0 -20 3.5t-5 15.5q0 3 0.5 5t0.5 6q0 3 -0.5 6t-0.5 7q0 8 4.5 21t4.5 16q1 3 3.5 9t2.5 16q0 13 10 31t10 43q0 5 4 16t4 16t-6 5q-13 0 -20 -6.5t-10 -11.5q-5 -7 -13.5 -17t-17.5 -19.5t-16 -16t-8 -7.5q-3 -4 -7 -9t-7 -5q-2 0 -4 4q2 2 2 8
t3 11q0 17 -0.5 24t-3.5 15q2 7 11 19.5t19.5 25.5t19 23.5t10.5 14.5q21 19 34.5 34.5t22.5 26.5t14 17.5t10 7.5q15 3 24.5 9t19.5 6q18 0 28 -15.5t10 -32.5zM323 553q14 0 21 -2t10 -5.5t5.5 -7.5t7.5 -8q0 -6 -1.5 -15t-1.5 -14q0 -3 3.5 -5.5t8.5 -2.5t17 4.5t29 9.5
q19 5 31.5 14.5t27.5 9.5q11 0 11 -6q0 -8 -1 -16t-7 -12q0 -5 -11.5 -11t-27.5 -12t-32 -10.5t-25 -4.5q-15 -2 -33 -8t-27 -6q-12 0 -16 8.5t-7 18.5t-7 18.5t-14 8.5q-13 0 -27 -8.5t-18 -9.5q-8 -2 -17.5 -6t-18.5 -9t-16.5 -8.5t-11.5 -3.5q-8 0 -8 7q0 2 1.5 9t1.5 14
q6 8 13.5 13.5t16.5 5.5q5 5 19.5 12.5t30.5 14.5t29.5 12t17.5 5t8 3t18 3z" />
    <glyph glyph-name="ograve" unicode="&#xf2;" horiz-adv-x="407" 
d="M-5 150q4 3 7.5 7.5t13.5 15t30 29t56 49.5q5 2 11 14t17 14q10 9 22 20.5t22.5 22t19 17.5t11.5 7q23 0 31.5 -3.5t8.5 -8.5q0 -3 -6 -9.5t-6 -17.5q11 1 23 8t26 7q21 0 32.5 -3.5t18 -8.5t10 -10.5t8.5 -8.5q3 -11 7.5 -18t4.5 -14q0 -39 -6 -62t-14.5 -38t-16.5 -25
t-12 -23q-18 -16 -23.5 -23t-7.5 -10.5t-5 -7t-17 -12.5q-6 -11 -15.5 -19.5t-19.5 -14.5t-18 -10t-11 -6q-5 -4 -13 -6t-16.5 -3.5t-16 -2.5t-10.5 -2q-17 2 -26.5 3.5t-15 3.5t-8 4.5t-4.5 6.5q-18 7 -26.5 23t-8.5 30q0 9 1 13.5t1 13.5q0 21 3.5 27t3.5 18
q-9 -1 -18.5 -8.5t-18 -15.5t-16 -15.5t-13.5 -8.5v18q2 4 2.5 8.5t0.5 7.5q0 6 -3 9v18zM142 89q0 -29 27 -29q6 0 19 6.5t26.5 15.5t24.5 19t15 17q8 4 14.5 12t6.5 16q0 10 7 18t7 28q0 17 -6.5 28.5t-25.5 11.5q-20 0 -30 -8.5t-17.5 -19t-14.5 -19t-20 -8.5
q-2 0 -7.5 -8t-11 -20.5t-10 -28t-4.5 -31.5zM304 37q0 7 9.5 19.5t17.5 18.5q8 11 15 17t12.5 11t10 10.5t9.5 15.5q20 13 25 23t10 10q4 0 6 -6t3.5 -13t2.5 -13t3 -6q0 -14 -4.5 -21t-13.5 -13t-21.5 -13.5t-28.5 -21.5q-17 -8 -27 -17.5t-18 -9.5q-11 0 -11 9zM158 592
q3 0 6 -6t11.5 -17t25 -27t45.5 -36q16 -11 27 -16t21.5 -9t21.5 -8.5t27 -13.5q0 -13 -8.5 -17t-13.5 -6q-8 3 -18.5 6t-22 6.5t-22 7t-17.5 7.5q-9 5 -17.5 10t-13.5 6q-11 2 -31.5 16.5t-47.5 23.5q-4 11 -8 17t-10 13q0 24 2 26q8 11 19.5 14t23.5 3z" />
    <glyph glyph-name="oacute" unicode="&#xf3;" horiz-adv-x="407" 
d="M-5 150q4 3 7.5 7.5t13.5 15t30 29t56 49.5q5 2 11 14t17 14q10 9 22 20.5t22.5 22t19 17.5t11.5 7q23 0 31.5 -3.5t8.5 -8.5q0 -3 -6 -9.5t-6 -17.5q11 1 23 8t26 7q21 0 32.5 -3.5t18 -8.5t10 -10.5t8.5 -8.5q3 -11 7.5 -18t4.5 -14q0 -39 -6 -62t-14.5 -38t-16.5 -25
t-12 -23q-18 -16 -23.5 -23t-7.5 -10.5t-5 -7t-17 -12.5q-6 -11 -15.5 -19.5t-19.5 -14.5t-18 -10t-11 -6q-5 -4 -13 -6t-16.5 -3.5t-16 -2.5t-10.5 -2q-17 2 -26.5 3.5t-15 3.5t-8 4.5t-4.5 6.5q-18 7 -26.5 23t-8.5 30q0 9 1 13.5t1 13.5q0 21 3.5 27t3.5 18
q-9 -1 -18.5 -8.5t-18 -15.5t-16 -15.5t-13.5 -8.5v18q2 4 2.5 8.5t0.5 7.5q0 6 -3 9v18zM142 89q0 -29 27 -29q6 0 19 6.5t26.5 15.5t24.5 19t15 17q8 4 14.5 12t6.5 16q0 10 7 18t7 28q0 17 -6.5 28.5t-25.5 11.5q-20 0 -30 -8.5t-17.5 -19t-14.5 -19t-20 -8.5
q-2 0 -7.5 -8t-11 -20.5t-10 -28t-4.5 -31.5zM304 37q0 7 9.5 19.5t17.5 18.5q8 11 15 17t12.5 11t10 10.5t9.5 15.5q20 13 25 23t10 10q4 0 6 -6t3.5 -13t2.5 -13t3 -6q0 -14 -4.5 -21t-13.5 -13t-21.5 -13.5t-28.5 -21.5q-17 -8 -27 -17.5t-18 -9.5q-11 0 -11 9zM383 592
q12 0 23.5 -3t19.5 -14q2 -2 2 -26q-6 -7 -10 -13t-8 -17q-27 -9 -47.5 -23.5t-31.5 -16.5q-5 -1 -13.5 -6t-17.5 -10q-7 -4 -17.5 -7.5t-22 -7t-22.5 -6.5t-18 -6q-5 2 -13.5 6t-8.5 17q16 9 27 13.5t21.5 8.5t21.5 9t27 16q29 20 45.5 36t25 27t11.5 17t6 6z" />
    <glyph glyph-name="ocircumflex" unicode="&#xf4;" horiz-adv-x="407" 
d="M-5 150q4 3 7.5 7.5t13.5 15t30 29t56 49.5q5 2 11 14t17 14q10 9 22 20.5t22.5 22t19 17.5t11.5 7q23 0 31.5 -3.5t8.5 -8.5q0 -3 -6 -9.5t-6 -17.5q11 1 23 8t26 7q21 0 32.5 -3.5t18 -8.5t10 -10.5t8.5 -8.5q3 -11 7.5 -18t4.5 -14q0 -39 -6 -62t-14.5 -38t-16.5 -25
t-12 -23q-18 -16 -23.5 -23t-7.5 -10.5t-5 -7t-17 -12.5q-6 -11 -15.5 -19.5t-19.5 -14.5t-18 -10t-11 -6q-5 -4 -13 -6t-16.5 -3.5t-16 -2.5t-10.5 -2q-17 2 -26.5 3.5t-15 3.5t-8 4.5t-4.5 6.5q-18 7 -26.5 23t-8.5 30q0 9 1 13.5t1 13.5q0 21 3.5 27t3.5 18
q-9 -1 -18.5 -8.5t-18 -15.5t-16 -15.5t-13.5 -8.5v18q2 4 2.5 8.5t0.5 7.5q0 6 -3 9v18zM142 89q0 -29 27 -29q6 0 19 6.5t26.5 15.5t24.5 19t15 17q8 4 14.5 12t6.5 16q0 10 7 18t7 28q0 17 -6.5 28.5t-25.5 11.5q-20 0 -30 -8.5t-17.5 -19t-14.5 -19t-20 -8.5
q-2 0 -7.5 -8t-11 -20.5t-10 -28t-4.5 -31.5zM304 37q0 7 9.5 19.5t17.5 18.5q8 11 15 17t12.5 11t10 10.5t9.5 15.5q20 13 25 23t10 10q4 0 6 -6t3.5 -13t2.5 -13t3 -6q0 -14 -4.5 -21t-13.5 -13t-21.5 -13.5t-28.5 -21.5q-17 -8 -27 -17.5t-18 -9.5q-11 0 -11 9zM289 502
q-4 0 -10.5 -4t-14.5 -9.5t-15.5 -10.5t-12.5 -7q-17 -7 -31.5 -18t-17.5 -11q-8 0 -13.5 7.5t-5.5 15.5q0 4 4.5 9.5t8.5 13.5q12 13 34.5 25t37.5 28q17 5 25 13t19 8q14 0 33.5 -14.5t55.5 -28.5q9 -3 16 -9.5t13 -10.5q10 -6 12 -16.5t2 -31.5q0 -9 -6 -9t-14.5 4.5
t-19 10.5t-23 11.5t-27.5 8.5q-2 0 -8 4t-13.5 8.5t-15.5 8.5t-13 4z" />
    <glyph glyph-name="otilde" unicode="&#xf5;" horiz-adv-x="407" 
d="M-5 150q4 3 7.5 7.5t13.5 15t30 29t56 49.5q5 2 11 14t17 14q10 9 22 20.5t22.5 22t19 17.5t11.5 7q23 0 31.5 -3.5t8.5 -8.5q0 -3 -6 -9.5t-6 -17.5q11 1 23 8t26 7q21 0 32.5 -3.5t18 -8.5t10 -10.5t8.5 -8.5q3 -11 7.5 -18t4.5 -14q0 -39 -6 -62t-14.5 -38t-16.5 -25
t-12 -23q-18 -16 -23.5 -23t-7.5 -10.5t-5 -7t-17 -12.5q-6 -11 -15.5 -19.5t-19.5 -14.5t-18 -10t-11 -6q-5 -4 -13 -6t-16.5 -3.5t-16 -2.5t-10.5 -2q-17 2 -26.5 3.5t-15 3.5t-8 4.5t-4.5 6.5q-18 7 -26.5 23t-8.5 30q0 9 1 13.5t1 13.5q0 21 3.5 27t3.5 18
q-9 -1 -18.5 -8.5t-18 -15.5t-16 -15.5t-13.5 -8.5v18q2 4 2.5 8.5t0.5 7.5q0 6 -3 9v18zM142 89q0 -29 27 -29q6 0 19 6.5t26.5 15.5t24.5 19t15 17q8 4 14.5 12t6.5 16q0 10 7 18t7 28q0 17 -6.5 28.5t-25.5 11.5q-20 0 -30 -8.5t-17.5 -19t-14.5 -19t-20 -8.5
q-2 0 -7.5 -8t-11 -20.5t-10 -28t-4.5 -31.5zM304 37q0 7 9.5 19.5t17.5 18.5q8 11 15 17t12.5 11t10 10.5t9.5 15.5q20 13 25 23t10 10q4 0 6 -6t3.5 -13t2.5 -13t3 -6q0 -14 -4.5 -21t-13.5 -13t-21.5 -13.5t-28.5 -21.5q-17 -8 -27 -17.5t-18 -9.5q-11 0 -11 9zM295 553
q14 0 21 -2t10 -5.5t5.5 -7.5t7.5 -8q0 -6 -1.5 -15t-1.5 -14q0 -3 3.5 -5.5t8.5 -2.5t17 4.5t29 9.5q19 5 31.5 14.5t27.5 9.5q11 0 11 -6q0 -8 -1 -16t-7 -12q0 -5 -11.5 -11t-27.5 -12t-32 -10.5t-25 -4.5q-15 -2 -33 -8t-27 -6q-12 0 -16 8.5t-7 18.5t-7 18.5t-14 8.5
q-13 0 -27 -8.5t-18 -9.5q-8 -2 -17.5 -6t-18.5 -9t-16.5 -8.5t-11.5 -3.5q-8 0 -8 7q0 2 1.5 9t1.5 14q6 8 13.5 13.5t16.5 5.5q5 5 19.5 12.5t30.5 14.5t29.5 12t17.5 5t8 3t18 3z" />
    </font>
</defs>
</svg>
